<svg width="19" height="19" viewBox="0 0 19 19" fill="none" xmlns="http://www.w3.org/2000/svg">
<path d="M17.5677 4.58888H14.35V1.42502C14.35 1.19041 14.1563 1 13.9177 1H1.43831L1.33025 1.01275L1.22305 1.05355L1.15734 1.0969C1.1487 1.10371 1.14005 1.11136 1.13141 1.11986L1.12536 1.12581C1.12536 1.12581 1.1219 1.12921 1.12017 1.13091C1.11325 1.13856 1.10461 1.14706 1.09683 1.15556L1.01729 1.30772L1.00259 1.38507C1.00086 1.39952 1 1.41227 1 1.42502V13.9861C1 14.2207 1.19365 14.4111 1.43226 14.4111H4.65002V17.575C4.65002 17.8096 4.84367 18 5.08228 18H17.5677C17.5807 18 17.5937 18 17.6066 17.9983L17.7735 17.949L17.8392 17.9048C17.8496 17.8971 17.8582 17.8886 17.8669 17.8801L17.8738 17.8742L17.879 17.8691C17.8859 17.8623 17.8937 17.8538 17.9014 17.8444L17.9818 17.6931L17.9974 17.6149C17.9991 17.603 18 17.5886 18 17.575V5.0139C18 4.77929 17.8063 4.58888 17.5677 4.58888ZM4.65002 13.5619H1.86452V2.45102L4.65002 5.18986V13.5611V13.5619ZM2.47574 1.85004H13.4855V4.58888H5.26124L2.47574 1.85004ZM13.4855 5.43892V13.5611H5.51454V5.43892H13.4855ZM5.51454 17.1508V14.412H13.7388L16.5243 17.1508H5.51454ZM17.1355 16.5498L14.35 13.811V5.43892H17.1355V16.5498Z" fill="black" stroke="black" stroke-width="0.5"/>
</svg>
