<svg width="36" height="40" viewBox="0 0 36 40" fill="none" xmlns="http://www.w3.org/2000/svg">
<path d="M24.3321 11.4077H9.18555V31.2626H24.3321V11.4077Z" fill="white"/>
<path d="M24.3321 31.9764H9.18554C8.78 31.9764 8.45264 31.6576 8.45264 31.2626V11.4077C8.45264 11.0127 8.78 10.6938 9.18554 10.6938H24.3321C24.7377 10.6938 25.065 11.0127 25.065 11.4077V31.2626C25.065 31.6576 24.7377 31.9764 24.3321 31.9764ZM9.91843 30.5487H23.5992V12.1216H9.91843V30.5487Z" fill="#3C4B53"/>
<path d="M19.3241 18.7363H14.1938C13.7883 18.7363 13.4609 18.4175 13.4609 18.0225C13.4609 17.6275 13.7883 17.3086 14.1938 17.3086H19.3241C19.7297 17.3086 20.057 17.6275 20.057 18.0225C20.057 18.4175 19.7297 18.7363 19.3241 18.7363Z" fill="#3C4B53"/>
<path d="M19.3241 22.1489H14.1938C13.7883 22.1489 13.4609 21.8301 13.4609 21.4351C13.4609 21.04 13.7883 20.7212 14.1938 20.7212H19.3241C19.7297 20.7212 20.057 21.04 20.057 21.4351C20.057 21.8301 19.7297 22.1489 19.3241 22.1489Z" fill="#3C4B53"/>
<path d="M19.3241 25.5561H14.1938C13.7883 25.5561 13.4609 25.2373 13.4609 24.8423C13.4609 24.4473 13.7883 24.1284 14.1938 24.1284H19.3241C19.7297 24.1284 20.057 24.4473 20.057 24.8423C20.057 25.2373 19.7297 25.5561 19.3241 25.5561Z" fill="#3C4B53"/>
<path d="M22.8369 16.3856L21.3174 20.8163C23.8874 21.6539 26.7897 21.5302 29.4037 20.2595L27.2588 16.0811C25.8272 16.7759 24.2392 16.8425 22.832 16.3856H22.8369Z" fill="white"/>
<path d="M24.6843 22.0677C23.4774 22.0677 22.2657 21.8774 21.0882 21.4966C20.9025 21.4348 20.751 21.3063 20.6631 21.1397C20.5751 20.9684 20.5605 20.7733 20.624 20.5924L22.1435 16.1617C22.2071 15.9809 22.339 15.8333 22.51 15.7477C22.6859 15.662 22.8862 15.6477 23.067 15.7096C24.3471 16.1284 25.7201 16.0332 26.9318 15.4431C27.2934 15.267 27.7331 15.4098 27.9139 15.7619L30.0589 19.9404C30.2396 20.2926 30.0931 20.7209 29.7315 20.897C28.1338 21.6727 26.4139 22.0677 24.6794 22.0677H24.6843ZM22.2559 20.3402C24.3129 20.8494 26.453 20.7019 28.4123 19.9166L26.9172 17.0041C25.7592 17.4181 24.5181 17.5038 23.3162 17.2515L22.2559 20.3449V20.3402Z" fill="#3C4B53"/>
<path d="M29.8582 8.5094C30.2979 9.36603 30.4885 10.275 30.4689 11.1697L35.267 11.2839C35.3109 9.65158 34.9543 7.9859 34.153 6.42017C32.223 2.6605 28.2556 0.552231 24.2051 0.723558L24.4201 5.39221C26.6383 5.29703 28.8077 6.44872 29.8631 8.50464L29.8582 8.5094Z" fill="#A3C4E6"/>
<path d="M35.262 11.9978H35.2425L30.4444 11.8836C30.249 11.8836 30.0633 11.798 29.9314 11.6599C29.7995 11.5219 29.7262 11.3411 29.7311 11.1507C29.7506 10.3369 29.5747 9.55644 29.1985 8.8283C28.3092 7.09124 26.4428 6.02521 24.4444 6.11087C24.034 6.12515 23.6969 5.82533 23.6822 5.43032L23.4672 0.761673C23.4575 0.57131 23.5259 0.385706 23.6578 0.247693C23.7897 0.10968 23.9705 0.024017 24.1659 0.0144988C28.6317 -0.171105 32.8092 2.21319 34.8027 6.10135C35.6285 7.70992 36.0389 9.50885 35.9949 11.303C35.9851 11.6933 35.6578 11.9978 35.262 11.9978ZM31.1773 10.4702L34.5242 10.5511C34.4558 9.23282 34.104 7.92408 33.4982 6.73907C31.8711 3.56477 28.578 1.5374 24.9721 1.4327L25.1236 4.69267C27.4151 4.84496 29.4819 6.16322 30.5226 8.19058C30.8891 8.90444 31.1138 9.68017 31.1871 10.4749L31.1773 10.4702Z" fill="#3C4B53"/>
<path d="M22.8371 16.3854C21.4299 15.9285 20.2035 14.9481 19.4853 13.5537C18.0537 10.7649 19.2166 7.37645 22.0798 5.98204C22.8322 5.61559 23.6237 5.42999 24.4104 5.39668L24.1954 0.728027C22.754 0.789895 21.3078 1.13731 19.9348 1.80358C14.7019 4.34968 12.5814 10.546 15.1954 15.643C16.5048 18.1938 18.7475 19.9832 21.3176 20.8161L22.8371 16.3854Z" fill="#EBC364"/>
<path d="M21.3222 21.5302C21.2441 21.5302 21.1659 21.5207 21.0926 21.4922C18.2245 20.5594 15.8988 18.5939 14.5454 15.9574C13.1919 13.3208 12.977 10.3321 13.9346 7.53381C14.8923 4.73548 16.9102 2.47492 19.617 1.15665C21.0389 0.466589 22.5731 0.0811038 24.1659 0.00971773C24.5617 -0.0235958 24.9134 0.295262 24.9281 0.690265L25.1431 5.35891C25.1529 5.54928 25.0845 5.73488 24.9525 5.87289C24.8206 6.01091 24.6398 6.09657 24.4444 6.10609C23.731 6.1394 23.0421 6.31073 22.4069 6.62007C19.9102 7.83363 18.8939 10.8033 20.1398 13.2352C20.7457 14.4107 21.7864 15.2911 23.0665 15.7099C23.4525 15.8336 23.6577 16.2382 23.5307 16.6141L22.0112 21.0448C21.9086 21.3446 21.6252 21.535 21.3174 21.535L21.3222 21.5302ZM23.5014 1.49455C22.3776 1.62304 21.2929 1.9419 20.2669 2.4416C15.4053 4.80686 13.4216 10.5891 15.8548 15.3244C16.9248 17.4041 18.6838 19.0079 20.8678 19.8931L21.9281 16.7997C20.5893 16.1953 19.5046 15.1769 18.8353 13.8729C17.2278 10.7367 18.5372 6.91037 21.7571 5.34464C22.3581 5.05433 22.9932 4.85445 23.6529 4.75451L23.5014 1.49931V1.49455Z" fill="#3C4B53"/>
<path d="M27.2637 16.0807L29.4086 20.2591C33.0389 18.4935 35.1692 14.9718 35.262 11.2788L30.464 11.1646C30.4103 13.1824 29.2474 15.1098 27.2637 16.0759V16.0807Z" fill="#EF9C81"/>
<path d="M29.4086 20.973C29.1398 20.973 28.8809 20.8302 28.7538 20.578L26.6089 16.3995C26.5209 16.2282 26.5063 16.0331 26.5698 15.8522C26.6333 15.6714 26.7652 15.5239 26.9363 15.4382C28.6121 14.6196 29.6871 12.9778 29.731 11.1455C29.7408 10.7553 30.0682 10.4507 30.4639 10.4507H30.4835L35.2815 10.5649C35.477 10.5649 35.6626 10.6506 35.7946 10.7886C35.9265 10.9266 35.9998 11.1074 35.9949 11.2978C35.8874 15.3906 33.4884 19.0694 29.7359 20.8968C29.6333 20.9492 29.5209 20.973 29.4086 20.973ZM28.2262 16.3615L29.7213 19.274C32.4086 17.713 34.1724 15.0099 34.4802 11.9736L31.1333 11.8927C30.8744 13.7249 29.8141 15.3525 28.2213 16.3567L28.2262 16.3615Z" fill="#3C4B53"/>
<path d="M3.71838 23.2578H0.54248V26.3512H3.71838V23.2578Z" fill="#A3C4E6"/>
<path d="M3.71824 26.8794H0.542345C0.2443 26.8794 0 26.6414 0 26.3511V23.2577C0 22.9674 0.2443 22.7295 0.542345 22.7295H3.71824C4.01629 22.7295 4.26059 22.9674 4.26059 23.2577V26.3511C4.26059 26.6414 4.01629 26.8794 3.71824 26.8794ZM1.08469 25.8229H3.1759V23.786H1.08469V25.8229Z" fill="#3C4B53"/>
<path d="M6.89416 23.2578H3.71826V26.3512H6.89416V23.2578Z" fill="white"/>
<path d="M6.89402 26.8794H3.71813C3.42008 26.8794 3.17578 26.6414 3.17578 26.3511V23.2577C3.17578 22.9674 3.42008 22.7295 3.71813 22.7295H6.89402C7.19207 22.7295 7.43637 22.9674 7.43637 23.2577V26.3511C7.43637 26.6414 7.19207 26.8794 6.89402 26.8794ZM4.26047 25.8229H6.35168V23.786H4.26047V25.8229Z" fill="#3C4B53"/>
<path d="M10.0699 23.2578H6.89404V26.3512H10.0699V23.2578Z" fill="white"/>
<path d="M10.0698 26.8794H6.89391C6.59586 26.8794 6.35156 26.6414 6.35156 26.3511V23.2577C6.35156 22.9674 6.59586 22.7295 6.89391 22.7295H10.0698C10.3678 22.7295 10.6121 22.9674 10.6121 23.2577V26.3511C10.6121 26.6414 10.3678 26.8794 10.0698 26.8794ZM7.43625 25.8229H9.52746V23.786H7.43625V25.8229Z" fill="#3C4B53"/>
<path d="M13.2457 23.2578H10.0698V26.3512H13.2457V23.2578Z" fill="#EBC364"/>
<path d="M13.2412 26.8794H10.0653C9.76725 26.8794 9.52295 26.6414 9.52295 26.3511V23.2577C9.52295 22.9674 9.76725 22.7295 10.0653 22.7295H13.2412C13.5392 22.7295 13.7835 22.9674 13.7835 23.2577V26.3511C13.7835 26.6414 13.5392 26.8794 13.2412 26.8794ZM10.6125 25.8229H12.7037V23.786H10.6125V25.8229Z" fill="#3C4B53"/>
<path d="M16.4171 23.2578H13.2412V26.3512H16.4171V23.2578Z" fill="#EBC364"/>
<path d="M16.417 26.8794H13.2411C12.943 26.8794 12.6987 26.6414 12.6987 26.3511V23.2577C12.6987 22.9674 12.943 22.7295 13.2411 22.7295H16.417C16.715 22.7295 16.9593 22.9674 16.9593 23.2577V26.3511C16.9593 26.6414 16.715 26.8794 16.417 26.8794ZM13.7883 25.8229H15.8795V23.786H13.7883V25.8229Z" fill="#3C4B53"/>
<path d="M3.71838 29.8154H0.54248V32.9088H3.71838V29.8154Z" fill="#EBC364"/>
<path d="M3.71824 33.437H0.542345C0.2443 33.437 0 33.1991 0 32.9088V29.8154C0 29.5251 0.2443 29.2871 0.542345 29.2871H3.71824C4.01629 29.2871 4.26059 29.5251 4.26059 29.8154V32.9088C4.26059 33.1991 4.01629 33.437 3.71824 33.437ZM1.08469 32.3805H3.1759V30.3436H1.08469V32.3805Z" fill="#3C4B53"/>
<path d="M6.89416 29.8154H3.71826V32.9088H6.89416V29.8154Z" fill="#EBC364"/>
<path d="M6.89402 33.437H3.71813C3.42008 33.437 3.17578 33.1991 3.17578 32.9088V29.8154C3.17578 29.5251 3.42008 29.2871 3.71813 29.2871H6.89402C7.19207 29.2871 7.43637 29.5251 7.43637 29.8154V32.9088C7.43637 33.1991 7.19207 33.437 6.89402 33.437ZM4.26047 32.3805H6.35168V30.3436H4.26047V32.3805Z" fill="#3C4B53"/>
<path d="M10.0699 29.8154H6.89404V32.9088H10.0699V29.8154Z" fill="white"/>
<path d="M10.0698 33.437H6.89391C6.59586 33.437 6.35156 33.1991 6.35156 32.9088V29.8154C6.35156 29.5251 6.59586 29.2871 6.89391 29.2871H10.0698C10.3678 29.2871 10.6121 29.5251 10.6121 29.8154V32.9088C10.6121 33.1991 10.3678 33.437 10.0698 33.437ZM7.43625 32.3805H9.52746V30.3436H7.43625V32.3805Z" fill="#3C4B53"/>
<path d="M13.2457 29.8154H10.0698V32.9088H13.2457V29.8154Z" fill="white"/>
<path d="M13.2412 33.437H10.0653C9.76725 33.437 9.52295 33.1991 9.52295 32.9088V29.8154C9.52295 29.5251 9.76725 29.2871 10.0653 29.2871H13.2412C13.5392 29.2871 13.7835 29.5251 13.7835 29.8154V32.9088C13.7835 33.1991 13.5392 33.437 13.2412 33.437ZM10.6125 32.3805H12.7037V30.3436H10.6125V32.3805Z" fill="#3C4B53"/>
<path d="M16.4171 29.8154H13.2412V32.9088H16.4171V29.8154Z" fill="white"/>
<path d="M16.417 33.437H13.2411C12.943 33.437 12.6987 33.1991 12.6987 32.9088V29.8154C12.6987 29.5251 12.943 29.2871 13.2411 29.2871H16.417C16.715 29.2871 16.9593 29.5251 16.9593 29.8154V32.9088C16.9593 33.1991 16.715 33.437 16.417 33.437ZM13.7883 32.3805H15.8795V30.3436H13.7883V32.3805Z" fill="#3C4B53"/>
<path d="M3.71838 36.3784H0.54248V39.4718H3.71838V36.3784Z" fill="white"/>
<path d="M3.71824 40H0.542345C0.2443 40 0 39.7621 0 39.4718V36.3784C0 36.0881 0.2443 35.8501 0.542345 35.8501H3.71824C4.01629 35.8501 4.26059 36.0881 4.26059 36.3784V39.4718C4.26059 39.7621 4.01629 40 3.71824 40ZM1.08469 38.9435H3.1759V36.9066H1.08469V38.9435Z" fill="#3C4B53"/>
<path d="M6.89416 36.3784H3.71826V39.4718H6.89416V36.3784Z" fill="white"/>
<path d="M6.89402 40H3.71813C3.42008 40 3.17578 39.7621 3.17578 39.4718V36.3784C3.17578 36.0881 3.42008 35.8501 3.71813 35.8501H6.89402C7.19207 35.8501 7.43637 36.0881 7.43637 36.3784V39.4718C7.43637 39.7621 7.19207 40 6.89402 40ZM4.26047 38.9435H6.35168V36.9066H4.26047V38.9435Z" fill="#3C4B53"/>
<path d="M10.0699 36.3784H6.89404V39.4718H10.0699V36.3784Z" fill="white"/>
<path d="M10.0698 40H6.89391C6.59586 40 6.35156 39.7621 6.35156 39.4718V36.3784C6.35156 36.0881 6.59586 35.8501 6.89391 35.8501H10.0698C10.3678 35.8501 10.6121 36.0881 10.6121 36.3784V39.4718C10.6121 39.7621 10.3678 40 10.0698 40ZM7.43625 38.9435H9.52746V36.9066H7.43625V38.9435Z" fill="#3C4B53"/>
<path d="M13.2457 36.3784H10.0698V39.4718H13.2457V36.3784Z" fill="#A3C4E6"/>
<path d="M13.2412 40H10.0653C9.76725 40 9.52295 39.7621 9.52295 39.4718V36.3784C9.52295 36.0881 9.76725 35.8501 10.0653 35.8501H13.2412C13.5392 35.8501 13.7835 36.0881 13.7835 36.3784V39.4718C13.7835 39.7621 13.5392 40 13.2412 40ZM10.6125 38.9435H12.7037V36.9066H10.6125V38.9435Z" fill="#3C4B53"/>
<path d="M16.4171 36.3784H13.2412V39.4718H16.4171V36.3784Z" fill="white"/>
<path d="M16.417 40H13.2411C12.943 40 12.6987 39.7621 12.6987 39.4718V36.3784C12.6987 36.0881 12.943 35.8501 13.2411 35.8501H16.417C16.715 35.8501 16.9593 36.0881 16.9593 36.3784V39.4718C16.9593 39.7621 16.715 40 16.417 40ZM13.7883 38.9435H15.8795V36.9066H13.7883V38.9435Z" fill="#3C4B53"/>
</svg>
