<svg width="46" height="41" viewBox="0 0 46 41" fill="none" xmlns="http://www.w3.org/2000/svg">
<g clip-path="url(#clip0_515_4547)">
<path d="M39.5232 5.37549H0.719727V29.3849H39.5232V5.37549Z" fill="white"/>
<path d="M39.5232 30.1015H0.71965C0.321443 30.1015 0 29.7814 0 29.3848V5.37539C0 4.97882 0.321443 4.65869 0.71965 4.65869H39.5232C39.9214 4.65869 40.2428 4.97882 40.2428 5.37539V29.3848C40.2428 29.7814 39.9214 30.1015 39.5232 30.1015ZM1.4393 28.6681H38.8035V6.09209H1.4393V28.6681Z" fill="#3C4B53"/>
<path d="M39.5232 0.716797H0.719727V5.37534H39.5232V0.716797Z" fill="#A3C4E6"/>
<path d="M39.5232 6.09195H0.71965C0.321443 6.09195 0 5.77182 0 5.37525V0.7167C0 0.320126 0.321443 0 0.71965 0H39.5232C39.9214 0 40.2428 0.320126 40.2428 0.7167V5.37525C40.2428 5.77182 39.9214 6.09195 39.5232 6.09195ZM1.4393 4.65855H38.8035V1.4334H1.4393V4.65855Z" fill="#3C4B53"/>
<path d="M4.26039 3.28249C4.39287 3.28249 4.50027 3.17553 4.50027 3.04359C4.50027 2.91165 4.39287 2.80469 4.26039 2.80469C4.12791 2.80469 4.02051 2.91165 4.02051 3.04359C4.02051 3.17553 4.12791 3.28249 4.26039 3.28249Z" fill="#EF9C81"/>
<path d="M4.26031 4.00397C3.73257 4.00397 3.30078 3.57395 3.30078 3.04837C3.30078 2.52279 3.73257 2.09277 4.26031 2.09277C4.78806 2.09277 5.21985 2.52279 5.21985 3.04837C5.21985 3.57395 4.78806 4.00397 4.26031 4.00397ZM4.26031 2.57057C3.99644 2.57057 3.78055 2.78558 3.78055 3.04837C3.78055 3.31116 3.99644 3.52617 4.26031 3.52617C4.52419 3.52617 4.74008 3.31116 4.74008 3.04837C4.74008 2.78558 4.52419 2.57057 4.26031 2.57057Z" fill="#3C4B53"/>
<path d="M7.97865 3.28249C8.11114 3.28249 8.21854 3.17553 8.21854 3.04359C8.21854 2.91165 8.11114 2.80469 7.97865 2.80469C7.84617 2.80469 7.73877 2.91165 7.73877 3.04359C7.73877 3.17553 7.84617 3.28249 7.97865 3.28249Z" fill="#EF9C81"/>
<path d="M7.97858 4.00397C7.45083 4.00397 7.01904 3.57395 7.01904 3.04837C7.01904 2.52279 7.45083 2.09277 7.97858 2.09277C8.50632 2.09277 8.93811 2.52279 8.93811 3.04837C8.93811 3.57395 8.50632 4.00397 7.97858 4.00397ZM7.97858 2.57057C7.7147 2.57057 7.49881 2.78558 7.49881 3.04837C7.49881 3.31116 7.7147 3.52617 7.97858 3.52617C8.24245 3.52617 8.45834 3.31116 8.45834 3.04837C8.45834 2.78558 8.24245 2.57057 7.97858 2.57057Z" fill="#3C4B53"/>
<path d="M44.7284 22.6572H26.8667L34.1496 33.4221V39.0362L37.4455 40.2833V33.4221L44.7284 22.6572Z" fill="#EF9C81"/>
<path d="M37.4459 40.9998C37.3595 40.9998 37.2732 40.9854 37.1916 40.952L33.8956 39.7001C33.6173 39.595 33.4302 39.3275 33.4302 39.0312V33.6369L26.2721 23.0536C26.1234 22.8338 26.109 22.5519 26.2337 22.3178C26.3585 22.0837 26.6031 21.9355 26.867 21.9355H44.7239C44.9878 21.9355 45.2325 22.0837 45.3572 22.3178C45.482 22.5519 45.4676 22.8338 45.3188 23.0536L38.1607 33.6369V40.2831C38.1607 40.5172 38.0456 40.7417 37.8489 40.8755C37.7289 40.9568 37.585 40.9998 37.4411 40.9998H37.4459ZM34.8695 38.5391L36.7262 39.2415V33.4171C36.7262 33.2737 36.7694 33.1352 36.851 33.0157L43.3758 23.3689H28.2248L34.7496 33.0157C34.8311 33.1352 34.8743 33.2737 34.8743 33.4171V38.5391H34.8695Z" fill="#3C4B53"/>
<path d="M44.0811 20.5312H27.51C26.8475 20.5312 26.3105 21.066 26.3105 21.7257V22.6957C26.3105 23.3554 26.8475 23.8902 27.51 23.8902H44.0811C44.7435 23.8902 45.2805 23.3554 45.2805 22.6957V21.7257C45.2805 21.066 44.7435 20.5312 44.0811 20.5312Z" fill="#EF9C81"/>
<path d="M44.0858 24.6068H27.5099C26.4544 24.6068 25.5908 23.7515 25.5908 22.6956V21.7257C25.5908 20.6745 26.4496 19.8145 27.5099 19.8145H44.0858C45.1413 19.8145 46.0049 20.6697 46.0049 21.7257V22.6956C46.0049 23.7467 45.1461 24.6068 44.0858 24.6068ZM27.5099 21.2479C27.246 21.2479 27.0301 21.4629 27.0301 21.7257V22.6956C27.0301 22.9584 27.246 23.1734 27.5099 23.1734H44.0858C44.3497 23.1734 44.5656 22.9584 44.5656 22.6956V21.7257C44.5656 21.4629 44.3497 21.2479 44.0858 21.2479H27.5099Z" fill="#3C4B53"/>
<path d="M8.21858 9.51758H5.1001V12.6233H8.21858V9.51758Z" fill="white"/>
<path d="M8.2185 13.3404H5.10002C4.70181 13.3404 4.38037 13.0202 4.38037 12.6237V9.51797C4.38037 9.1214 4.70181 8.80127 5.10002 8.80127H8.2185C8.61671 8.80127 8.93815 9.1214 8.93815 9.51797V12.6237C8.93815 13.0202 8.61671 13.3404 8.2185 13.3404ZM5.81967 11.907H7.49885V10.2347H5.81967V11.907Z" fill="#3C4B53"/>
<path d="M8.21858 15.3945H5.1001V18.5002H8.21858V15.3945Z" fill="#EF9C81"/>
<path d="M8.2185 19.2173H5.10002C4.70181 19.2173 4.38037 18.8972 4.38037 18.5006V15.3949C4.38037 14.9983 4.70181 14.6782 5.10002 14.6782H8.2185C8.61671 14.6782 8.93815 14.9983 8.93815 15.3949V18.5006C8.93815 18.8972 8.61671 19.2173 8.2185 19.2173ZM5.81967 17.7839H7.49885V16.1116H5.81967V17.7839Z" fill="#3C4B53"/>
<path d="M8.21858 21.2764H5.1001V24.3821H8.21858V21.2764Z" fill="white"/>
<path d="M8.2185 25.0987H5.10002C4.70181 25.0987 4.38037 24.7785 4.38037 24.382V21.2763C4.38037 20.8797 4.70181 20.5596 5.10002 20.5596H8.2185C8.61671 20.5596 8.93815 20.8797 8.93815 21.2763V24.382C8.93815 24.7785 8.61671 25.0987 8.2185 25.0987ZM5.81967 23.6653H7.49885V21.993H5.81967V23.6653Z" fill="#3C4B53"/>
<path d="M15.0169 9.51758H11.8984V12.6233H15.0169V9.51758Z" fill="#EF9C81"/>
<path d="M15.0168 13.3404H11.8984C11.5002 13.3404 11.1787 13.0202 11.1787 12.6237V9.51797C11.1787 9.1214 11.5002 8.80127 11.8984 8.80127H15.0168C15.415 8.80127 15.7365 9.1214 15.7365 9.51797V12.6237C15.7365 13.0202 15.415 13.3404 15.0168 13.3404ZM12.618 11.907H14.2972V10.2347H12.618V11.907Z" fill="#3C4B53"/>
<path d="M15.0169 15.3945H11.8984V18.5002H15.0169V15.3945Z" fill="#EBC364"/>
<path d="M15.0168 19.2173H11.8984C11.5002 19.2173 11.1787 18.8972 11.1787 18.5006V15.3949C11.1787 14.9983 11.5002 14.6782 11.8984 14.6782H15.0168C15.415 14.6782 15.7365 14.9983 15.7365 15.3949V18.5006C15.7365 18.8972 15.415 19.2173 15.0168 19.2173ZM12.618 17.7839H14.2972V16.1116H12.618V17.7839Z" fill="#3C4B53"/>
<path d="M15.0169 21.2764H11.8984V24.3821H15.0169V21.2764Z" fill="#EF9C81"/>
<path d="M15.0168 25.0987H11.8984C11.5002 25.0987 11.1787 24.7785 11.1787 24.382V21.2763C11.1787 20.8797 11.5002 20.5596 11.8984 20.5596H15.0168C15.415 20.5596 15.7365 20.8797 15.7365 21.2763V24.382C15.7365 24.7785 15.415 25.0987 15.0168 25.0987ZM12.618 23.6653H14.2972V21.993H12.618V23.6653Z" fill="#3C4B53"/>
<path d="M21.8148 9.51758H18.6963V12.6233H21.8148V9.51758Z" fill="#EF9C81"/>
<path d="M21.8152 13.3404H18.6967C18.2985 13.3404 17.9771 13.0202 17.9771 12.6237V9.51797C17.9771 9.1214 18.2985 8.80127 18.6967 8.80127H21.8152C22.2134 8.80127 22.5348 9.1214 22.5348 9.51797V12.6237C22.5348 13.0202 22.2134 13.3404 21.8152 13.3404ZM19.4164 11.907H21.0955V10.2347H19.4164V11.907Z" fill="#3C4B53"/>
<path d="M29.429 9.51758H26.3105V12.6233H29.429V9.51758Z" fill="#EBC364"/>
<path d="M29.429 13.3404H26.3105C25.9123 13.3404 25.5908 13.0202 25.5908 12.6237V9.51797C25.5908 9.1214 25.9123 8.80127 26.3105 8.80127H29.429C29.8272 8.80127 30.1486 9.1214 30.1486 9.51797V12.6237C30.1486 13.0202 29.8272 13.3404 29.429 13.3404ZM27.0301 11.907H28.7093V10.2347H27.0301V11.907Z" fill="#3C4B53"/>
<path d="M21.8148 15.3945H18.6963V18.5002H21.8148V15.3945Z" fill="white"/>
<path d="M21.8152 19.2173H18.6967C18.2985 19.2173 17.9771 18.8972 17.9771 18.5006V15.3949C17.9771 14.9983 18.2985 14.6782 18.6967 14.6782H21.8152C22.2134 14.6782 22.5348 14.9983 22.5348 15.3949V18.5006C22.5348 18.8972 22.2134 19.2173 21.8152 19.2173ZM19.4164 17.7839H21.0955V16.1116H19.4164V17.7839Z" fill="#3C4B53"/>
<path d="M21.8148 21.2764H18.6963V24.3821H21.8148V21.2764Z" fill="#EF9C81"/>
<path d="M21.8152 25.0987H18.6967C18.2985 25.0987 17.9771 24.7785 17.9771 24.382V21.2763C17.9771 20.8797 18.2985 20.5596 18.6967 20.5596H21.8152C22.2134 20.5596 22.5348 20.8797 22.5348 21.2763V24.382C22.5348 24.7785 22.2134 25.0987 21.8152 25.0987ZM19.4164 23.6653H21.0955V21.993H19.4164V23.6653Z" fill="#3C4B53"/>
</g>
<defs>
<clipPath id="clip0_515_4547">
<rect width="46" height="41" fill="white"/>
</clipPath>
</defs>
</svg>
