<svg width="41" height="46" viewBox="0 0 41 46" fill="none" xmlns="http://www.w3.org/2000/svg">
<g clip-path="url(#clip0_515_4628)">
<path d="M26.7019 11.8267H0.825684V45.1735H26.7019V11.8267Z" fill="white"/>
<path d="M26.702 46.0001H0.825836C0.368873 46.0001 0 45.6309 0 45.1735V11.8266C0 11.3692 0.368873 11 0.825836 11H26.702C27.159 11 27.5279 11.3692 27.5279 11.8266V45.1735C27.5279 45.6309 27.159 46.0001 26.702 46.0001ZM1.65167 44.3468H25.8762V12.6533H1.65167V44.3468Z" fill="#3C4B53"/>
<path d="M12.0845 20.0654H5.8522C5.39524 20.0654 5.02637 19.6962 5.02637 19.2388C5.02637 18.7813 5.39524 18.4121 5.8522 18.4121H12.0845C12.5415 18.4121 12.9103 18.7813 12.9103 19.2388C12.9103 19.6962 12.5415 20.0654 12.0845 20.0654Z" fill="#3C4B53"/>
<path d="M15.9661 24.6948H5.84683C5.38987 24.6948 5.021 24.3256 5.021 23.8681C5.021 23.4107 5.38987 23.0415 5.84683 23.0415H15.9661C16.423 23.0415 16.7919 23.4107 16.7919 23.8681C16.7919 24.3256 16.423 24.6948 15.9661 24.6948Z" fill="#3C4B53"/>
<path d="M20.7834 29.3296H5.84683C5.38987 29.3296 5.021 28.9603 5.021 28.5029C5.021 28.0455 5.38987 27.6763 5.84683 27.6763H20.7779C21.2349 27.6763 21.6038 28.0455 21.6038 28.5029C21.6038 28.9603 21.2349 29.3296 20.7779 29.3296H20.7834Z" fill="#3C4B53"/>
<path d="M20.7834 33.9585H5.84683C5.38987 33.9585 5.021 33.5892 5.021 33.1318C5.021 32.6744 5.38987 32.3052 5.84683 32.3052H20.7779C21.2349 32.3052 21.6038 32.6744 21.6038 33.1318C21.6038 33.5892 21.2349 33.9585 20.7779 33.9585H20.7834Z" fill="#3C4B53"/>
<path d="M20.7834 38.5932H5.84683C5.38987 38.5932 5.021 38.224 5.021 37.7666C5.021 37.3092 5.38987 36.9399 5.84683 36.9399H20.7779C21.2349 36.9399 21.6038 37.3092 21.6038 37.7666C21.6038 38.224 21.2349 38.5932 20.7779 38.5932H20.7834Z" fill="#3C4B53"/>
<path d="M27.5772 26.0448C34.5342 26.0448 40.174 20.3995 40.174 13.4357C40.174 6.47194 34.5342 0.82666 27.5772 0.82666C20.6202 0.82666 14.9805 6.47194 14.9805 13.4357C14.9805 20.3995 20.6202 26.0448 27.5772 26.0448Z" fill="#A3C4E6"/>
<path d="M27.5774 26.8715C20.1779 26.8715 14.1548 20.8425 14.1548 13.4357C14.1548 6.02899 20.1779 0 27.5774 0C34.9769 0 41 6.02899 41 13.4357C41 20.8425 34.9769 26.8715 27.5774 26.8715ZM27.5774 1.65329C21.0863 1.65329 15.8065 6.9383 15.8065 13.4357C15.8065 19.9331 21.0863 25.2182 27.5774 25.2182C34.0684 25.2182 39.3483 19.9331 39.3483 13.4357C39.3483 6.9383 34.0684 1.65329 27.5774 1.65329Z" fill="#3C4B53"/>
<path d="M27.4561 25.8629C31.5192 25.8629 35.1308 23.9341 37.4322 20.9472C37.223 18.7262 36.3641 16.6266 34.9932 14.9071C33.9306 15.2598 32.9231 15.7669 32.0147 16.4116C31.3485 13.6727 29.6968 11.325 27.4561 9.75439C25.2153 11.3195 23.5636 13.6727 22.8975 16.4116C21.9835 15.7669 20.9815 15.2598 19.9189 14.9071C18.5481 16.6266 17.6947 18.7262 17.48 20.9472C19.7813 23.9341 23.393 25.8629 27.4561 25.8629Z" fill="#EF9C81"/>
<path d="M27 27C29.851 27 32.3852 25.6829 34 23.6432C33.8532 22.1266 33.2506 20.6928 32.2886 19.5186C31.543 19.7595 30.8361 20.1057 30.1987 20.546C29.7312 18.6757 28.5723 17.0725 27 16C25.4277 17.0688 24.2688 18.6757 23.8013 20.546C23.16 20.1057 22.457 19.7595 21.7114 19.5186C20.7494 20.6928 20.1507 22.1266 20 23.6432C21.6148 25.6829 24.149 27 27 27Z" fill="#EBC364"/>
<path d="M27.4565 26.6894C23.2667 26.6894 19.3908 24.7826 16.8252 21.454C16.6986 21.2887 16.638 21.0793 16.6545 20.8698C16.8803 18.5001 17.7832 16.2572 19.2697 14.3945C19.4844 14.1244 19.8478 14.0142 20.1781 14.1244C20.9599 14.3834 21.7086 14.7196 22.4134 15.1274C23.2502 12.6916 24.8468 10.5754 26.983 9.0819C27.2693 8.88351 27.6436 8.88351 27.9299 9.0819C30.0661 10.5754 31.6572 12.6916 32.4996 15.1274C33.2043 14.7196 33.953 14.389 34.7348 14.1244C35.0652 14.0142 35.4285 14.1244 35.6432 14.3945C37.1297 16.2627 38.0327 18.5001 38.2584 20.8698C38.2804 21.0793 38.2199 21.2887 38.0877 21.454C35.5221 24.7826 31.6462 26.6894 27.4565 26.6894ZM18.3392 20.7045C20.5855 23.4655 23.8944 25.0416 27.4565 25.0416C31.0186 25.0416 34.3274 23.4655 36.5737 20.7045C36.3535 18.9686 35.7148 17.3263 34.7018 15.899C33.9145 16.2076 33.1712 16.6099 32.4886 17.0948C32.2683 17.2547 31.9765 17.2877 31.7233 17.194C31.47 17.1004 31.2773 16.8799 31.2113 16.6154C30.6497 14.3063 29.3284 12.2617 27.4565 10.7903C25.5846 12.2562 24.2632 14.3063 23.7017 16.6154C23.6356 16.8799 23.4429 17.1004 23.1896 17.194C22.9364 17.2877 22.6446 17.2547 22.4244 17.0948C21.7417 16.6099 20.9984 16.2131 20.2111 15.899C19.1981 17.3263 18.5595 18.9686 18.3392 20.7045Z" fill="#3C4B53"/>
</g>
<defs>
<clipPath id="clip0_515_4628">
<rect width="41" height="46" fill="white"/>
</clipPath>
</defs>
</svg>
