<svg width="14" height="18" viewBox="0 0 14 18" fill="none" xmlns="http://www.w3.org/2000/svg">
<g clip-path="url(#clip0_444_535)">
<path d="M14 6.92071C14 6.90221 13.9968 6.8868 13.9937 6.8683L14 2.86693C14 2.84227 13.9968 2.82069 13.9937 2.79911C13.9588 2.28738 13.6606 1.85888 13.28 1.54136C12.0621 0.545641 9.74037 0.0184963 7 0C5.17626 0 3.52696 0.258948 2.28047 0.70286C1.65564 0.927899 1.12913 1.1961 0.719982 1.53828C0.336203 1.85888 0.0380607 2.28738 0.00634345 2.80219C0.00634345 2.82377 0 2.84535 0 2.86693C0 2.86693 0 6.33499 0 6.91762C0 6.91762 0 6.91762 0 6.92071V15.1115C0 15.6664 0.317173 16.1257 0.719982 16.4617C1.93792 17.4544 4.2628 17.9815 7.00317 18C8.82691 18 10.4762 17.7411 11.7227 17.2971C12.3475 17.0721 12.874 16.8039 13.2832 16.4617C13.686 16.1257 14 15.6664 14.0032 15.1115C14.0032 15.0683 14.0032 15.0344 13.9968 15.0005L14.0032 11.0546V10.9745C14.0032 10.9591 14 10.9406 13.9968 10.9252L14.0032 7.00702C14.0032 7.00702 14.0032 7.00394 14.0032 7.00086C14.0032 7.00086 14.0032 6.99469 14.0032 6.99161V6.92071H14ZM12.7313 15.0899V15.1115C12.7313 15.1855 12.6932 15.3211 12.449 15.5307C11.7354 16.1658 9.53421 16.7854 7 16.7669C5.3063 16.7669 3.77118 16.5172 2.715 16.138C2.18849 15.9531 1.78251 15.728 1.5478 15.5307C1.30675 15.3242 1.26552 15.1855 1.26552 15.1115V12.781C2.56593 13.5331 4.62438 13.9308 6.99683 13.9462C8.82057 13.9462 10.4667 13.6873 11.7164 13.2434C12.0906 13.1077 12.4268 12.9567 12.725 12.784V15.0313V15.093L12.7313 15.0899ZM1.55097 2.46926C1.63344 2.39527 1.73811 2.32129 1.85863 2.25039C2.7816 1.69858 4.76076 1.21767 7 1.23309C8.6937 1.23309 10.2256 1.48279 11.2818 1.86196C11.6212 1.98219 11.9035 2.11783 12.1287 2.25039C12.2524 2.32437 12.3666 2.39836 12.449 2.46926C12.6679 2.6573 12.7218 2.78986 12.7281 2.86693C12.7281 2.87618 12.7281 2.88234 12.7281 2.88851C12.7281 2.96249 12.6869 3.10122 12.4459 3.30776C12.3792 3.36633 12.2968 3.4249 12.208 3.48347C11.7227 3.79483 10.8949 4.08769 9.86407 4.28806C9.01722 4.45145 8.03398 4.55318 6.99366 4.54701C5.95333 4.54701 4.97327 4.45145 4.12959 4.29115C3.59674 4.18942 3.11781 4.06302 2.71183 3.91814C2.33439 3.78558 2.02356 3.63144 1.78885 3.48347C1.69687 3.4249 1.61124 3.36633 1.54463 3.30776C1.30358 3.10122 1.26235 2.96249 1.26235 2.88851C1.26235 2.88234 1.26235 2.87309 1.26235 2.86693C1.26869 2.78986 1.32261 2.6573 1.54146 2.46926H1.55097ZM1.26869 4.61175C1.45582 4.71964 1.66198 4.82137 1.87766 4.91386C2.15995 5.03408 2.4676 5.14198 2.79429 5.24062C3.20979 5.36085 3.65383 5.46258 4.13276 5.54581C5.00498 5.69378 5.97553 5.77085 7.00317 5.77702C8.02764 5.77702 8.99185 5.6907 9.86724 5.54273C10.343 5.4595 10.7934 5.36085 11.2057 5.24062C11.3833 5.18822 11.5578 5.13273 11.7227 5.07416C11.8623 5.02483 11.9955 4.97243 12.1255 4.91694C12.3444 4.82446 12.5442 4.72273 12.7345 4.61483V5.21904V5.9589V6.30416V6.89913V6.97619L12.7377 6.98236C12.7377 6.99777 12.7377 7.00086 12.7377 7.00086C12.7377 7.07484 12.6964 7.21356 12.4554 7.42011C12.411 7.46018 12.3634 7.49717 12.3063 7.53725C11.8591 7.85477 11.0503 8.15688 10.029 8.36958C9.14726 8.55146 8.10693 8.66553 7.00634 8.65628C5.89941 8.65628 4.86543 8.54838 3.98369 8.36958C3.51427 8.27402 3.08609 8.15996 2.72134 8.0274C2.29316 7.87635 1.95378 7.70372 1.71273 7.53725C1.65564 7.49717 1.59855 7.4571 1.55415 7.42011C1.31309 7.21356 1.27186 7.07484 1.27186 7.00086V4.61175H1.26869ZM12.7281 9.27282V10.0127V10.361V10.956V10.9745V11.0331C12.7281 11.0546 12.7281 11.0577 12.7281 11.0577C12.7281 11.1317 12.6869 11.2704 12.4459 11.477C12.4015 11.517 12.3539 11.554 12.3 11.5941C11.4626 12.1891 9.37879 12.7316 6.99683 12.7131C5.30313 12.7131 3.76801 12.4634 2.71183 12.0873C2.28364 11.9363 1.94427 11.7606 1.70322 11.5941C1.64613 11.554 1.59221 11.517 1.5478 11.477C1.30675 11.2704 1.26552 11.1317 1.26552 11.0577V8.72718C1.43362 8.82274 1.61441 8.91523 1.80471 9.00154C2.07748 9.12177 2.37879 9.22966 2.69597 9.32831C3.09243 9.44854 3.51744 9.55027 3.971 9.63042C4.88446 9.79688 5.90575 9.8832 6.99683 9.89245C8.08156 9.89245 9.10285 9.79688 10.0163 9.63042C10.4699 9.54718 10.8981 9.44545 11.2913 9.32831C11.4372 9.28515 11.58 9.23891 11.7164 9.18959C11.8813 9.13102 12.0367 9.06936 12.1889 9.00154C12.3824 8.91831 12.5569 8.82583 12.7281 8.72718V9.27282Z" fill="black"/>
</g>
<defs>
<clipPath id="clip0_444_535">
<rect width="14" height="18" fill="white"/>
</clipPath>
</defs>
</svg>
