<svg width="104" height="28" viewBox="0 0 104 28" fill="none" xmlns="http://www.w3.org/2000/svg">
<rect width="104" height="28" rx="3" fill="#A6D192"/>
<path d="M27.7012 17.488H27.6452C27.5612 17.964 27.2952 18.3653 26.8472 18.692C26.4086 19.0093 25.8206 19.168 25.0832 19.168C24.5046 19.168 23.9679 19.0607 23.4732 18.846C22.9879 18.6313 22.5632 18.314 22.1992 17.894C21.8446 17.4647 21.5646 16.9373 21.3592 16.312C21.1539 15.6867 21.0512 14.9633 21.0512 14.142C21.0512 13.3207 21.1539 12.5973 21.3592 11.972C21.5739 11.3373 21.8726 10.8053 22.2552 10.376C22.6379 9.94667 23.0952 9.62 23.6272 9.396C24.1592 9.172 24.7519 9.06 25.4052 9.06C26.2826 9.06 27.0292 9.25133 27.6452 9.634C28.2612 10.0167 28.7466 10.5673 29.1012 11.286L27.6032 12.168C27.4259 11.748 27.1599 11.398 26.8052 11.118C26.4599 10.838 25.9932 10.698 25.4052 10.698C24.6772 10.698 24.0939 10.922 23.6552 11.37C23.2259 11.8087 23.0112 12.462 23.0112 13.33V14.898C23.0112 15.7567 23.2306 16.41 23.6692 16.858C24.1079 17.306 24.6959 17.53 25.4332 17.53C25.7226 17.53 25.9932 17.4973 26.2452 17.432C26.4972 17.3573 26.7166 17.25 26.9032 17.11C27.0899 16.97 27.2392 16.7973 27.3512 16.592C27.4632 16.3867 27.5192 16.144 27.5192 15.864V15.234H25.6012V13.68H29.2972V19H27.7012V17.488ZM34.28 19.168C33.7387 19.168 33.2534 19.0793 32.824 18.902C32.404 18.7153 32.0447 18.4587 31.746 18.132C31.4567 17.796 31.2327 17.3947 31.074 16.928C30.9154 16.452 30.836 15.92 30.836 15.332C30.836 14.7533 30.9107 14.2307 31.06 13.764C31.2187 13.2973 31.4427 12.9007 31.732 12.574C32.0214 12.238 32.376 11.9813 32.796 11.804C33.216 11.6173 33.692 11.524 34.224 11.524C34.7934 11.524 35.288 11.622 35.708 11.818C36.128 12.014 36.4734 12.28 36.744 12.616C37.0147 12.952 37.2154 13.344 37.346 13.792C37.486 14.2307 37.556 14.702 37.556 15.206V15.794H32.698V15.976C32.698 16.508 32.8474 16.9373 33.146 17.264C33.4447 17.5813 33.888 17.74 34.476 17.74C34.924 17.74 35.288 17.6467 35.568 17.46C35.8574 17.2733 36.114 17.0353 36.338 16.746L37.304 17.824C37.0054 18.244 36.5947 18.5753 36.072 18.818C35.5587 19.0513 34.9614 19.168 34.28 19.168ZM34.252 12.868C33.776 12.868 33.398 13.0267 33.118 13.344C32.838 13.6613 32.698 14.072 32.698 14.576V14.688H35.694V14.562C35.694 14.058 35.568 13.652 35.316 13.344C35.0734 13.0267 34.7187 12.868 34.252 12.868ZM39.1327 19V11.692H40.9247V12.91H40.9947C41.144 12.518 41.3773 12.1913 41.6947 11.93C42.0213 11.6593 42.4693 11.524 43.0387 11.524C43.7947 11.524 44.3733 11.7713 44.7747 12.266C45.176 12.7607 45.3767 13.4653 45.3767 14.38V19H43.5847V14.562C43.5847 14.0393 43.4913 13.6473 43.3047 13.386C43.118 13.1247 42.81 12.994 42.3807 12.994C42.194 12.994 42.012 13.022 41.8347 13.078C41.6667 13.1247 41.5127 13.1993 41.3727 13.302C41.242 13.3953 41.1347 13.5167 41.0507 13.666C40.9667 13.806 40.9247 13.974 40.9247 14.17V19H39.1327ZM50.2611 19.168C49.7385 19.168 49.2671 19.0793 48.8471 18.902C48.4365 18.7247 48.0818 18.468 47.7831 18.132C47.4938 17.796 47.2698 17.3947 47.1111 16.928C46.9525 16.452 46.8731 15.92 46.8731 15.332C46.8731 14.744 46.9525 14.2167 47.1111 13.75C47.2698 13.2833 47.4938 12.8867 47.7831 12.56C48.0818 12.224 48.4365 11.9673 48.8471 11.79C49.2671 11.6127 49.7385 11.524 50.2611 11.524C50.7838 11.524 51.2551 11.6127 51.6751 11.79C52.0951 11.9673 52.4498 12.224 52.7391 12.56C53.0378 12.8867 53.2665 13.2833 53.4251 13.75C53.5838 14.2167 53.6631 14.744 53.6631 15.332C53.6631 15.92 53.5838 16.452 53.4251 16.928C53.2665 17.3947 53.0378 17.796 52.7391 18.132C52.4498 18.468 52.0951 18.7247 51.6751 18.902C51.2551 19.0793 50.7838 19.168 50.2611 19.168ZM50.2611 17.726C50.7371 17.726 51.1105 17.5813 51.3811 17.292C51.6518 17.0027 51.7871 16.578 51.7871 16.018V14.66C51.7871 14.1093 51.6518 13.6893 51.3811 13.4C51.1105 13.1107 50.7371 12.966 50.2611 12.966C49.7945 12.966 49.4258 13.1107 49.1551 13.4C48.8845 13.6893 48.7491 14.1093 48.7491 14.66V16.018C48.7491 16.578 48.8845 17.0027 49.1551 17.292C49.4258 17.5813 49.7945 17.726 50.2611 17.726ZM55.2518 19V11.692H57.0438V12.91H57.1138C57.2538 12.5273 57.4778 12.2007 57.7858 11.93C58.0938 11.6593 58.5232 11.524 59.0738 11.524C59.5778 11.524 60.0118 11.6453 60.3758 11.888C60.7398 12.1307 61.0105 12.4993 61.1878 12.994H61.2158C61.3465 12.5833 61.6032 12.238 61.9858 11.958C62.3778 11.6687 62.8678 11.524 63.4558 11.524C64.1745 11.524 64.7252 11.7713 65.1078 12.266C65.4998 12.7607 65.6958 13.4653 65.6958 14.38V19H63.9038V14.562C63.9038 13.5167 63.5118 12.994 62.7278 12.994C62.5505 12.994 62.3778 13.022 62.2098 13.078C62.0512 13.1247 61.9065 13.1993 61.7758 13.302C61.6545 13.3953 61.5565 13.5167 61.4818 13.666C61.4072 13.806 61.3698 13.974 61.3698 14.17V19H59.5778V14.562C59.5778 13.5167 59.1858 12.994 58.4018 12.994C58.2338 12.994 58.0658 13.022 57.8978 13.078C57.7392 13.1247 57.5945 13.1993 57.4638 13.302C57.3425 13.3953 57.2398 13.5167 57.1558 13.666C57.0812 13.806 57.0438 13.974 57.0438 14.17V19H55.2518ZM68.5756 10.628C68.2022 10.628 67.9316 10.544 67.7636 10.376C67.6049 10.208 67.5256 9.99333 67.5256 9.732V9.452C67.5256 9.19067 67.6049 8.976 67.7636 8.808C67.9316 8.64 68.2022 8.556 68.5756 8.556C68.9396 8.556 69.2056 8.64 69.3736 8.808C69.5416 8.976 69.6256 9.19067 69.6256 9.452V9.732C69.6256 9.99333 69.5416 10.208 69.3736 10.376C69.2056 10.544 68.9396 10.628 68.5756 10.628ZM67.6796 11.692H69.4716V19H67.6796V11.692ZM74.4327 19.168C73.8914 19.168 73.4107 19.0793 72.9907 18.902C72.5707 18.7247 72.216 18.468 71.9267 18.132C71.6467 17.796 71.432 17.3947 71.2827 16.928C71.1334 16.452 71.0587 15.92 71.0587 15.332C71.0587 14.744 71.1334 14.2167 71.2827 13.75C71.432 13.2833 71.6467 12.8867 71.9267 12.56C72.216 12.224 72.5707 11.9673 72.9907 11.79C73.4107 11.6127 73.8914 11.524 74.4327 11.524C75.17 11.524 75.7767 11.6873 76.2527 12.014C76.738 12.3407 77.088 12.7933 77.3027 13.372L75.8327 14.03C75.7487 13.722 75.59 13.47 75.3567 13.274C75.1327 13.0687 74.8247 12.966 74.4327 12.966C73.9287 12.966 73.5507 13.1247 73.2987 13.442C73.056 13.7593 72.9347 14.1747 72.9347 14.688V16.018C72.9347 16.5313 73.056 16.9467 73.2987 17.264C73.5507 17.572 73.9287 17.726 74.4327 17.726C74.862 17.726 75.1934 17.6187 75.4267 17.404C75.66 17.18 75.842 16.9047 75.9727 16.578L77.3447 17.236C77.102 17.88 76.7334 18.3653 76.2387 18.692C75.744 19.0093 75.142 19.168 74.4327 19.168ZM81.1204 19.168C80.4204 19.168 79.8324 19.0513 79.3564 18.818C78.8804 18.5753 78.4604 18.244 78.0964 17.824L79.1884 16.76C79.4591 17.068 79.7531 17.3107 80.0704 17.488C80.3971 17.6653 80.7704 17.754 81.1904 17.754C81.6198 17.754 81.9278 17.6793 82.1144 17.53C82.3104 17.3807 82.4084 17.1753 82.4084 16.914C82.4084 16.6993 82.3384 16.5313 82.1984 16.41C82.0678 16.2793 81.8391 16.1907 81.5124 16.144L80.7844 16.046C79.9911 15.9433 79.3844 15.7193 78.9644 15.374C78.5538 15.0193 78.3484 14.506 78.3484 13.834C78.3484 13.4793 78.4138 13.162 78.5444 12.882C78.6751 12.5927 78.8618 12.35 79.1044 12.154C79.3471 11.9487 79.6364 11.7947 79.9724 11.692C80.3178 11.58 80.7004 11.524 81.1204 11.524C81.4751 11.524 81.7878 11.552 82.0584 11.608C82.3384 11.6547 82.5904 11.7293 82.8144 11.832C83.0384 11.9253 83.2438 12.0467 83.4304 12.196C83.6171 12.336 83.7991 12.4947 83.9764 12.672L82.9264 13.722C82.7118 13.498 82.4551 13.3113 82.1564 13.162C81.8578 13.0127 81.5311 12.938 81.1764 12.938C80.7844 12.938 80.4998 13.008 80.3224 13.148C80.1544 13.288 80.0704 13.47 80.0704 13.694C80.0704 13.9367 80.1404 14.1233 80.2804 14.254C80.4298 14.3753 80.6771 14.464 81.0224 14.52L81.7644 14.618C83.3418 14.842 84.1304 15.5607 84.1304 16.774C84.1304 17.1287 84.0558 17.4553 83.9064 17.754C83.7664 18.0433 83.5658 18.2953 83.3044 18.51C83.0431 18.7153 82.7258 18.8787 82.3524 19C81.9884 19.112 81.5778 19.168 81.1204 19.168Z" fill="black"/>
</svg>
