<svg width="104" height="28" viewBox="0 0 104 28" fill="none" xmlns="http://www.w3.org/2000/svg">
<rect width="104" height="28" rx="3" fill="#EB9BFF"/>
<path d="M26.984 19.168C26.34 19.168 25.7567 19.0607 25.234 18.846C24.7113 18.6313 24.2633 18.3093 23.89 17.88C23.526 17.4507 23.2413 16.9233 23.036 16.298C22.8307 15.6727 22.728 14.9447 22.728 14.114C22.728 13.2927 22.8307 12.5693 23.036 11.944C23.2413 11.3093 23.526 10.7773 23.89 10.348C24.2633 9.91867 24.7113 9.59667 25.234 9.382C25.7567 9.16733 26.34 9.06 26.984 9.06C27.628 9.06 28.2113 9.16733 28.734 9.382C29.2567 9.59667 29.7047 9.91867 30.078 10.348C30.4513 10.7773 30.736 11.3093 30.932 11.944C31.1373 12.5693 31.24 13.2927 31.24 14.114C31.24 14.9447 31.1373 15.6727 30.932 16.298C30.736 16.9233 30.4513 17.4507 30.078 17.88C29.7047 18.3093 29.2567 18.6313 28.734 18.846C28.2113 19.0607 27.628 19.168 26.984 19.168ZM26.984 17.53C27.684 17.53 28.2393 17.2967 28.65 16.83C29.07 16.3633 29.28 15.71 29.28 14.87V13.358C29.28 12.518 29.07 11.8647 28.65 11.398C28.2393 10.9313 27.684 10.698 26.984 10.698C26.284 10.698 25.724 10.9313 25.304 11.398C24.8933 11.8647 24.688 12.518 24.688 13.358V14.87C24.688 15.71 24.8933 16.3633 25.304 16.83C25.724 17.2967 26.284 17.53 26.984 17.53ZM37.3708 17.782H37.3008C37.2355 17.9687 37.1468 18.146 37.0348 18.314C36.9321 18.4727 36.7968 18.6173 36.6288 18.748C36.4701 18.8787 36.2741 18.9813 36.0408 19.056C35.8168 19.1307 35.5555 19.168 35.2568 19.168C34.5008 19.168 33.9221 18.9207 33.5208 18.426C33.1195 17.9313 32.9188 17.2267 32.9188 16.312V11.692H34.7108V16.13C34.7108 16.634 34.8088 17.0213 35.0048 17.292C35.2008 17.5533 35.5135 17.684 35.9428 17.684C36.1201 17.684 36.2928 17.6607 36.4608 17.614C36.6381 17.5673 36.7921 17.4973 36.9228 17.404C37.0535 17.3013 37.1608 17.18 37.2448 17.04C37.3288 16.8907 37.3708 16.718 37.3708 16.522V11.692H39.1628V19H37.3708V17.782ZM43.5153 19C42.8993 19 42.4279 18.8413 42.1013 18.524C41.7839 18.1973 41.6253 17.7353 41.6253 17.138V13.12H40.5473V11.692H41.1073C41.3779 11.692 41.5599 11.6313 41.6533 11.51C41.7559 11.3793 41.8073 11.188 41.8073 10.936V9.69H43.4173V11.692H44.9153V13.12H43.4173V17.572H44.8033V19H43.5153ZM49.2989 19.168C48.7576 19.168 48.2769 19.0793 47.8569 18.902C47.4369 18.7247 47.0822 18.468 46.7929 18.132C46.5129 17.796 46.2982 17.3947 46.1489 16.928C45.9996 16.452 45.9249 15.92 45.9249 15.332C45.9249 14.744 45.9996 14.2167 46.1489 13.75C46.2982 13.2833 46.5129 12.8867 46.7929 12.56C47.0822 12.224 47.4369 11.9673 47.8569 11.79C48.2769 11.6127 48.7576 11.524 49.2989 11.524C50.0362 11.524 50.6429 11.6873 51.1189 12.014C51.6042 12.3407 51.9542 12.7933 52.1689 13.372L50.6989 14.03C50.6149 13.722 50.4562 13.47 50.2229 13.274C49.9989 13.0687 49.6909 12.966 49.2989 12.966C48.7949 12.966 48.4169 13.1247 48.1649 13.442C47.9222 13.7593 47.8009 14.1747 47.8009 14.688V16.018C47.8009 16.5313 47.9222 16.9467 48.1649 17.264C48.4169 17.572 48.7949 17.726 49.2989 17.726C49.7282 17.726 50.0596 17.6187 50.2929 17.404C50.5262 17.18 50.7082 16.9047 50.8389 16.578L52.2109 17.236C51.9682 17.88 51.5996 18.3653 51.1049 18.692C50.6102 19.0093 50.0082 19.168 49.2989 19.168ZM56.4223 19.168C55.8996 19.168 55.4283 19.0793 55.0083 18.902C54.5976 18.7247 54.2429 18.468 53.9443 18.132C53.6549 17.796 53.4309 17.3947 53.2723 16.928C53.1136 16.452 53.0343 15.92 53.0343 15.332C53.0343 14.744 53.1136 14.2167 53.2723 13.75C53.4309 13.2833 53.6549 12.8867 53.9443 12.56C54.2429 12.224 54.5976 11.9673 55.0083 11.79C55.4283 11.6127 55.8996 11.524 56.4223 11.524C56.9449 11.524 57.4163 11.6127 57.8363 11.79C58.2563 11.9673 58.6109 12.224 58.9003 12.56C59.1989 12.8867 59.4276 13.2833 59.5863 13.75C59.7449 14.2167 59.8243 14.744 59.8243 15.332C59.8243 15.92 59.7449 16.452 59.5863 16.928C59.4276 17.3947 59.1989 17.796 58.9003 18.132C58.6109 18.468 58.2563 18.7247 57.8363 18.902C57.4163 19.0793 56.9449 19.168 56.4223 19.168ZM56.4223 17.726C56.8983 17.726 57.2716 17.5813 57.5423 17.292C57.8129 17.0027 57.9483 16.578 57.9483 16.018V14.66C57.9483 14.1093 57.8129 13.6893 57.5423 13.4C57.2716 13.1107 56.8983 12.966 56.4223 12.966C55.9556 12.966 55.5869 13.1107 55.3163 13.4C55.0456 13.6893 54.9103 14.1093 54.9103 14.66V16.018C54.9103 16.578 55.0456 17.0027 55.3163 17.292C55.5869 17.5813 55.9556 17.726 56.4223 17.726ZM61.413 19V11.692H63.205V12.91H63.275C63.415 12.5273 63.639 12.2007 63.947 11.93C64.255 11.6593 64.6843 11.524 65.235 11.524C65.739 11.524 66.173 11.6453 66.537 11.888C66.901 12.1307 67.1716 12.4993 67.349 12.994H67.377C67.5076 12.5833 67.7643 12.238 68.147 11.958C68.539 11.6687 69.029 11.524 69.617 11.524C70.3356 11.524 70.8863 11.7713 71.269 12.266C71.661 12.7607 71.857 13.4653 71.857 14.38V19H70.065V14.562C70.065 13.5167 69.673 12.994 68.889 12.994C68.7116 12.994 68.539 13.022 68.371 13.078C68.2123 13.1247 68.0676 13.1993 67.937 13.302C67.8156 13.3953 67.7176 13.5167 67.643 13.666C67.5683 13.806 67.531 13.974 67.531 14.17V19H65.739V14.562C65.739 13.5167 65.347 12.994 64.563 12.994C64.395 12.994 64.227 13.022 64.059 13.078C63.9003 13.1247 63.7556 13.1993 63.625 13.302C63.5036 13.3953 63.401 13.5167 63.317 13.666C63.2423 13.806 63.205 13.974 63.205 14.17V19H61.413ZM76.7947 19.168C76.2534 19.168 75.768 19.0793 75.3387 18.902C74.9187 18.7153 74.5594 18.4587 74.2607 18.132C73.9714 17.796 73.7474 17.3947 73.5887 16.928C73.43 16.452 73.3507 15.92 73.3507 15.332C73.3507 14.7533 73.4254 14.2307 73.5747 13.764C73.7334 13.2973 73.9574 12.9007 74.2467 12.574C74.536 12.238 74.8907 11.9813 75.3107 11.804C75.7307 11.6173 76.2067 11.524 76.7387 11.524C77.308 11.524 77.8027 11.622 78.2227 11.818C78.6427 12.014 78.988 12.28 79.2587 12.616C79.5294 12.952 79.73 13.344 79.8607 13.792C80.0007 14.2307 80.0707 14.702 80.0707 15.206V15.794H75.2127V15.976C75.2127 16.508 75.362 16.9373 75.6607 17.264C75.9594 17.5813 76.4027 17.74 76.9907 17.74C77.4387 17.74 77.8027 17.6467 78.0827 17.46C78.372 17.2733 78.6287 17.0353 78.8527 16.746L79.8187 17.824C79.52 18.244 79.1094 18.5753 78.5867 18.818C78.0734 19.0513 77.476 19.168 76.7947 19.168ZM76.7667 12.868C76.2907 12.868 75.9127 13.0267 75.6327 13.344C75.3527 13.6613 75.2127 14.072 75.2127 14.576V14.688H78.2087V14.562C78.2087 14.058 78.0827 13.652 77.8307 13.344C77.588 13.0267 77.2334 12.868 76.7667 12.868Z" fill="black"/>
</svg>
