<svg width="104" height="28" viewBox="0 0 104 28" fill="none" xmlns="http://www.w3.org/2000/svg">
<rect width="104" height="28" rx="3" fill="#EDE50A"/>
<path d="M21.984 10.866V19H20.136V10.866H17.364V9.228H24.756V10.866H21.984ZM25.5282 19V11.692H27.3202V13.204H27.3902C27.4369 13.008 27.5069 12.8213 27.6002 12.644C27.7029 12.4573 27.8335 12.294 27.9922 12.154C28.1509 12.014 28.3375 11.902 28.5522 11.818C28.7762 11.734 29.0329 11.692 29.3222 11.692H29.7142V13.386H29.1542C28.5475 13.386 28.0902 13.4747 27.7822 13.652C27.4742 13.8293 27.3202 14.1187 27.3202 14.52V19H25.5282ZM33.9099 19.168C33.3686 19.168 32.8833 19.0793 32.4539 18.902C32.0339 18.7153 31.6746 18.4587 31.3759 18.132C31.0866 17.796 30.8626 17.3947 30.7039 16.928C30.5453 16.452 30.4659 15.92 30.4659 15.332C30.4659 14.7533 30.5406 14.2307 30.6899 13.764C30.8486 13.2973 31.0726 12.9007 31.3619 12.574C31.6513 12.238 32.0059 11.9813 32.4259 11.804C32.8459 11.6173 33.3219 11.524 33.8539 11.524C34.4233 11.524 34.9179 11.622 35.3379 11.818C35.7579 12.014 36.1033 12.28 36.3739 12.616C36.6446 12.952 36.8453 13.344 36.9759 13.792C37.1159 14.2307 37.1859 14.702 37.1859 15.206V15.794H32.3279V15.976C32.3279 16.508 32.4773 16.9373 32.7759 17.264C33.0746 17.5813 33.5179 17.74 34.1059 17.74C34.5539 17.74 34.9179 17.6467 35.1979 17.46C35.4873 17.2733 35.7439 17.0353 35.9679 16.746L36.9339 17.824C36.6353 18.244 36.2246 18.5753 35.7019 18.818C35.1886 19.0513 34.5913 19.168 33.9099 19.168ZM33.8819 12.868C33.4059 12.868 33.0279 13.0267 32.7479 13.344C32.4679 13.6613 32.3279 14.072 32.3279 14.576V14.688H35.3239V14.562C35.3239 14.058 35.1979 13.652 34.9459 13.344C34.7033 13.0267 34.3486 12.868 33.8819 12.868ZM44.1386 19C43.7466 19 43.4339 18.888 43.2006 18.664C42.9766 18.4307 42.8366 18.1227 42.7806 17.74H42.6966C42.5752 18.216 42.3279 18.5753 41.9546 18.818C41.5812 19.0513 41.1192 19.168 40.5686 19.168C39.8219 19.168 39.2479 18.972 38.8466 18.58C38.4452 18.188 38.2446 17.6653 38.2446 17.012C38.2446 16.256 38.5152 15.696 39.0566 15.332C39.5979 14.9587 40.3679 14.772 41.3666 14.772H42.6126V14.24C42.6126 13.8293 42.5052 13.512 42.2906 13.288C42.0759 13.064 41.7306 12.952 41.2546 12.952C40.8346 12.952 40.4939 13.0453 40.2326 13.232C39.9806 13.4093 39.7659 13.624 39.5886 13.876L38.5246 12.924C38.7952 12.504 39.1546 12.168 39.6026 11.916C40.0506 11.6547 40.6432 11.524 41.3806 11.524C42.3699 11.524 43.1212 11.748 43.6346 12.196C44.1479 12.644 44.4046 13.288 44.4046 14.128V17.572H45.1326V19H44.1386ZM41.1706 17.866C41.5719 17.866 41.9126 17.7773 42.1926 17.6C42.4726 17.4227 42.6126 17.1613 42.6126 16.816V15.85H41.4646C40.5312 15.85 40.0646 16.1487 40.0646 16.746V16.984C40.0646 17.2827 40.1579 17.5067 40.3446 17.656C40.5406 17.796 40.8159 17.866 41.1706 17.866ZM48.8102 19C48.1942 19 47.7229 18.8413 47.3962 18.524C47.0789 18.1973 46.9202 17.7353 46.9202 17.138V13.12H45.8422V11.692H46.4022C46.6729 11.692 46.8549 11.6313 46.9482 11.51C47.0509 11.3793 47.1022 11.188 47.1022 10.936V9.69H48.7122V11.692H50.2102V13.12H48.7122V17.572H50.0982V19H48.8102ZM51.7645 19V11.692H53.5565V12.91H53.6265C53.7665 12.5273 53.9905 12.2007 54.2985 11.93C54.6065 11.6593 55.0358 11.524 55.5865 11.524C56.0905 11.524 56.5245 11.6453 56.8885 11.888C57.2525 12.1307 57.5232 12.4993 57.7005 12.994H57.7285C57.8592 12.5833 58.1158 12.238 58.4985 11.958C58.8905 11.6687 59.3805 11.524 59.9685 11.524C60.6872 11.524 61.2378 11.7713 61.6205 12.266C62.0125 12.7607 62.2085 13.4653 62.2085 14.38V19H60.4165V14.562C60.4165 13.5167 60.0245 12.994 59.2405 12.994C59.0632 12.994 58.8905 13.022 58.7225 13.078C58.5638 13.1247 58.4192 13.1993 58.2885 13.302C58.1672 13.3953 58.0692 13.5167 57.9945 13.666C57.9198 13.806 57.8825 13.974 57.8825 14.17V19H56.0905V14.562C56.0905 13.5167 55.6985 12.994 54.9145 12.994C54.7465 12.994 54.5785 13.022 54.4105 13.078C54.2518 13.1247 54.1072 13.1993 53.9765 13.302C53.8552 13.3953 53.7525 13.5167 53.6685 13.666C53.5938 13.806 53.5565 13.974 53.5565 14.17V19H51.7645ZM67.1463 19.168C66.6049 19.168 66.1196 19.0793 65.6903 18.902C65.2703 18.7153 64.9109 18.4587 64.6123 18.132C64.3229 17.796 64.0989 17.3947 63.9403 16.928C63.7816 16.452 63.7023 15.92 63.7023 15.332C63.7023 14.7533 63.7769 14.2307 63.9263 13.764C64.0849 13.2973 64.3089 12.9007 64.5983 12.574C64.8876 12.238 65.2423 11.9813 65.6623 11.804C66.0823 11.6173 66.5583 11.524 67.0903 11.524C67.6596 11.524 68.1543 11.622 68.5743 11.818C68.9943 12.014 69.3396 12.28 69.6103 12.616C69.8809 12.952 70.0816 13.344 70.2123 13.792C70.3523 14.2307 70.4223 14.702 70.4223 15.206V15.794H65.5643V15.976C65.5643 16.508 65.7136 16.9373 66.0123 17.264C66.3109 17.5813 66.7543 17.74 67.3423 17.74C67.7903 17.74 68.1543 17.6467 68.4343 17.46C68.7236 17.2733 68.9803 17.0353 69.2043 16.746L70.1703 17.824C69.8716 18.244 69.4609 18.5753 68.9383 18.818C68.4249 19.0513 67.8276 19.168 67.1463 19.168ZM67.1183 12.868C66.6423 12.868 66.2643 13.0267 65.9843 13.344C65.7043 13.6613 65.5643 14.072 65.5643 14.576V14.688H68.5603V14.562C68.5603 14.058 68.4343 13.652 68.1823 13.344C67.9396 13.0267 67.5849 12.868 67.1183 12.868ZM71.9989 19V11.692H73.7909V12.91H73.8609C74.0102 12.518 74.2436 12.1913 74.5609 11.93C74.8876 11.6593 75.3356 11.524 75.9049 11.524C76.6609 11.524 77.2396 11.7713 77.6409 12.266C78.0422 12.7607 78.2429 13.4653 78.2429 14.38V19H76.4509V14.562C76.4509 14.0393 76.3576 13.6473 76.1709 13.386C75.9842 13.1247 75.6762 12.994 75.2469 12.994C75.0602 12.994 74.8782 13.022 74.7009 13.078C74.5329 13.1247 74.3789 13.1993 74.2389 13.302C74.1082 13.3953 74.0009 13.5167 73.9169 13.666C73.8329 13.806 73.7909 13.974 73.7909 14.17V19H71.9989ZM82.5114 19C81.8954 19 81.424 18.8413 81.0974 18.524C80.78 18.1973 80.6214 17.7353 80.6214 17.138V13.12H79.5434V11.692H80.1034C80.374 11.692 80.556 11.6313 80.6494 11.51C80.752 11.3793 80.8034 11.188 80.8034 10.936V9.69H82.4134V11.692H83.9114V13.12H82.4134V17.572H83.7994V19H82.5114Z" fill="black"/>
</svg>
