<svg width="104" height="28" viewBox="0 0 104 28" fill="none" xmlns="http://www.w3.org/2000/svg">
<rect width="104" height="28" rx="3" fill="#F6B26A"/>
<path d="M27.148 9.228H30.704C31.3387 9.228 31.9127 9.33067 32.426 9.536C32.9487 9.74133 33.392 10.0493 33.756 10.46C34.1293 10.8613 34.414 11.37 34.61 11.986C34.8153 12.5927 34.918 13.302 34.918 14.114C34.918 14.926 34.8153 15.64 34.61 16.256C34.414 16.8627 34.1293 17.3713 33.756 17.782C33.392 18.1833 32.9487 18.4867 32.426 18.692C31.9127 18.8973 31.3387 19 30.704 19H27.148V9.228ZM30.704 17.362C31.3947 17.362 31.9407 17.1613 32.342 16.76C32.7527 16.3493 32.958 15.724 32.958 14.884V13.344C32.958 12.504 32.7527 11.8833 32.342 11.482C31.9407 11.0713 31.3947 10.866 30.704 10.866H28.996V17.362H30.704ZM37.5843 10.628C37.211 10.628 36.9403 10.544 36.7723 10.376C36.6137 10.208 36.5343 9.99333 36.5343 9.732V9.452C36.5343 9.19067 36.6137 8.976 36.7723 8.808C36.9403 8.64 37.211 8.556 37.5843 8.556C37.9483 8.556 38.2143 8.64 38.3823 8.808C38.5503 8.976 38.6343 9.19067 38.6343 9.452V9.732C38.6343 9.99333 38.5503 10.208 38.3823 10.376C38.2143 10.544 37.9483 10.628 37.5843 10.628ZM36.6883 11.692H38.4803V19H36.6883V11.692ZM42.9515 19.168C42.2515 19.168 41.6635 19.0513 41.1875 18.818C40.7115 18.5753 40.2915 18.244 39.9275 17.824L41.0195 16.76C41.2902 17.068 41.5842 17.3107 41.9015 17.488C42.2282 17.6653 42.6015 17.754 43.0215 17.754C43.4508 17.754 43.7588 17.6793 43.9455 17.53C44.1415 17.3807 44.2395 17.1753 44.2395 16.914C44.2395 16.6993 44.1695 16.5313 44.0295 16.41C43.8988 16.2793 43.6702 16.1907 43.3435 16.144L42.6155 16.046C41.8222 15.9433 41.2155 15.7193 40.7955 15.374C40.3848 15.0193 40.1795 14.506 40.1795 13.834C40.1795 13.4793 40.2448 13.162 40.3755 12.882C40.5062 12.5927 40.6928 12.35 40.9355 12.154C41.1782 11.9487 41.4675 11.7947 41.8035 11.692C42.1488 11.58 42.5315 11.524 42.9515 11.524C43.3062 11.524 43.6188 11.552 43.8895 11.608C44.1695 11.6547 44.4215 11.7293 44.6455 11.832C44.8695 11.9253 45.0748 12.0467 45.2615 12.196C45.4482 12.336 45.6302 12.4947 45.8075 12.672L44.7575 13.722C44.5428 13.498 44.2862 13.3113 43.9875 13.162C43.6888 13.0127 43.3622 12.938 43.0075 12.938C42.6155 12.938 42.3308 13.008 42.1535 13.148C41.9855 13.288 41.9015 13.47 41.9015 13.694C41.9015 13.9367 41.9715 14.1233 42.1115 14.254C42.2608 14.3753 42.5082 14.464 42.8535 14.52L43.5955 14.618C45.1728 14.842 45.9615 15.5607 45.9615 16.774C45.9615 17.1287 45.8868 17.4553 45.7375 17.754C45.5975 18.0433 45.3968 18.2953 45.1355 18.51C44.8742 18.7153 44.5568 18.8787 44.1835 19C43.8195 19.112 43.4088 19.168 42.9515 19.168ZM50.4978 19.168C49.9565 19.168 49.4711 19.0793 49.0418 18.902C48.6218 18.7153 48.2625 18.4587 47.9638 18.132C47.6745 17.796 47.4505 17.3947 47.2918 16.928C47.1331 16.452 47.0538 15.92 47.0538 15.332C47.0538 14.7533 47.1285 14.2307 47.2778 13.764C47.4365 13.2973 47.6605 12.9007 47.9498 12.574C48.2391 12.238 48.5938 11.9813 49.0138 11.804C49.4338 11.6173 49.9098 11.524 50.4418 11.524C51.0111 11.524 51.5058 11.622 51.9258 11.818C52.3458 12.014 52.6911 12.28 52.9618 12.616C53.2325 12.952 53.4331 13.344 53.5638 13.792C53.7038 14.2307 53.7738 14.702 53.7738 15.206V15.794H48.9158V15.976C48.9158 16.508 49.0651 16.9373 49.3638 17.264C49.6625 17.5813 50.1058 17.74 50.6938 17.74C51.1418 17.74 51.5058 17.6467 51.7858 17.46C52.0751 17.2733 52.3318 17.0353 52.5558 16.746L53.5218 17.824C53.2231 18.244 52.8125 18.5753 52.2898 18.818C51.7765 19.0513 51.1791 19.168 50.4978 19.168ZM50.4698 12.868C49.9938 12.868 49.6158 13.0267 49.3358 13.344C49.0558 13.6613 48.9158 14.072 48.9158 14.576V14.688H51.9118V14.562C51.9118 14.058 51.7858 13.652 51.5338 13.344C51.2911 13.0267 50.9365 12.868 50.4698 12.868ZM60.7265 19C60.3345 19 60.0218 18.888 59.7885 18.664C59.5645 18.4307 59.4245 18.1227 59.3685 17.74H59.2845C59.1631 18.216 58.9158 18.5753 58.5425 18.818C58.1691 19.0513 57.7071 19.168 57.1565 19.168C56.4098 19.168 55.8358 18.972 55.4345 18.58C55.0331 18.188 54.8325 17.6653 54.8325 17.012C54.8325 16.256 55.1031 15.696 55.6445 15.332C56.1858 14.9587 56.9558 14.772 57.9545 14.772H59.2005V14.24C59.2005 13.8293 59.0931 13.512 58.8785 13.288C58.6638 13.064 58.3185 12.952 57.8425 12.952C57.4225 12.952 57.0818 13.0453 56.8205 13.232C56.5685 13.4093 56.3538 13.624 56.1765 13.876L55.1125 12.924C55.3831 12.504 55.7425 12.168 56.1905 11.916C56.6385 11.6547 57.2311 11.524 57.9685 11.524C58.9578 11.524 59.7091 11.748 60.2225 12.196C60.7358 12.644 60.9925 13.288 60.9925 14.128V17.572H61.7205V19H60.7265ZM57.7585 17.866C58.1598 17.866 58.5005 17.7773 58.7805 17.6C59.0605 17.4227 59.2005 17.1613 59.2005 16.816V15.85H58.0525C57.1191 15.85 56.6525 16.1487 56.6525 16.746V16.984C56.6525 17.2827 56.7458 17.5067 56.9325 17.656C57.1285 17.796 57.4038 17.866 57.7585 17.866ZM65.5648 19.168C64.8648 19.168 64.2768 19.0513 63.8008 18.818C63.3248 18.5753 62.9048 18.244 62.5408 17.824L63.6328 16.76C63.9034 17.068 64.1974 17.3107 64.5148 17.488C64.8414 17.6653 65.2148 17.754 65.6348 17.754C66.0641 17.754 66.3721 17.6793 66.5588 17.53C66.7548 17.3807 66.8528 17.1753 66.8528 16.914C66.8528 16.6993 66.7828 16.5313 66.6428 16.41C66.5121 16.2793 66.2834 16.1907 65.9568 16.144L65.2288 16.046C64.4354 15.9433 63.8288 15.7193 63.4088 15.374C62.9981 15.0193 62.7928 14.506 62.7928 13.834C62.7928 13.4793 62.8581 13.162 62.9888 12.882C63.1194 12.5927 63.3061 12.35 63.5488 12.154C63.7914 11.9487 64.0808 11.7947 64.4168 11.692C64.7621 11.58 65.1448 11.524 65.5648 11.524C65.9194 11.524 66.2321 11.552 66.5028 11.608C66.7828 11.6547 67.0348 11.7293 67.2588 11.832C67.4828 11.9253 67.6881 12.0467 67.8748 12.196C68.0614 12.336 68.2434 12.4947 68.4208 12.672L67.3708 13.722C67.1561 13.498 66.8994 13.3113 66.6008 13.162C66.3021 13.0127 65.9754 12.938 65.6208 12.938C65.2288 12.938 64.9441 13.008 64.7668 13.148C64.5988 13.288 64.5148 13.47 64.5148 13.694C64.5148 13.9367 64.5848 14.1233 64.7248 14.254C64.8741 14.3753 65.1214 14.464 65.4668 14.52L66.2088 14.618C67.7861 14.842 68.5748 15.5607 68.5748 16.774C68.5748 17.1287 68.5001 17.4553 68.3508 17.754C68.2108 18.0433 68.0101 18.2953 67.7488 18.51C67.4874 18.7153 67.1701 18.8787 66.7968 19C66.4328 19.112 66.0221 19.168 65.5648 19.168ZM73.1111 19.168C72.5698 19.168 72.0844 19.0793 71.6551 18.902C71.2351 18.7153 70.8758 18.4587 70.5771 18.132C70.2878 17.796 70.0638 17.3947 69.9051 16.928C69.7464 16.452 69.6671 15.92 69.6671 15.332C69.6671 14.7533 69.7418 14.2307 69.8911 13.764C70.0498 13.2973 70.2738 12.9007 70.5631 12.574C70.8524 12.238 71.2071 11.9813 71.6271 11.804C72.0471 11.6173 72.5231 11.524 73.0551 11.524C73.6244 11.524 74.1191 11.622 74.5391 11.818C74.9591 12.014 75.3044 12.28 75.5751 12.616C75.8458 12.952 76.0464 13.344 76.1771 13.792C76.3171 14.2307 76.3871 14.702 76.3871 15.206V15.794H71.5291V15.976C71.5291 16.508 71.6784 16.9373 71.9771 17.264C72.2758 17.5813 72.7191 17.74 73.3071 17.74C73.7551 17.74 74.1191 17.6467 74.3991 17.46C74.6884 17.2733 74.9451 17.0353 75.1691 16.746L76.1351 17.824C75.8364 18.244 75.4258 18.5753 74.9031 18.818C74.3898 19.0513 73.7924 19.168 73.1111 19.168ZM73.0831 12.868C72.6071 12.868 72.2291 13.0267 71.9491 13.344C71.6691 13.6613 71.5291 14.072 71.5291 14.576V14.688H74.5251V14.562C74.5251 14.058 74.3991 13.652 74.1471 13.344C73.9044 13.0267 73.5498 12.868 73.0831 12.868Z" fill="black"/>
</svg>
