<svg width="104" height="28" viewBox="0 0 104 28" fill="none" xmlns="http://www.w3.org/2000/svg">
<rect width="104" height="28" rx="3" fill="#83DBD8"/>
<path d="M31.148 19V9.228H35.544C35.992 9.228 36.3933 9.30267 36.748 9.452C37.112 9.592 37.42 9.79733 37.672 10.068C37.924 10.3293 38.1153 10.6467 38.246 11.02C38.3767 11.3933 38.442 11.804 38.442 12.252C38.442 12.7093 38.3767 13.1247 38.246 13.498C38.1153 13.862 37.924 14.1793 37.672 14.45C37.42 14.7113 37.112 14.9167 36.748 15.066C36.3933 15.206 35.992 15.276 35.544 15.276H32.996V19H31.148ZM32.996 13.68H35.376C35.7307 13.68 36.0107 13.5867 36.216 13.4C36.4213 13.204 36.524 12.9287 36.524 12.574V11.93C36.524 11.5753 36.4213 11.3047 36.216 11.118C36.0107 10.9313 35.7307 10.838 35.376 10.838H32.996V13.68ZM45.1893 19C44.7973 19 44.4847 18.888 44.2513 18.664C44.0273 18.4307 43.8873 18.1227 43.8313 17.74H43.7473C43.626 18.216 43.3787 18.5753 43.0053 18.818C42.632 19.0513 42.17 19.168 41.6193 19.168C40.8727 19.168 40.2987 18.972 39.8973 18.58C39.496 18.188 39.2953 17.6653 39.2953 17.012C39.2953 16.256 39.566 15.696 40.1073 15.332C40.6487 14.9587 41.4187 14.772 42.4173 14.772H43.6633V14.24C43.6633 13.8293 43.556 13.512 43.3413 13.288C43.1267 13.064 42.7813 12.952 42.3053 12.952C41.8853 12.952 41.5447 13.0453 41.2833 13.232C41.0313 13.4093 40.8167 13.624 40.6393 13.876L39.5753 12.924C39.846 12.504 40.2053 12.168 40.6533 11.916C41.1013 11.6547 41.694 11.524 42.4313 11.524C43.4207 11.524 44.172 11.748 44.6853 12.196C45.1987 12.644 45.4553 13.288 45.4553 14.128V17.572H46.1833V19H45.1893ZM42.2213 17.866C42.6227 17.866 42.9633 17.7773 43.2433 17.6C43.5233 17.4227 43.6633 17.1613 43.6633 16.816V15.85H42.5153C41.582 15.85 41.1153 16.1487 41.1153 16.746V16.984C41.1153 17.2827 41.2087 17.5067 41.3953 17.656C41.5913 17.796 41.8667 17.866 42.2213 17.866ZM49.861 19C49.245 19 48.7736 18.8413 48.447 18.524C48.1296 18.1973 47.971 17.7353 47.971 17.138V13.12H46.893V11.692H47.453C47.7236 11.692 47.9056 11.6313 47.999 11.51C48.1016 11.3793 48.153 11.188 48.153 10.936V9.69H49.763V11.692H51.261V13.12H49.763V17.572H51.149V19H49.861ZM53.7113 10.628C53.338 10.628 53.0673 10.544 52.8993 10.376C52.7406 10.208 52.6613 9.99333 52.6613 9.732V9.452C52.6613 9.19067 52.7406 8.976 52.8993 8.808C53.0673 8.64 53.338 8.556 53.7113 8.556C54.0753 8.556 54.3413 8.64 54.5093 8.808C54.6773 8.976 54.7613 9.19067 54.7613 9.452V9.732C54.7613 9.99333 54.6773 10.208 54.5093 10.376C54.3413 10.544 54.0753 10.628 53.7113 10.628ZM52.8153 11.692H54.6073V19H52.8153V11.692ZM59.6384 19.168C59.0971 19.168 58.6118 19.0793 58.1824 18.902C57.7624 18.7153 57.4031 18.4587 57.1044 18.132C56.8151 17.796 56.5911 17.3947 56.4324 16.928C56.2738 16.452 56.1944 15.92 56.1944 15.332C56.1944 14.7533 56.2691 14.2307 56.4184 13.764C56.5771 13.2973 56.8011 12.9007 57.0904 12.574C57.3798 12.238 57.7344 11.9813 58.1544 11.804C58.5744 11.6173 59.0504 11.524 59.5824 11.524C60.1518 11.524 60.6464 11.622 61.0664 11.818C61.4864 12.014 61.8318 12.28 62.1024 12.616C62.3731 12.952 62.5738 13.344 62.7044 13.792C62.8444 14.2307 62.9144 14.702 62.9144 15.206V15.794H58.0564V15.976C58.0564 16.508 58.2058 16.9373 58.5044 17.264C58.8031 17.5813 59.2464 17.74 59.8344 17.74C60.2824 17.74 60.6464 17.6467 60.9264 17.46C61.2158 17.2733 61.4724 17.0353 61.6964 16.746L62.6624 17.824C62.3638 18.244 61.9531 18.5753 61.4304 18.818C60.9171 19.0513 60.3198 19.168 59.6384 19.168ZM59.6104 12.868C59.1344 12.868 58.7564 13.0267 58.4764 13.344C58.1964 13.6613 58.0564 14.072 58.0564 14.576V14.688H61.0524V14.562C61.0524 14.058 60.9264 13.652 60.6744 13.344C60.4318 13.0267 60.0771 12.868 59.6104 12.868ZM64.4911 19V11.692H66.2831V12.91H66.3531C66.5024 12.518 66.7357 12.1913 67.0531 11.93C67.3797 11.6593 67.8277 11.524 68.3971 11.524C69.1531 11.524 69.7317 11.7713 70.1331 12.266C70.5344 12.7607 70.7351 13.4653 70.7351 14.38V19H68.9431V14.562C68.9431 14.0393 68.8497 13.6473 68.6631 13.386C68.4764 13.1247 68.1684 12.994 67.7391 12.994C67.5524 12.994 67.3704 13.022 67.1931 13.078C67.0251 13.1247 66.8711 13.1993 66.7311 13.302C66.6004 13.3953 66.4931 13.5167 66.4091 13.666C66.3251 13.806 66.2831 13.974 66.2831 14.17V19H64.4911ZM75.0035 19C74.3875 19 73.9162 18.8413 73.5895 18.524C73.2722 18.1973 73.1135 17.7353 73.1135 17.138V13.12H72.0355V11.692H72.5955C72.8662 11.692 73.0482 11.6313 73.1415 11.51C73.2442 11.3793 73.2955 11.188 73.2955 10.936V9.69H74.9055V11.692H76.4035V13.12H74.9055V17.572H76.2915V19H75.0035Z" fill="black"/>
</svg>
