<svg width="191" height="191" viewBox="0 0 191 191" fill="none" xmlns="http://www.w3.org/2000/svg">
<circle cx="95.5" cy="95.5" r="95.5" fill="#EDF4F6"/>
<g clip-path="url(#clip0_350_372)">
<path d="M118.69 79.1924L126.999 74.373L126.864 123.597L118.555 128.416L118.69 79.1924Z" fill="#8F99FF"/>
<path d="M107.406 59.6948L118.69 79.1929L118.555 128.417L78.8164 105.522L78.9885 43.3359L107.406 59.6948Z" fill="#F4ECE5"/>
<path d="M107.406 59.6944L115.715 54.875L126.999 74.3731L118.69 79.1925L107.406 59.6944Z" fill="#7380FF"/>
<path d="M78.9883 43.335L87.2973 38.5156L115.715 54.8744L107.406 59.6938L78.9883 43.335Z" fill="#8F99FF"/>
<path d="M107.406 59.6934V72.2016L118.69 79.1915L107.406 59.6934Z" fill="#8F99FF"/>
<path d="M96.8735 107.776L105.183 102.957L105.047 152.181L96.7383 157L96.8735 107.776Z" fill="#8F99FF"/>
<path d="M85.59 88.2787L96.8736 107.777L96.7384 157.001L57 134.106L57.1721 71.9199L85.59 88.2787Z" fill="#F4ECE5"/>
<path d="M85.5898 88.2783L93.8989 83.459L105.182 102.957L96.8734 107.776L85.5898 88.2783Z" fill="#7380FF"/>
<path d="M57.1719 71.919L65.4932 67.0996L93.8988 83.4584L85.5898 88.2778L57.1719 71.919Z" fill="#8F99FF"/>
<path d="M85.5898 88.2773V100.786L96.8734 107.775L85.5898 88.2773Z" fill="#8F99FF"/>
<path d="M86.0213 133.271L86.0091 135.907L67.707 125.361V122.725L86.0213 133.271Z" fill="#7380FF"/>
<path d="M86.0448 123.964L86.0325 126.601L67.7305 116.055V113.418L86.0448 123.964Z" fill="#7380FF"/>
<path d="M86.0682 114.644L86.0559 117.28L67.7539 106.734L67.7662 104.098L86.0682 114.644Z" fill="#7380FF"/>
<path d="M86.0956 105.335L86.0833 107.972L67.7812 97.4256L67.7935 94.7891L86.0956 105.335Z" fill="#7380FF"/>
<path d="M59.1992 59.6931V47.2094L69.4134 40.1582" stroke="#E18AC7" stroke-width="2" stroke-linecap="round" stroke-linejoin="round"/>
<path d="M66.3789 39.2266L70.0418 39.9133L69.3534 43.5799" stroke="#E18AC7" stroke-width="2" stroke-linecap="round" stroke-linejoin="round"/>
<path d="M117.869 147.251L114.219 146.478L114.993 142.836" stroke="#E18AC7" stroke-width="2" stroke-linecap="round" stroke-linejoin="round"/>
<path d="M124.245 129.973V140.151L115.715 145.449" stroke="#E18AC7" stroke-width="2" stroke-linecap="round" stroke-linejoin="round"/>
</g>
<defs>
<clipPath id="clip0_350_372">
<rect width="70" height="119" fill="white" transform="translate(57 38)"/>
</clipPath>
</defs>
</svg>
