<svg width="191" height="191" viewBox="0 0 191 191" fill="none" xmlns="http://www.w3.org/2000/svg">
<circle cx="95.5" cy="95.5" r="95.5" fill="#EDF4F6"/>
<g clip-path="url(#clip0_350_403)">
<path d="M139.27 74.9964L117.361 87.706L114.875 86.2682L136.784 73.5586L139.27 74.9964Z" fill="#E18AC7"/>
<path d="M157.971 85.7659L136.062 98.4891L133.562 97.0513L155.472 84.3281L157.971 85.7659Z" fill="#E18AC7"/>
<path d="M148.614 80.3812L126.718 93.0908L124.219 91.653L146.128 78.9434L148.614 80.3812Z" fill="#E18AC7"/>
<path d="M112.252 59.4378L90.343 72.1474L87.8438 70.7096L109.753 58L112.252 59.4378Z" fill="#E18AC7"/>
<path d="M130.942 70.221L109.033 82.9306L106.547 81.4928L128.456 68.7832L130.942 70.221Z" fill="#E18AC7"/>
<path d="M121.598 64.8226L99.6888 77.5458L97.2031 76.1079L119.099 63.3848L121.598 64.8226Z" fill="#E18AC7"/>
<path d="M55.1758 59.4378L77.0713 72.1474L79.5706 70.7096L57.6614 58L55.1758 59.4378Z" fill="#E18AC7"/>
<path d="M36.4727 70.221L58.3818 82.9306L60.8675 81.4928L38.9719 68.7832L36.4727 70.221Z" fill="#E18AC7"/>
<path d="M45.8203 64.8226L67.7295 77.5458L70.2287 76.1079L48.3196 63.3848L45.8203 64.8226Z" fill="#E18AC7"/>
<path d="M47.043 84.1386L112.01 121.847L152.989 98.2318L88.0089 60.5234L47.043 84.1386Z" fill="#7380FF"/>
<path d="M47.043 84.1387L47.0701 93.1317L112.037 130.84L112.01 121.847L47.043 84.1387Z" fill="#8F99FF"/>
<path d="M112.008 121.848L112.035 130.841L153.014 107.225L152.987 98.2324L112.008 121.848Z" fill="#ABB3FF"/>
<path d="M141.605 110.506L163.515 123.216L166 121.778L144.091 109.068L141.605 110.506Z" fill="#E18AC7"/>
<path d="M122.902 121.291L144.811 134.001L147.311 132.563L125.402 119.854L122.902 121.291Z" fill="#E18AC7"/>
<path d="M132.262 115.891L154.171 128.614L156.657 127.176L134.747 114.453L132.262 115.891Z" fill="#E18AC7"/>
<path d="M82.424 110.506L60.5149 123.216L58.0156 121.778L79.9248 109.068L82.424 110.506Z" fill="#E18AC7"/>
<path d="M101.114 121.291L79.2044 134.001L76.7188 132.563L98.6279 119.854L101.114 121.291Z" fill="#E18AC7"/>
<path d="M91.7698 115.891L69.8607 128.614L67.375 127.176L89.2841 114.453L91.7698 115.891Z" fill="#E18AC7"/>
<path d="M55.3948 94.9495L33.4857 107.659L31 106.235L52.9091 93.5117L55.3948 94.9495Z" fill="#E18AC7"/>
<path d="M74.0979 105.733L52.1888 118.442L49.7031 117.005L71.5987 104.295L74.0979 105.733Z" fill="#E18AC7"/>
<path d="M64.7521 100.348L42.843 113.058L40.3438 111.62L62.2529 98.9102L64.7521 100.348Z" fill="#E18AC7"/>
<path d="M72.6719 83.7724L106.194 103.237L127.343 91.0428L93.8204 71.5918L72.6719 83.7724Z" fill="#8F99FF"/>
<path d="M72.6719 83.7715L72.6855 88.4104L106.208 107.875L106.194 103.236L72.6719 83.7715Z" fill="#ABB3FF"/>
<path d="M106.195 103.237L106.209 107.876L127.357 95.6819L127.344 91.043L106.195 103.237Z" fill="#C7CCFF"/>
</g>
<defs>
<clipPath id="clip0_350_403">
<rect width="135" height="76" fill="white" transform="translate(31 58)"/>
</clipPath>
</defs>
</svg>
