<svg width="84" height="14" viewBox="0 0 84 14" fill="none" xmlns="http://www.w3.org/2000/svg">
<path d="M0 1.13428H4.95072C8.63011 1.13428 10.2185 3.81863 10.2185 7.12753C10.2185 10.4364 8.63011 13.1178 4.95072 13.1178H0V1.13428ZM2.09097 11.4063H4.14904C7.42459 11.4063 8.12757 9.52663 8.12757 7.12753C8.12757 4.72843 7.42459 2.84878 4.14904 2.84878H2.09097V11.4093V11.4063Z" fill="white"/>
<path d="M15.2645 1.13477H17.4871L22.0848 13.1183H19.8443L18.7225 9.94748H13.9573L12.8355 13.1183H10.6787L15.2615 1.13477H15.2645ZM14.5286 8.35008H18.1721L16.3833 3.19757H16.3324L14.5256 8.35008H14.5286Z" fill="white"/>
<path d="M20.5508 1.13477H30.2159V2.94835H26.4199V13.1183H24.3289V2.94835H20.5508V1.13477Z" fill="white"/>
<path d="M33.2577 1.13477H35.4802L40.078 13.1183H37.8374L36.7157 9.94748H31.9504L30.8287 13.1183H28.6719L33.2547 1.13477H33.2577ZM32.5218 8.35008H36.1653L34.3764 3.19757H34.3256L32.5188 8.35008H32.5218Z" fill="white"/>
<path d="M41.2334 1.13477H42.3701V13.1183H41.2334V1.13477Z" fill="white"/>
<path d="M44.2752 1.13477H52.8694V2.14065L45.0111 12.1424H53.0369V13.1153H43.7397V12.1094L51.5981 2.10762H44.2752V1.13477Z" fill="white"/>
<path d="M54.458 1.13484H62.7022V2.10769H55.5947V6.43748H62.2505V7.41033H55.5947V12.1425H62.783V13.1153H54.458V1.13184V1.13484Z" fill="white"/>
<path d="M73.6103 0H76.0363L81.0498 13.0674H78.6059L77.3854 9.60841H72.1894L70.9689 13.0674H68.6177L73.6133 0H73.6103ZM72.8086 7.86989H76.7841L74.8338 2.25197H74.7799L72.8116 7.86989H72.8086Z" fill="white"/>
<path d="M82.3081 0H83.5495V13.0674H82.3081V0Z" fill="white"/>
</svg>
