<svg width="222" height="222" viewBox="0 0 222 222" fill="none" xmlns="http://www.w3.org/2000/svg">
<g clip-path="url(#clip0_390_409)">
<path d="M110.994 1.13387C133.4 1.13387 151.632 19.3665 151.632 41.7717C151.632 64.1769 133.4 82.4095 110.994 82.4095C88.5891 82.4095 70.3565 64.1769 70.3565 41.7717C70.3565 19.3665 88.5891 1.13387 110.994 1.13387ZM110.994 0C87.9201 0 69.2227 18.6975 69.2227 41.7717C69.2227 64.8459 87.9201 83.5434 110.994 83.5434C134.069 83.5434 152.766 64.8459 152.766 41.7717C152.766 18.6975 134.069 0 110.994 0Z" fill="black"/>
<path d="M159.955 21.4074C170.806 21.4074 181.011 25.6368 188.687 33.313C204.528 49.1532 204.528 74.9373 188.687 90.7888C181.011 98.4651 170.806 102.694 159.955 102.694C149.104 102.694 138.899 98.4651 131.223 90.7888C123.547 83.1125 119.317 72.9077 119.317 62.0566C119.317 51.2055 123.547 41.0007 131.223 33.3244C138.899 25.6481 149.104 21.4188 159.955 21.4188M159.955 20.2736C149.263 20.2736 138.57 24.3555 130.418 32.508C114.102 48.8244 114.102 75.2662 130.418 91.5825C138.57 99.735 149.263 103.817 159.955 103.817C170.648 103.817 181.34 99.735 189.492 91.5825C205.809 75.2662 205.809 48.8244 189.492 32.508C181.34 24.3555 170.648 20.2736 159.955 20.2736Z" fill="black"/>
<path d="M180.229 70.3565C202.634 70.3565 220.867 88.5891 220.867 110.994C220.867 133.4 202.634 151.632 180.229 151.632C157.823 151.632 139.591 133.4 139.591 110.994C139.591 88.5891 157.823 70.3565 180.229 70.3565ZM180.229 69.2227C157.155 69.2227 138.457 87.9201 138.457 110.994C138.457 134.069 157.155 152.766 180.229 152.766C203.303 152.766 222 134.069 222 110.994C222 87.9201 203.303 69.2227 180.229 69.2227Z" fill="black"/>
<path d="M159.955 119.306C170.806 119.306 181.011 123.535 188.687 131.211C204.528 147.051 204.528 172.836 188.687 188.687C181.011 196.363 170.806 200.593 159.955 200.593C149.104 200.593 138.899 196.363 131.223 188.687C123.547 181.011 119.317 170.806 119.317 159.955C119.317 149.104 123.547 138.899 131.223 131.223C138.899 123.546 149.104 119.317 159.955 119.317M159.955 118.172C149.263 118.172 138.57 122.254 130.418 130.406C114.102 146.723 114.102 173.164 130.418 189.481C138.57 197.633 149.263 201.715 159.955 201.715C170.648 201.715 181.34 197.633 189.492 189.481C205.809 173.164 205.809 146.723 189.492 130.406C181.34 122.254 170.648 118.172 159.955 118.172Z" fill="black"/>
<path d="M110.994 139.59C133.4 139.59 151.632 157.823 151.632 180.228C151.632 202.634 133.4 220.866 110.994 220.866C88.5891 220.866 70.3565 202.634 70.3565 180.228C70.3565 157.823 88.5891 139.59 110.994 139.59ZM110.994 138.457C87.9201 138.457 69.2227 157.154 69.2227 180.228C69.2227 203.303 87.9201 222 110.994 222C134.069 222 152.766 203.303 152.766 180.228C152.766 157.154 134.069 138.457 110.994 138.457Z" fill="black"/>
<path d="M62.045 119.306C72.8962 119.306 83.101 123.535 90.7773 131.211C98.4535 138.888 102.683 149.092 102.683 159.943C102.683 170.795 98.4535 180.999 90.7773 188.676C83.101 196.352 72.8962 200.581 62.045 200.581C51.1939 200.581 40.9891 196.352 33.3128 188.676C17.4727 172.836 17.4727 147.051 33.3128 131.2C40.9891 123.524 51.1939 119.294 62.045 119.294M62.045 118.172C51.3527 118.172 40.6603 122.254 32.5078 130.406C16.1914 146.723 16.1914 173.164 32.5078 189.481C40.6603 197.633 51.3527 201.715 62.045 201.715C72.7374 201.715 83.4298 197.633 91.5823 189.481C107.899 173.164 107.899 146.723 91.5823 130.406C83.4298 122.254 72.7374 118.172 62.045 118.172Z" fill="black"/>
<path d="M41.7717 70.3565C64.1769 70.3565 82.4095 88.5891 82.4095 110.994C82.4095 133.4 64.1769 151.632 41.7717 151.632C19.3665 151.632 1.13387 133.411 1.13387 110.994C1.13387 88.5778 19.3665 70.3565 41.7717 70.3565ZM41.7717 69.2227C18.6975 69.2227 0 87.9315 0 110.994C0 134.057 18.6975 152.766 41.7717 152.766C64.8459 152.766 83.5434 134.069 83.5434 110.994C83.5434 87.9201 64.8459 69.2227 41.7717 69.2227Z" fill="black"/>
<path d="M62.045 21.4074C72.8962 21.4074 83.101 25.6368 90.7773 33.313C98.4535 40.9893 102.683 51.1941 102.683 62.0453C102.683 72.8964 98.4535 83.1012 90.7773 90.7775C83.101 98.4538 72.8962 102.683 62.045 102.683C51.1939 102.683 40.9891 98.4538 33.3128 90.7775C17.4727 74.9373 17.4727 49.1532 33.3128 33.3017C40.9891 25.6254 51.1939 21.3961 62.045 21.3961M62.045 20.2736C51.3527 20.2736 40.6603 24.3555 32.5078 32.508C16.1914 48.8244 16.1914 75.2662 32.5078 91.5825C40.6603 99.735 51.3527 103.817 62.045 103.817C72.7374 103.817 83.4298 99.735 91.5823 91.5825C107.899 75.2662 107.899 48.8244 91.5823 32.508C83.4298 24.3555 72.7374 20.2736 62.045 20.2736Z" fill="black"/>
</g>
<defs>
<clipPath id="clip0_390_409">
<rect width="222" height="222" fill="white"/>
</clipPath>
</defs>
</svg>
