<svg width="128" height="26" viewBox="0 0 128 26" fill="none" xmlns="http://www.w3.org/2000/svg">
<path d="M33.8237 5.91988H39.4041C43.5514 5.91988 45.3419 8.94562 45.3419 12.6753C45.3419 16.4051 43.5514 19.4274 39.4041 19.4274H33.8237V5.91988ZM36.1806 17.4983H38.5004C42.1926 17.4983 42.985 15.3796 42.985 12.6753C42.985 9.97113 42.1926 7.85243 38.5004 7.85243H36.1806V17.5016V17.4983Z" fill="#494949"/>
<path d="M51.0298 5.92034H53.5351L58.7176 19.4279H56.1921L54.9277 15.8539H49.5563L48.2919 19.4279H45.8608L51.0265 5.92034H51.0298ZM50.2004 14.0533H54.3072L52.2909 8.24549H52.2336L50.197 14.0533H50.2004Z" fill="#494949"/>
<path d="M56.9888 5.92034H67.8831V7.96458H63.6043V19.4279H61.2474V7.96458H56.9888V5.92034Z" fill="#494949"/>
<path d="M71.3111 5.92034H73.8164L78.9988 19.4279H76.4733L75.2089 15.8539H69.8376L68.5732 19.4279H66.1421L71.3077 5.92034H71.3111ZM70.4816 14.0533H74.5885L72.5721 8.24549H72.5148L70.4782 14.0533H70.4816Z" fill="#494949"/>
<path d="M80.3018 5.92034H81.583V19.4279H80.3018V5.92034Z" fill="#494949"/>
<path d="M83.7295 5.92034H93.4168V7.05414L84.559 18.3279H93.6056V19.4245H83.126V18.2907L91.9837 7.01691H83.7295V5.92034Z" fill="#494949"/>
<path d="M95.208 5.92034H104.501V7.01692H96.4893V11.8974H103.992V12.9939H96.4893V18.3279H104.592V19.4245H95.208V5.91695V5.92034Z" fill="#494949"/>
<path d="M24 12.9994V6.94685C24 6.62285 23.8198 6.32584 23.5258 6.16834L18.0012 3.13982C18.0012 3.13982 17.9964 3.13982 17.9917 3.13982L12.4718 0.115795C12.2253 -0.0192059 11.936 -0.0327059 11.6752 0.0572948C11.623 0.0752949 11.5708 0.088795 11.5234 0.115795L5.99881 3.14432L0.474215 6.16834C0.180202 6.33034 0 6.62735 0 6.94685V12.9994V19.0519C0 19.3714 0.180202 19.6685 0.474215 19.8305L5.99407 22.8545L11.5187 25.8785C11.6657 25.9595 11.8269 26 11.9929 26C12.1589 26 12.3201 25.9595 12.4671 25.8785L17.987 22.8545C17.987 22.8545 17.987 22.8545 17.9917 22.8545L23.5116 19.8305C23.8056 19.6685 23.9858 19.3714 23.9858 19.0519V12.9994H24ZM1.89686 13.0084V8.51286L10.1008 13.0084L1.89686 17.4994V13.0084ZM22.1031 12.9994V17.4949L13.8992 12.9994L19.1251 10.1374L22.1031 8.50386V12.9949V12.9994ZM12.9461 2.45131L21.15 6.94685L12.9461 11.4424V2.45131ZM6.94724 4.70133L11.0492 2.45581V11.4469L6.38293 8.89086L2.84529 6.95135L6.94724 4.70133ZM11.0492 23.552L6.94724 21.302H6.9425L2.84529 19.0564L11.0492 14.5609V23.552ZM17.048 21.3065L12.9461 23.552V14.5609L20.6283 18.7684L21.1547 19.0564L17.0528 21.3065H17.048Z" fill="#2F72B9"/>
<path d="M116.797 4.641H119.531L125.182 19.3704H122.427L121.052 15.4714H115.195L113.819 19.3704H111.169L116.8 4.641H116.797ZM115.893 13.5118H120.374L118.176 7.17938H118.115L115.896 13.5118H115.893Z" fill="#32A7DF"/>
<path d="M126.601 4.641H128V19.3704H126.601V4.641Z" fill="#32A7DF"/>
</svg>
