<svg width="145" height="40" viewBox="0 0 145 40" fill="none" xmlns="http://www.w3.org/2000/svg">
<rect width="145" height="40" rx="20" fill="#3CA7DF"/>
<path d="M51.365 27V15.885H53.825L55.715 21.09C55.955 21.78 56.165 22.515 56.39 23.22H56.465C56.705 22.515 56.9 21.78 57.14 21.09L58.985 15.885H61.445V27H59.42V22.365C59.42 21.315 59.585 19.77 59.705 18.72H59.63L58.73 21.33L57.02 25.995H55.745L54.02 21.33L53.135 18.72H53.075C53.18 19.77 53.36 21.315 53.36 22.365V27H51.365ZM68.5777 27.21C65.6377 27.21 63.6127 25.005 63.6127 21.405C63.6127 17.79 65.6377 15.69 68.5777 15.69C71.5177 15.69 73.5427 17.805 73.5427 21.405C73.5427 25.005 71.5177 27.21 68.5777 27.21ZM68.5777 25.29C70.2277 25.29 71.2777 23.775 71.2777 21.405C71.2777 19.02 70.2277 17.595 68.5777 17.595C66.9277 17.595 65.8777 19.02 65.8777 21.405C65.8777 23.775 66.9277 25.29 68.5777 25.29ZM75.7107 27V15.885H79.5807C81.9057 15.885 83.7507 16.71 83.7507 19.26C83.7507 20.925 82.9107 21.96 81.6357 22.455L84.2307 27H81.7557L79.4757 22.8H77.9307V27H75.7107ZM77.9307 21.045H79.3707C80.7957 21.045 81.5907 20.445 81.5907 19.26C81.5907 18.06 80.7957 17.655 79.3707 17.655H77.9307V21.045ZM85.9353 27V15.885H92.7453V17.745H88.1553V20.31H92.0553V22.17H88.1553V25.14H92.9103V27H85.9353Z" fill="white"/>
</svg>
