<svg width="169" height="60" viewBox="0 0 169 60" fill="none" xmlns="http://www.w3.org/2000/svg">
<path d="M88.2529 12.0226L66.8816 12.0532C65.8605 7.20241 62.5828 0.749972 55.2003 0.091977C53.6687 -0.157959 46.8785 -0.601723 40.1955 9.41103C39.2867 10.7729 38.0614 12.7061 36.6217 15.0218C28.1518 10.0996 17.2006 5.85581 3.52315 2.15778L0.000405679 1.20904V4.83566C-0.0455432 13.8946 3.79885 30.9361 18.1298 35.1953L21.0297 30.1812C9.44035 27.7227 6.54046 15.032 5.8206 8.58981C17.2466 11.89 26.4925 15.5931 33.7524 19.7808C25.308 33.7365 13.2745 54.5118 12.6057 55.6543L10.4461 59.383L14.7347 59.8267C14.99 59.8267 16.5216 60.0002 18.819 60.0002C27.2073 60.0002 45.9646 58.0874 52.7702 41.714C55.5322 35.083 52.862 27.2687 45.8012 21.3621C44.4398 20.2025 42.9575 19.0803 41.3544 17.9956C42.7584 15.7155 43.9531 13.8181 44.8312 12.5021C49.6099 5.38654 53.7198 5.53447 54.2763 5.61098L54.6387 5.65688C60.9899 6.16696 61.6791 14.6954 61.7047 15.0473L61.8782 17.6589L88.258 17.6232L88.2529 12.0226ZM42.2428 25.6365C47.4401 29.9874 49.4567 35.1953 47.6392 39.5717C42.401 52.1807 27.3808 54.2006 19.7993 54.3638C23.8224 47.4676 32.1646 33.155 38.4698 22.7648C39.8143 23.6999 41.0719 24.6571 42.2428 25.6365Z" fill="#3CA7DF"/>
<path d="M107.01 17.6783C108.529 17.6783 109.761 16.4474 109.761 14.929C109.761 13.4106 108.529 12.1797 107.01 12.1797C105.49 12.1797 104.258 13.4106 104.258 14.929C104.258 16.4474 105.49 17.6783 107.01 17.6783Z" fill="#2F72B9"/>
<path d="M96.7635 17.6783C98.2833 17.6783 99.5154 16.4474 99.5154 14.929C99.5154 13.4106 98.2833 12.1797 96.7635 12.1797C95.2438 12.1797 94.0117 13.4106 94.0117 14.929C94.0117 16.4474 95.2438 17.6783 96.7635 17.6783Z" fill="#2F72B9"/>
<path d="M61.8418 27.6445H70.2913C76.5659 27.6445 79.2769 32.2046 79.2769 37.846C79.2769 43.4874 76.5659 48.0475 70.2913 48.0475H61.8418V27.6445ZM65.4156 45.0942H68.923C74.539 45.0942 75.7184 41.9011 75.7184 37.8205C75.7184 33.7399 74.539 30.552 68.923 30.552H65.4156V45.0942Z" fill="#494949"/>
<path d="M87.8965 27.6445H91.6949L99.5573 48.0016H95.7333L93.8188 42.6101H85.6705L83.7611 48.0016H80.0801L87.8965 27.6445ZM86.6406 39.8863H92.8641L89.8008 31.1334H89.714L86.6406 39.8863Z" fill="#494949"/>
<path d="M96.916 27.6445H113.412V30.705H106.933V48.0016H103.359V30.7203H96.916V27.6445Z" fill="#494949"/>
<path d="M118.605 27.6445H122.399L130.251 48.0016H126.422L124.512 42.6101H116.405L114.465 48.0016H110.789L118.605 27.6445ZM117.35 39.8863H123.553L120.489 31.1334H120.408L117.35 39.8863Z" fill="#494949"/>
<path d="M132.23 27.6445H134.171V48.0016H132.23V27.6445Z" fill="#494949"/>
<path d="M137.409 27.6445H152.077V29.3533L138.665 46.3489H152.363V48.0016H136.5V46.2877L149.912 29.2972H137.409V27.6445Z" fill="#494949"/>
<path d="M154.787 27.6445H168.858V29.2972H156.737V36.6524H168.097V38.3051H156.737V46.3489H168.99V48.0016H154.787V27.6445Z" fill="#494949"/>
</svg>
