<svg width="109" height="112" viewBox="0 0 109 112" fill="none" xmlns="http://www.w3.org/2000/svg">
<mask id="mask0_130_1219" style="mask-type:alpha" maskUnits="userSpaceOnUse" x="0" y="0" width="109" height="112">
<rect y="0.56572" width="109" height="110.869" fill="#D9D9D9"/>
</mask>
<g mask="url(#mask0_130_1219)">
<path d="M54.5869 117.183C55.1288 112.998 55.1537 108.775 55.7517 104.595C56.3745 100.217 56.9289 95.8193 56.8603 91.3907C56.7669 85.6605 56.9538 79.9177 57.6264 74.2186C58.4611 67.1927 59.5075 60.1981 60.7594 53.2345C60.884 52.5494 61.0148 51.8393 61.4072 51.2601C62.4785 49.6718 66.0724 49.896 67.7666 49.7216C68.0406 49.6905 68.3209 49.6655 68.595 49.6718C68.8877 49.678 69.1742 49.7216 69.442 49.8462C70.0088 50.1015 70.3826 50.6372 70.8186 51.0794C72.4255 52.6989 75.0166 52.9854 77.2153 52.3937C79.4202 51.7957 81.3324 50.4566 83.1947 49.1361C84.646 48.1084 85.381 48.9368 86.8011 49.5347C88.5264 50.2573 90.2829 50.9113 92.0206 51.5964C94.0947 52.4186 96.1938 53.247 98.0063 54.5487C101.961 57.3827 102.597 61.587 102.815 66.1214C102.995 69.8337 102.615 73.5397 102.273 77.2394C101.974 81.5496 101.974 85.9345 101.251 90.1699C100.361 95.3957 98.7973 100.497 98.1869 105.773C97.5578 111.173 98.953 116.106 99.6568 121.425C101.114 132.462 101.121 143.642 100.435 154.735C100.236 157.949 99.9807 161.163 99.6818 164.365C99.2022 169.485 98.6167 174.592 97.9938 179.693C97.7821 181.431 97.7509 182.832 97.6388 183.96C97.4021 186.376 96.8228 187.541 93.3909 188.064C82.9207 189.665 70.7937 187.915 60.4418 186.19C55.2098 185.318 53.827 182.845 53.3599 177.501C51.5847 157.432 52.002 137.165 54.5869 117.183Z" fill="#D87355"/>
<path d="M84.3349 189.223C76.3 189.223 67.9164 187.971 60.3549 186.707C54.6308 185.747 53.2917 182.751 52.837 177.551C51.0619 157.476 51.4792 137.146 54.0703 117.121C54.3256 115.147 54.4689 113.122 54.6059 111.16C54.7616 108.986 54.9173 106.738 55.2288 104.527C55.8267 100.316 56.406 95.8317 56.3312 91.4032C56.2253 85.0438 56.4807 79.407 57.1036 74.1625C57.9382 67.1616 58.9908 60.0922 60.2365 53.1473C60.3611 52.4497 60.5044 51.6525 60.9653 50.9735C61.9681 49.4849 64.5965 49.3666 66.5212 49.2794C66.9696 49.2607 67.3745 49.242 67.7046 49.2046C67.9911 49.1735 68.2901 49.1424 68.6015 49.1548C69.0064 49.1673 69.3489 49.2358 69.6541 49.3728C70.1773 49.6095 70.5511 50.0206 70.8812 50.3818C70.9808 50.494 71.0867 50.6061 71.1864 50.712C72.5068 52.0386 74.8176 52.4996 77.0786 51.8892C79.2275 51.3099 81.1708 49.9272 82.8899 48.7126C84.2975 47.716 85.2318 48.1832 86.2221 48.6877C86.4588 48.806 86.7142 48.9368 87.0007 49.0551C88.1468 49.5347 89.3302 49.9894 90.47 50.4317C91.0493 50.6559 91.6348 50.8801 92.214 51.1106C94.2881 51.9328 96.437 52.7798 98.3118 54.119C102.56 57.1585 103.126 61.7054 103.338 66.0965C103.513 69.6219 103.176 73.1784 102.859 76.6228L102.796 77.2893C102.709 78.5225 102.653 79.7745 102.591 81.0326C102.441 84.0784 102.286 87.2238 101.769 90.2634C101.395 92.4371 100.903 94.6171 100.43 96.7286C99.7568 99.6997 99.0655 102.77 98.7104 105.835C98.2557 109.728 98.8724 113.346 99.5264 117.171C99.7568 118.529 99.9935 119.936 100.187 121.356C101.495 131.229 101.75 142.16 100.971 154.773C100.785 157.831 100.535 160.983 100.218 164.421C99.6945 170.026 99.0405 175.57 98.5236 179.768C98.3928 180.839 98.3305 181.786 98.2744 182.621C98.2433 183.131 98.2121 183.592 98.1685 184.022C97.9132 186.675 97.1408 188.033 93.4784 188.594C90.5323 189.042 87.4616 189.235 84.3411 189.235L84.3349 189.223ZM54.5872 117.183L55.1042 117.252C52.5256 137.202 52.1083 157.457 53.8772 177.457C54.3069 182.347 55.4156 184.819 60.5231 185.673C70.9372 187.41 82.921 189.136 93.3103 187.547C96.4931 187.062 96.8979 186.115 97.1097 183.91C97.1533 183.493 97.1782 183.038 97.2156 182.54C97.2716 181.693 97.3339 180.733 97.4709 179.631C97.9817 175.439 98.6357 169.908 99.1589 164.315C99.4765 160.889 99.7257 157.744 99.9125 154.698C100.685 142.154 100.43 131.291 99.134 121.487C98.9471 120.086 98.7104 118.691 98.48 117.339C97.8135 113.434 97.1907 109.746 97.6578 105.704C98.0191 102.583 98.7229 99.4817 99.3956 96.4857C99.8689 94.3867 100.355 92.2192 100.722 90.0765C101.233 87.0993 101.382 83.985 101.532 80.9703C101.594 79.7122 101.657 78.4478 101.744 77.1958L101.806 76.5169C102.124 73.1099 102.454 69.5907 102.286 66.1401C102.086 62.0043 101.563 57.7378 97.6952 54.9661C95.92 53.6954 93.8397 52.8733 91.8216 52.076C91.2424 51.8455 90.6631 51.6213 90.0839 51.3971C88.9316 50.9549 87.7481 50.4939 86.5896 50.0081C86.2782 49.8773 86.0041 49.7403 85.7425 49.6095C84.8332 49.1548 84.3847 48.9244 83.4878 49.5534C81.7002 50.8241 79.6759 52.2566 77.3464 52.8857C75.2661 53.4463 72.3573 53.3653 70.4389 51.4345C70.3206 51.3161 70.2085 51.1915 70.0964 51.0732C69.8099 50.7555 69.542 50.4628 69.2181 50.3133C69.0437 50.2324 68.832 50.195 68.5704 50.1887C68.3212 50.1763 68.0596 50.2074 67.8105 50.2323C67.4617 50.2697 67.0319 50.2884 66.5648 50.3071C64.964 50.3818 62.5411 50.4939 61.8311 51.5403C61.4947 52.0386 61.3701 52.7176 61.2643 53.3155C60.0185 60.2417 58.9659 67.2862 58.1375 74.2684C57.5209 79.463 57.2717 85.0563 57.3714 91.3658C57.4461 95.8691 56.8607 100.403 56.2565 104.658C55.9451 106.831 55.7893 109.061 55.6399 111.216C55.5028 113.191 55.3533 115.234 55.098 117.239L54.581 117.171L54.5872 117.183Z" fill="#B25039"/>
<path d="M84.3159 44.4958C84.4903 43.5179 84.7519 42.6335 85.2252 42.0667C86.9817 39.9801 87.6855 37.115 87.6045 34.4304C87.5609 33.0602 87.1561 31.8954 86.8633 30.5936C86.0723 27.1306 83.8736 24.1782 80.9213 22.2411C80.1552 21.7366 79.3641 21.2508 78.4859 20.9767C77.3897 20.6342 76.2125 20.6466 75.0664 20.74C73.883 20.8335 72.6809 21.0141 71.5971 21.5062C70.2268 22.129 69.1119 23.2252 68.2773 24.4772C66.689 26.8503 65.9789 29.5535 65.4557 32.3127C65.0883 34.2498 65.1256 36.2928 65.9042 38.124C67.2184 41.2009 69.2801 42.5899 72.1577 43.9851C72.2823 44.0474 72.4131 44.1096 72.5065 44.2093C72.6186 44.3339 72.6684 44.5083 72.712 44.6702C73.1916 46.5575 73.3847 48.5132 73.2788 50.4566C73.1667 52.4123 75.4651 52.3936 76.8852 52.2192C78.8036 51.9888 80.6846 51.478 82.4535 50.7119C84.4467 49.8524 84.0044 46.3146 84.3283 44.4834L84.3159 44.4958Z" fill="#EDCBB9"/>
<path d="M75.7831 52.8359C74.6744 52.8359 73.8585 52.593 73.3415 52.1134C72.8993 51.696 72.6937 51.1355 72.7311 50.4379C72.837 48.5444 72.6501 46.6509 72.183 44.8135C72.1705 44.7512 72.1331 44.6142 72.102 44.583C72.0771 44.5581 71.9774 44.5083 71.9214 44.4771C68.8071 42.9698 66.7454 41.4812 65.4063 38.342C64.6526 36.5668 64.4845 34.5052 64.9205 32.2193C65.425 29.541 66.1288 26.7195 67.823 24.1844C68.7946 22.727 70.0217 21.637 71.367 21.0266C72.6003 20.466 73.9643 20.2978 75.017 20.2106C76.1132 20.1234 77.4025 20.086 78.642 20.4722C79.6012 20.7712 80.4358 21.2944 81.2144 21.7989C84.391 23.8855 86.5834 26.9686 87.3869 30.4815C87.4617 30.8116 87.5426 31.1293 87.6236 31.447C87.8603 32.3812 88.1094 33.3404 88.1406 34.4242C88.234 37.5011 87.3184 40.4161 85.6367 42.4217C85.2879 42.8328 85.0325 43.5491 84.8457 44.5955C84.7709 45.0252 84.7398 45.5734 84.7024 46.1588C84.5903 48.071 84.4533 50.4441 82.6532 51.2227C80.8282 52.0075 78.9098 52.5307 76.9354 52.7674C76.5181 52.8172 76.1381 52.8421 75.7831 52.8421V52.8359ZM76.2938 21.2196C75.8827 21.2196 75.4779 21.2446 75.0979 21.2757C74.1387 21.3504 72.893 21.5062 71.8093 21.9982C70.6445 22.5276 69.5794 23.4868 68.7137 24.7762C67.1254 27.1492 66.4589 29.8524 65.9731 32.4186C65.5807 34.4927 65.7177 36.3488 66.3904 37.9184C67.605 40.7649 69.4299 42.0791 72.3885 43.5117C72.5318 43.5802 72.7311 43.6799 72.8993 43.8605C73.1048 44.091 73.1795 44.365 73.2231 44.5456C73.7214 46.489 73.9145 48.4946 73.8024 50.4939C73.7837 50.8614 73.8709 51.1355 74.0765 51.3286C74.5 51.7272 75.4717 51.858 76.8108 51.696C78.6794 51.4718 80.5043 50.9735 82.2297 50.2323C83.4193 49.7154 83.5314 47.7907 83.6311 46.0903C83.6685 45.4737 83.6996 44.8944 83.7868 44.4024C84.0048 43.1442 84.3349 42.2909 84.8145 41.7241C86.3343 39.9178 87.1565 37.2644 87.0693 34.4491C87.0381 33.4899 86.8201 32.6242 86.5834 31.7086C86.5025 31.3847 86.4153 31.0546 86.3405 30.7182C85.5993 27.4794 83.5688 24.6267 80.6289 22.6896C79.9189 22.2224 79.159 21.7428 78.3306 21.4875C77.6703 21.2819 76.9727 21.2196 76.3001 21.2196H76.2938Z" fill="#CCA28F"/>
<path d="M80.3674 30.8864C80.1868 30.8864 80.0124 30.7992 79.9127 30.6372C79.4643 29.9396 78.5487 29.5597 77.739 29.7341C77.4462 29.7964 77.1597 29.6095 77.0974 29.3168C77.0351 29.024 77.222 28.7375 77.5147 28.6752C78.7729 28.4012 80.137 28.968 80.8346 30.0518C80.9965 30.3009 80.9218 30.6372 80.6726 30.7992C80.5792 30.8552 80.4795 30.8864 80.3799 30.8864H80.3674Z" fill="#224289"/>
<path d="M72.2391 29.2109C72.1083 29.2109 71.9775 29.1673 71.8778 29.0676C71.3982 28.6316 70.6632 28.4759 70.0404 28.6752C69.7539 28.7687 69.4487 28.613 69.3552 28.3264C69.2618 28.0399 69.4175 27.7347 69.704 27.6413C70.6882 27.3174 71.828 27.5603 72.6003 28.2579C72.8246 28.4572 72.837 28.7998 72.6377 29.024C72.5318 29.1424 72.3823 29.2047 72.2391 29.2047V29.2109Z" fill="#224289"/>
<path d="M70.2893 31.3722C70.6443 31.4407 70.9059 31.8207 70.8499 32.1757C70.7938 32.5307 70.4263 32.811 70.0651 32.7674C69.7038 32.7238 69.4111 32.3688 69.4422 32.0075C69.4734 31.6463 69.8159 31.3411 70.1772 31.3598" fill="#224289"/>
<path d="M70.1462 33.3218C70.1026 33.3218 70.0528 33.3218 70.0092 33.3155C69.3614 33.2408 68.8569 32.6242 68.9129 31.9702C68.969 31.3162 69.5607 30.793 70.2147 30.8241C70.2459 30.8241 70.277 30.8241 70.3081 30.8366C70.3393 30.8366 70.3704 30.8366 70.4016 30.849C71.0431 30.9736 71.4978 31.6276 71.3919 32.2691C71.2985 32.8671 70.7442 33.3218 70.1462 33.3218ZM70.1587 31.9016C70.0901 31.9016 69.9967 31.9888 69.9905 32.0574C69.9905 32.1259 70.0652 32.2255 70.14 32.238C70.2147 32.2567 70.3144 32.1695 70.3268 32.101C70.3393 32.0324 70.2645 31.9266 70.196 31.9079C70.196 31.9079 70.1898 31.9079 70.1836 31.9079C70.1836 31.9079 70.1711 31.9079 70.1649 31.9079L70.1587 31.9016Z" fill="#224289"/>
<path d="M77.8323 32.3065C78.1873 32.375 78.4489 32.7549 78.3928 33.11C78.3368 33.465 77.9693 33.7453 77.608 33.7017C77.2468 33.6581 76.954 33.3031 76.9852 32.9418C77.0163 32.5805 77.3589 32.2753 77.7202 32.294" fill="#224289"/>
<path d="M77.6892 34.256C77.6456 34.256 77.5957 34.256 77.5521 34.2498C76.9044 34.1688 76.3999 33.5584 76.4559 32.9044C76.512 32.2567 77.0912 31.7272 77.7577 31.7584C77.7888 31.7584 77.82 31.7584 77.8511 31.7708C77.8823 31.7708 77.9134 31.7708 77.9445 31.7833C78.5861 31.9079 79.0408 32.5619 78.9349 33.2034C78.8415 33.8014 78.2871 34.256 77.6892 34.256ZM77.7016 32.8359C77.6331 32.8359 77.5397 32.9231 77.5335 32.9916C77.5335 33.0602 77.6082 33.1598 77.6829 33.1723C77.7639 33.1847 77.8573 33.1038 77.8698 33.029C77.8823 32.9605 77.8075 32.8546 77.739 32.8422C77.739 32.8422 77.7328 32.8422 77.7265 32.8422C77.7265 32.8422 77.7141 32.8422 77.7079 32.8422L77.7016 32.8359Z" fill="#224289"/>
<path d="M73.6095 37.6818C73.1112 37.6818 72.588 37.4575 72.1769 37.0589C71.5478 36.4485 71.2551 35.6077 71.3672 34.7045C71.498 33.6207 72.2018 32.5619 73.1548 32.0075C73.4164 31.8581 73.7465 31.9453 73.896 32.2006C74.0455 32.456 73.9583 32.7923 73.7029 32.9418C73.0302 33.3342 72.532 34.0754 72.4448 34.8353C72.3949 35.2339 72.4448 35.807 72.9306 36.2803C73.1424 36.4859 73.4226 36.598 73.6157 36.598C73.8898 36.5855 74.1638 36.8285 74.1701 37.1274C74.1763 37.4264 73.9396 37.6755 73.6407 37.6818C73.6282 37.6818 73.6157 37.6818 73.6095 37.6818Z" fill="#224289"/>
<path d="M74.2072 41.9047C74.0204 41.9047 73.8397 41.8923 73.6591 41.8736C73.1421 41.8175 72.6002 41.7241 72.1144 41.4189C71.7407 41.1822 71.1614 40.3912 71.1365 39.7247C71.1241 39.3697 71.2611 39.0645 71.5289 38.8714C71.7594 38.697 72.021 38.7033 72.158 38.7033C72.4072 38.7033 75.5464 38.479 75.8765 38.4417C75.9201 38.4354 75.9699 38.4354 76.0197 38.4417C76.2315 38.4666 76.4059 38.6098 76.4682 38.8091C76.655 39.3697 76.6114 39.9863 76.3561 40.5407C76.1318 41.0265 75.7457 41.4251 75.2785 41.6743C74.936 41.8549 74.5747 41.911 74.2134 41.911L74.2072 41.9047ZM72.2328 39.7808C72.295 40.0113 72.5442 40.3974 72.6937 40.4971C72.9926 40.6839 73.3913 40.7462 73.7712 40.7898C74.1325 40.8272 74.5 40.8459 74.7616 40.7089C75.0232 40.5718 75.2412 40.3476 75.3657 40.0735C75.4405 39.9116 75.4841 39.7372 75.4903 39.569C74.3878 39.7372 72.6376 39.7746 72.2265 39.7808H72.2328Z" fill="#224289"/>
<path d="M76.6241 50.4129C74.8864 50.9735 75.2788 53.7141 76.5182 54.7356C78.0193 55.9688 80.0561 54.7543 81.4824 54.0442C82.4354 53.5708 89.5111 50.4129 87.8667 48.507C85.8175 46.1339 85.612 44.9069 83.2264 46.9623C81.3329 48.5942 78.991 49.6531 76.6241 50.4129Z" fill="#D87355"/>
<path d="M78.0252 55.7944C77.3899 55.7944 76.7608 55.6138 76.1878 55.1404C75.2659 54.3868 74.749 52.8919 74.9794 51.6711C75.1476 50.7929 75.6708 50.17 76.4618 49.9147C79.1837 49.0364 81.2827 47.9402 82.8835 46.5637C83.9174 45.673 84.6088 45.3367 85.2628 45.399C86.0912 45.4737 86.6393 46.1651 87.4054 47.1243C87.6546 47.4357 87.9349 47.7845 88.2587 48.1644C88.5826 48.5381 88.701 48.9804 88.6013 49.4537C88.2338 51.2102 84.6773 53.0975 82.0364 54.3556L81.3575 54.692C80.3921 55.184 79.1899 55.7944 78.019 55.7944H78.0252ZM76.7857 50.9112C76.3684 51.0483 76.1068 51.3659 76.0134 51.8704C75.8514 52.7175 76.2314 53.82 76.8542 54.3307C77.9691 55.2463 79.5886 54.4179 80.8903 53.7577L81.5879 53.4089C86.5334 51.042 87.4677 49.7776 87.5798 49.2357C87.611 49.0863 87.5798 48.9741 87.4739 48.8433C87.1376 48.4509 86.8511 48.0959 86.5895 47.772C85.9853 47.0184 85.5493 46.4703 85.1694 46.4391C84.8393 46.4017 84.3285 46.7007 83.5686 47.3547C81.862 48.8247 79.6446 49.9832 76.7857 50.9112Z" fill="#B25039"/>
<path d="M82.6407 115.751C82.6158 116.604 82.5846 117.457 82.5597 118.311C81.9431 137.887 81.9119 157.688 80.1617 177.127C80.1119 177.663 103.756 176.068 105.799 175.47C106.066 162.982 105.35 152.848 105.176 140.273C105.014 128.725 105.524 117.158 105.176 105.698C105.051 101.587 105.151 94.6171 105.225 90.4752C105.3 86.221 105.194 81.9731 105.082 77.719C105.082 77.5509 105.076 77.3765 105.07 77.2083C104.989 74.0442 104.908 70.8801 104.827 67.7159C104.777 65.8723 104.727 64.0037 104.185 62.2473C101.987 55.1155 95.3407 52.157 88.6699 50.5874C87.8789 56.0747 87.0879 61.5683 86.2968 67.0557C83.9798 83.1192 83.1639 99.5253 82.6407 115.751Z" fill="white"/>
<path d="M81.7189 177.769C80.0684 177.769 79.9251 177.644 79.8255 177.569C79.6884 177.457 79.6075 177.264 79.6199 177.083C80.9217 162.627 81.2767 147.734 81.6193 133.328C81.7376 128.395 81.856 123.293 82.0179 118.292L82.0989 115.732C82.5972 100.136 83.3882 83.4369 85.7613 66.981L88.1344 50.5126C88.1593 50.3631 88.2402 50.2323 88.3648 50.1451C88.4894 50.0579 88.6451 50.033 88.7884 50.0642C94.4377 51.3971 102.23 54.0941 104.696 62.0915C105.263 63.9352 105.313 65.8536 105.363 67.7035L105.618 77.7066C105.718 81.643 105.836 86.1027 105.761 90.4814C105.68 95.1092 105.593 101.718 105.711 105.679C105.911 112.132 105.836 118.728 105.761 125.106C105.705 130.076 105.643 135.215 105.711 140.26C105.774 144.907 105.917 149.248 106.048 153.44C106.284 160.715 106.502 167.591 106.334 175.476C106.334 175.713 106.172 175.912 105.948 175.981C104.684 176.348 96.8855 176.946 92.4757 177.239C86.4651 177.638 83.3508 177.756 81.7189 177.756V177.769ZM80.7348 176.697C83.7744 176.853 101.968 175.62 105.269 175.04C105.419 167.361 105.201 160.615 104.976 153.483C104.839 149.279 104.702 144.938 104.64 140.285C104.572 135.221 104.628 130.076 104.69 125.1C104.765 118.734 104.839 112.151 104.64 105.716C104.516 101.736 104.609 95.1092 104.69 90.4689C104.765 86.1151 104.653 81.6617 104.547 77.7377L104.291 67.7346C104.248 65.9533 104.198 64.1158 103.675 62.4092C101.962 56.8533 97.3277 53.2968 89.1185 51.2476L86.8326 67.1305C84.4657 83.5365 83.6809 100.198 83.1827 115.763L83.1017 118.323C82.946 123.318 82.8214 128.42 82.7031 133.346C82.3605 147.604 82.0117 162.347 80.741 176.691L80.7348 176.697Z" fill="#B3B3B3"/>
<path d="M84.5903 31.7708C84.5467 32.076 84.5155 32.3812 84.5342 32.6615C84.609 33.7141 84.9204 34.7356 84.9391 35.8007C84.964 37.1149 84.3848 38.0928 84.964 39.4382C85.1197 39.8057 85.3315 40.1545 85.3875 40.5469C85.5308 41.531 84.6962 42.3781 84.4719 43.3497C84.0733 45.0315 85.5059 46.5388 86.8139 47.6724C88.807 49.4101 90.8438 51.1666 93.2729 52.2068C94.8114 52.867 96.4931 53.2283 97.8696 54.175C98.5548 54.6422 99.1402 55.2463 99.8565 55.6636C100.573 56.081 101.495 56.2803 102.223 55.8879C103.488 55.2027 103.345 53.3092 102.678 52.0324C102.012 50.7555 100.978 49.5534 101.009 48.1146C101.046 46.2896 102.828 44.7325 102.535 42.9262C102.068 40.0424 97.035 39.7309 96.7111 36.8284C96.5865 35.726 97.253 34.7107 97.5333 33.6394C98.0253 31.802 97.2841 29.6967 95.7519 28.5693C93.9581 27.2489 93.4286 27.0247 93.3975 24.8571C93.3726 23.0633 92.8992 21.0141 91.3981 19.8743C90.495 19.1891 89.3365 18.9275 88.4146 18.2673C87.3745 17.5199 86.7329 16.3427 85.8049 15.4582C84.4719 14.1938 82.5286 13.6145 80.7286 13.9384C79.4268 14.1689 78.1998 14.8416 76.8793 14.8229C75.9139 14.8104 74.9609 14.4243 73.9955 14.5364C72.5505 14.7045 71.4854 15.9316 70.5698 17.0652C69.5172 18.3794 68.4645 19.6936 67.4119 21.0016C66.9198 21.612 66.4278 22.2287 66.0977 22.9387C65.3814 24.471 65.5122 26.5762 66.6209 27.8904C66.6146 27.878 68.4708 24.5083 68.6576 24.2093C69.3739 23.082 70.3518 21.9858 71.7657 21.8363C72.6439 21.7428 73.6093 22.1352 74.0266 22.9138C76.4807 21.693 79.9375 22.4031 80.9902 25.125C81.3141 25.9534 81.3701 26.9063 81.9245 27.6101C82.7217 28.6192 84.4034 28.9244 84.6775 30.1826C84.7771 30.6372 84.665 31.1978 84.5903 31.7521V31.7708Z" fill="#224289"/>
<path d="M101.333 56.6291C100.772 56.6291 100.168 56.4609 99.5887 56.1246C99.134 55.863 98.7354 55.5391 98.3492 55.2214C98.0814 55.0034 97.8323 54.7979 97.5644 54.611C96.7049 54.0193 95.7083 53.6643 94.6557 53.2968C94.1325 53.1099 93.5844 52.9168 93.0549 52.6926C90.5261 51.6088 88.4583 49.8088 86.4589 48.071C85.0512 46.844 83.4941 45.1872 83.955 43.2314C84.0609 42.7954 84.254 42.403 84.4471 42.0293C84.7087 41.5123 84.9329 41.0639 84.8644 40.6279C84.8332 40.4161 84.7273 40.1856 84.6152 39.949C84.5654 39.8493 84.5218 39.7496 84.4782 39.65C84.0422 38.641 84.173 37.8126 84.2976 37.0153C84.3599 36.6104 84.4221 36.2305 84.4097 35.8194C84.3972 35.2775 84.3038 34.7356 84.2041 34.1688C84.1232 33.6955 84.036 33.2034 83.9986 32.7051C83.9737 32.3688 84.0111 32.0262 84.0609 31.7023L84.092 31.4719C84.1543 31.0546 84.2228 30.6248 84.1543 30.3196C84.0422 29.7902 83.5065 29.46 82.8961 29.0739C82.3979 28.7624 81.8809 28.4386 81.5009 27.959C81.0712 27.4171 80.9092 26.788 80.7473 26.1776C80.6663 25.8848 80.5978 25.6046 80.4919 25.343C80.0123 24.0972 79.0344 23.4993 78.3057 23.219C77.0351 22.727 75.4841 22.8017 74.2509 23.4121C73.9955 23.5367 73.6903 23.437 73.5533 23.1879C73.2605 22.6398 72.5443 22.3096 71.8093 22.3844C70.8127 22.4903 69.9469 23.163 69.0874 24.5146C68.9255 24.7762 67.2375 27.8219 67.088 28.1209C67.0569 28.1894 67.0133 28.2579 66.951 28.3078C66.733 28.4946 66.4029 28.4697 66.216 28.2579C66.1849 28.2268 66.16 28.1956 66.1413 28.1645C65.0201 26.7631 64.7897 24.4959 65.6119 22.7394C65.9731 21.9671 66.4901 21.3193 66.9946 20.6902L70.1525 16.7538C71.174 15.4769 72.3076 14.2187 73.9208 14.0319C74.5436 13.9571 75.1416 14.0692 75.7146 14.1689C76.1132 14.2436 76.4932 14.3122 76.8669 14.3122C77.552 14.3246 78.2932 14.0942 79.0469 13.8575C79.5514 13.6955 80.0746 13.5336 80.6165 13.4339C82.5785 13.0789 84.7024 13.7142 86.1475 15.0907C86.5585 15.4769 86.9073 15.9191 87.2499 16.3364C87.7108 16.9095 88.1531 17.4576 88.7012 17.85C89.106 18.1427 89.5732 18.3483 90.0652 18.5725C90.6133 18.8216 91.1864 19.077 91.6971 19.4632C93.0861 20.5096 93.8709 22.428 93.9083 24.8571C93.9332 26.6074 94.201 26.8004 95.6896 27.8904L96.0509 28.152C97.7637 29.4102 98.5735 31.7272 98.0253 33.7827C97.9257 34.1626 97.7824 34.5239 97.6454 34.8727C97.39 35.5329 97.1471 36.162 97.2156 36.7724C97.3464 37.9807 98.5672 38.697 99.8565 39.4569C101.283 40.2978 102.765 41.1698 103.033 42.8452C103.214 43.9851 102.722 44.9816 102.248 45.9408C101.881 46.6883 101.526 47.3983 101.513 48.1208C101.495 49.0427 102.012 49.896 102.554 50.7929C102.753 51.123 102.952 51.4469 103.127 51.777C103.967 53.384 103.949 55.5328 102.46 56.3363C102.124 56.517 101.731 56.6104 101.326 56.6104L101.333 56.6291ZM85.1073 31.8456C85.0699 32.1134 85.0388 32.3875 85.0575 32.6242C85.0886 33.0726 85.1633 33.5148 85.2443 33.982C85.344 34.5675 85.4499 35.1654 85.4623 35.7945C85.4685 36.299 85.4 36.7412 85.3377 37.171C85.2256 37.8811 85.1322 38.4977 85.4436 39.2327C85.481 39.3199 85.5246 39.4071 85.5682 39.5005C85.7052 39.787 85.8547 40.1047 85.9108 40.4784C86.0229 41.2445 85.6865 41.9172 85.3876 42.5027C85.2194 42.839 85.0575 43.1629 84.9827 43.4806C84.6464 44.8882 85.9668 46.2523 87.1565 47.2862C89.0998 48.9742 91.1054 50.7182 93.4785 51.7397C93.9768 51.9514 94.5 52.1383 95.0107 52.3189C96.082 52.6988 97.1907 53.085 98.1624 53.7577C98.4613 53.9632 98.7479 54.1937 99.0157 54.4179C99.3832 54.7169 99.732 55.0034 100.112 55.2214C100.641 55.5266 101.401 55.7446 101.968 55.4394C102.971 54.8975 102.703 53.2407 102.205 52.2878C102.043 51.9763 101.856 51.6649 101.669 51.3597C101.071 50.3694 100.448 49.3479 100.473 48.1208C100.492 47.1616 100.915 46.3146 101.32 45.4986C101.744 44.6453 102.142 43.8418 102.012 43.0321C101.819 41.8487 100.616 41.1324 99.3396 40.385C97.8821 39.5254 96.381 38.641 96.1879 36.9094C96.0945 36.0436 96.3935 35.2651 96.6862 34.5114C96.817 34.1688 96.9416 33.8512 97.0288 33.5273C97.4585 31.9079 96.7921 30.0082 95.4467 29.0116L95.0917 28.75C93.5532 27.6226 92.9117 27.1617 92.8805 24.8883C92.8619 23.6737 92.6065 21.4626 91.0867 20.3165C90.6694 19.9988 90.1773 19.7808 89.6541 19.5442C89.1372 19.3137 88.6015 19.0708 88.1095 18.7158C87.443 18.2362 86.9385 17.6133 86.4527 17.0091C86.1225 16.598 85.8049 16.2056 85.4436 15.8631C84.2353 14.717 82.4601 14.1814 80.8158 14.4803C80.3424 14.5675 79.8753 14.7108 79.3832 14.8727C78.586 15.1281 77.7576 15.3897 76.8731 15.3772C76.4122 15.371 75.9762 15.29 75.5464 15.2153C75.0232 15.1219 74.5312 15.0347 74.0578 15.0845C72.837 15.2278 71.8716 16.3178 70.9809 17.4202L67.823 21.3567C67.3621 21.9359 66.8825 22.5339 66.5773 23.1879C66.0292 24.3651 66.0541 25.8039 66.5835 26.8939C66.7205 26.6385 66.8949 26.3208 67.1129 25.9347C67.4057 25.4052 68.0971 24.1595 68.2216 23.9602C69.2493 22.3408 70.3954 21.4875 71.7159 21.3504C72.6937 21.2508 73.6405 21.6183 74.2135 22.2972C75.6399 21.7242 77.278 21.6992 78.6981 22.2474C80.0123 22.7581 81.0027 23.7235 81.4885 24.9692C81.6131 25.2807 81.694 25.6046 81.775 25.916C81.9183 26.4454 82.0491 26.9437 82.3418 27.3174C82.6096 27.6538 83.0269 27.9154 83.4692 28.1894C84.1855 28.6316 84.9889 29.1362 85.2007 30.1016C85.3066 30.5874 85.2256 31.1168 85.1509 31.6338L85.1197 31.858L85.1073 31.8456Z" fill="#143166"/>
<path d="M83.9048 33.3093C84.3035 32.836 84.8765 32.8796 85.4931 32.9045C87.9783 33.0041 88.2462 35.9814 86.4461 37.3579C85.5492 38.0431 83.9983 37.7192 83.2695 36.8596" fill="#EDCBB9"/>
<path d="M85.2564 38.2673C84.3408 38.2673 83.4065 37.8437 82.8646 37.2022C82.6715 36.978 82.7027 36.6354 82.9269 36.4485C83.1511 36.2554 83.4937 36.2866 83.6806 36.5108C84.266 37.1959 85.4993 37.4077 86.1284 36.9281C86.9942 36.2679 87.2184 35.2028 86.9942 34.4928C86.7886 33.845 86.253 33.4713 85.4806 33.4401H85.4059C84.7892 33.409 84.5152 33.4214 84.3221 33.6581C84.129 33.8824 83.7927 33.9135 83.5684 33.7204C83.3442 33.5273 83.3131 33.191 83.5062 32.9668C84.0605 32.3128 84.8328 32.3439 85.4557 32.3688H85.5304C86.7512 32.4186 87.6855 33.0975 88.0281 34.1751C88.4267 35.4395 87.916 36.9219 86.7886 37.7877C86.3464 38.124 85.8107 38.2735 85.2688 38.2735L85.2564 38.2673Z" fill="#CCA28F"/>
<path d="M74.1635 50.7804C74.5933 51.4407 74.8362 52.1258 74.5248 52.8359C74.313 53.3279 73.8708 53.6767 73.4472 54.0068C73.1669 54.2248 72.8867 54.4428 72.5503 54.555C71.8839 54.7792 71.1302 54.53 70.6008 54.0691C70.0713 53.6082 69.7288 52.9667 69.4547 52.3251C69.1682 51.6524 68.7696 51.042 68.564 50.332C68.5453 50.2697 68.5267 50.2012 68.5453 50.1389C68.564 50.0704 68.6201 50.0143 68.6699 49.9645C69.8409 48.8745 71.1489 47.7658 72.4818 46.8689C72.4008 46.925 72.6064 48.1707 72.65 48.37C72.8742 49.4226 73.5905 49.9334 74.1511 50.7804H74.1635Z" fill="#D87355"/>
<path d="M72.0334 55.1591C71.423 55.1591 70.7814 54.9162 70.2582 54.4615C69.6105 53.901 69.2367 53.1349 68.9751 52.5245C68.8755 52.2815 68.7571 52.0511 68.6388 51.8206C68.427 51.3971 68.2028 50.9673 68.0658 50.469C68.0409 50.3818 67.991 50.2074 68.0409 50.0081C68.0969 49.7839 68.2464 49.6406 68.3211 49.5721C69.735 48.2579 71.0057 47.2302 72.2015 46.4267C72.4445 46.2647 72.7683 46.327 72.9303 46.5699C73.0175 46.7007 73.0362 46.8565 72.9988 46.9997C73.005 47.2426 73.1296 48.0399 73.1732 48.2579C73.2978 48.8558 73.6279 49.2545 74.0141 49.7216C74.2071 49.9583 74.4127 50.2012 74.5995 50.4877C74.9857 51.0857 75.4529 52.0013 75.0044 53.0352C74.7303 53.6643 74.2009 54.0754 73.7711 54.4117C73.4784 54.6422 73.1421 54.9038 72.7185 55.0408C72.4943 55.1155 72.2638 55.1529 72.0271 55.1529L72.0334 55.1591ZM69.1059 50.2822C69.2243 50.6559 69.3987 50.9922 69.5793 51.3473C69.7101 51.5964 69.8347 51.8518 69.9468 52.1134C70.1586 52.6179 70.47 53.247 70.9496 53.6705C71.3918 54.0505 71.9524 54.2062 72.3884 54.0567C72.6438 53.9695 72.8805 53.7889 73.1296 53.5895C73.4784 53.3155 73.877 53.0041 74.0452 52.6241C74.2383 52.1757 74.1449 51.7085 73.7275 51.067C73.5656 50.8241 73.385 50.6061 73.2043 50.3881C72.7746 49.8649 72.3261 49.323 72.1455 48.4759C72.0957 48.233 72.0521 48.0212 72.0209 47.8343C71.1115 48.5008 70.1461 49.3105 69.0997 50.2822H69.1059Z" fill="#B25039"/>
<path d="M60.6103 50.4753C60.33 50.5562 60.1307 50.6123 60.0559 50.6497C58.3742 51.3971 56.7548 52.5681 55.9264 54.2373C53.9457 58.2236 52.9554 62.2535 52.7062 66.6945C52.0584 78.0741 50.2584 93.1659 50.1151 105.013C49.9719 117.445 48.7262 130.008 47.6175 144.172C46.814 154.418 45.9482 161.948 45.7427 170.438C47.2375 170.948 61.993 174.623 62.0055 174.872C61.6255 168.5 61.7688 162.104 61.9183 155.726C62.3418 137.152 62.7591 118.585 63.1827 100.011C63.5626 83.1753 64.092 66.3768 66.0167 49.6344C64.2228 49.8213 62.4166 49.977 60.604 50.4815L60.6103 50.4753Z" fill="white"/>
<path d="M62.0114 175.408C61.8931 175.408 61.781 175.371 61.6875 175.302C61.0149 175.022 55.9074 173.689 52.1578 172.711C48.9626 171.876 46.1971 171.16 45.568 170.942C45.3438 170.867 45.2005 170.656 45.2067 170.419C45.3562 164.321 45.8358 158.747 46.3964 152.281C46.6206 149.721 46.8511 147.031 47.0815 144.122C47.2995 141.363 47.5175 138.666 47.7355 136.012C48.62 125.199 49.4609 114.991 49.5792 105C49.6664 97.6131 50.3951 89.0426 51.0927 80.7586C51.5225 75.7134 51.9211 70.9486 52.1703 66.6509C52.4319 61.9794 53.4783 57.9558 55.4465 53.9882C56.4431 51.9826 58.3864 50.7929 59.8377 50.1514C59.875 50.1327 59.9871 50.0829 60.4667 49.9521C62.1858 49.4787 63.9049 49.3043 65.5679 49.1299L65.9666 49.0863C66.1285 49.0738 66.2905 49.1299 66.4026 49.242C66.5147 49.3604 66.5707 49.5161 66.552 49.678C64.6087 66.545 64.0855 83.7919 63.7181 100.005L62.4536 155.719C62.3104 161.985 62.1671 168.463 62.5409 174.822C62.5595 175.115 62.3353 175.371 62.0363 175.389C62.0239 175.389 62.0114 175.389 62.0052 175.389L62.0114 175.408ZM46.2905 170.039C47.312 170.338 49.8097 170.986 52.4319 171.671C57.7137 173.047 60.23 173.701 61.4322 174.094C61.1083 167.952 61.2515 161.73 61.3886 155.713L62.653 99.9986C63.0142 83.9663 63.5312 66.9312 65.4185 50.2324C63.88 50.3881 62.2979 50.5625 60.7595 50.9922C60.5228 51.0608 60.3484 51.1106 60.2799 51.1417C58.9906 51.7148 57.2715 52.7549 56.4182 54.474C54.5122 58.3046 53.5094 62.1974 53.2541 66.7194C53.0111 71.0296 52.6063 75.8006 52.1765 80.852C51.4789 89.1173 50.7502 97.6629 50.663 105.013C50.5446 115.041 49.7038 125.274 48.8193 136.106C48.6013 138.753 48.3833 141.45 48.1653 144.209C47.9349 147.124 47.7044 149.821 47.4802 152.381C46.9321 158.678 46.4649 164.14 46.303 170.045L46.2905 170.039Z" fill="#B3B3B3"/>
<path d="M52.7247 72.5742L51.8028 77.1585C51.672 81.0638 51.3668 84.1718 51.3668 84.1718C50.8436 90.4191 50.3578 96.766 50.1959 102.509C47.9162 92.0323 47.2497 97.5695 44.123 86.2771C43.7555 84.9379 43.1763 80.9267 43.0455 79.6686C42.9271 78.5163 43.3257 75.6885 43.7929 74.6297C47.4864 66.3083 52.2762 58.9586 57.4335 52.294" fill="white"/>
<path d="M50.1959 103.051C49.9468 103.051 49.7288 102.876 49.6727 102.627C48.5267 97.3764 47.8104 96.2366 46.9695 94.9099C46.1224 93.5645 45.157 92.0323 43.6061 86.4266C43.2261 85.0563 42.6407 81.0202 42.5161 79.7246C42.3977 78.535 42.7839 75.5889 43.3071 74.4179C46.6207 66.9498 51.1053 59.6126 57.0162 51.9763C57.1968 51.7397 57.5332 51.6961 57.7699 51.8829C58.0065 52.0635 58.0439 52.3999 57.8633 52.6366C52.0022 60.2043 47.5612 67.473 44.285 74.8601C43.8677 75.7944 43.4691 78.5101 43.5812 79.625C43.7057 80.852 44.285 84.8507 44.64 86.1463C46.1473 91.6025 47.0692 93.06 47.8789 94.3431C48.5204 95.3583 49.0935 96.2677 49.8035 98.7155C50.0153 94.3555 50.3703 89.6218 50.8312 84.1345C50.8312 84.0971 51.1427 80.989 51.2672 77.146C51.2672 77.1149 51.2672 77.0899 51.2797 77.0588L52.2015 72.4746C52.2576 72.1818 52.5441 71.995 52.8306 72.0573C53.1233 72.1133 53.3102 72.3998 53.2479 72.6863L52.3385 77.227C52.2077 81.0887 51.9025 84.203 51.8963 84.2341C51.3046 91.3222 50.8811 97.1522 50.7253 102.534C50.7191 102.801 50.5073 103.026 50.2395 103.051C50.2208 103.051 50.2084 103.051 50.1897 103.051H50.1959Z" fill="#B3B3B3"/>
<path d="M11.8468 15.0347C15.0919 9.70927 21.5011 3.91047 28.2093 4.22813C35.3783 4.5707 41.5695 8.68156 45.6181 14.4679C50.0217 20.765 52.482 28.4946 52.0211 36.162C51.2799 48.4697 42.7156 60.6528 29.1685 58.7717C10.3083 56.1557 2.95863 29.6158 11.8468 15.0347Z" fill="white"/>
<path d="M31.8842 59.5005C30.9686 59.5005 30.0343 59.4382 29.0938 59.3074C21.2956 58.2236 14.8553 53.1037 10.9562 44.882C6.2661 34.991 6.4405 22.8827 11.386 14.7544C14.8864 9.01167 21.4576 3.36859 28.2343 3.69247C35.1355 4.02259 41.6319 7.8407 46.0542 14.1627C50.7007 20.8024 53.0115 28.6317 52.5506 36.1932C52.0835 43.9166 48.7076 51.067 43.5067 55.3273C40.1433 58.0804 36.1695 59.5005 31.878 59.5005H31.8842ZM27.6675 4.75133C21.5012 4.75133 15.5467 9.98956 12.3016 15.3088C7.5305 23.1381 7.38102 34.8353 11.9216 44.4149C15.6588 52.3002 21.8126 57.2084 29.2371 58.2361C34.2884 58.9399 38.9848 57.6381 42.834 54.4865C47.8044 50.413 51.0371 43.5491 51.4855 36.1184C51.9278 28.7936 49.6855 21.2072 45.176 14.7669C40.9468 8.72516 34.7556 5.08145 28.1844 4.76379C28.01 4.75756 27.8419 4.75133 27.6675 4.75133Z" fill="#B3B3B3"/>
<path d="M7.40594 15.5828C10.651 10.2574 17.0602 4.45858 23.7746 4.77624C30.9437 5.11881 37.1349 9.22967 41.1835 15.016C45.5871 21.3131 48.0474 29.0428 47.5865 36.7101C46.8453 49.0178 38.281 61.2009 24.7338 59.3198C5.86748 56.7038 -1.476 30.1639 7.40594 15.5828Z" fill="white"/>
<path d="M27.4492 60.0486C26.5336 60.0486 25.5993 59.9863 24.6588 59.8555C16.8606 58.7717 10.4202 53.6518 6.52116 45.4301C1.83104 35.5392 2.00544 23.4308 6.95093 15.3025C10.4452 9.56601 16.9976 3.90424 23.7992 4.24058C30.7005 4.5707 37.1969 8.38881 41.6192 14.7108C46.2657 21.3505 48.5765 29.1736 48.1156 36.7413C47.6484 44.4647 44.2725 51.6151 39.0717 55.8754C35.7082 58.6285 31.7282 60.0486 27.4429 60.0486H27.4492ZM23.2324 5.29944C17.0661 5.29944 11.1054 10.5377 7.86653 15.8569C3.09544 23.6862 2.93973 35.3834 7.48658 44.9692C11.2237 52.8546 17.3776 57.7627 24.802 58.7904C29.8472 59.4942 34.5497 58.1925 38.399 55.0408C43.3694 50.9673 46.602 44.1034 47.0505 36.6728C47.4927 29.348 45.2504 21.7616 40.7409 15.3212C36.5117 9.27327 30.3143 5.62332 23.7494 5.3119C23.575 5.30567 23.4068 5.29944 23.2324 5.29944Z" fill="#B3B3B3"/>
<path d="M18.3745 52.9605C13.3916 49.7528 9.67314 43.8107 8.17828 36.6603C6.72079 29.6843 7.66131 22.5526 10.6884 17.5759C13.5099 12.9481 18.8416 8.38258 23.5878 8.61303C26.5588 8.75629 29.4115 9.69058 32.0586 11.3972C34.3134 12.8485 36.3813 14.8603 38.0256 17.2209C42.1053 23.0571 44.1358 29.8961 43.7434 36.4797C43.3573 42.9075 40.5046 49.0427 36.3003 52.4871C33.1424 55.0782 29.4239 56.0934 25.257 55.5142C22.7905 55.1716 20.4735 54.3121 18.3745 52.9605Z" fill="#557EFF"/>
<path d="M27.4866 56.2118C26.7329 56.2118 25.9668 56.1557 25.182 56.0498C22.6408 55.6948 20.249 54.8104 18.0814 53.4151C12.974 50.1327 9.17459 44.0661 7.65482 36.7724C6.17242 29.6656 7.13162 22.3844 10.2334 17.3019C13.136 12.537 18.6732 7.83447 23.6186 8.07738C26.6893 8.22687 29.623 9.18607 32.3511 10.9425C34.6681 12.4312 36.7858 14.4928 38.4738 16.9095C42.622 22.8453 44.6899 29.8026 44.285 36.5046C43.8926 43.0757 40.959 49.3541 36.6426 52.892C33.9581 55.0906 30.8874 56.1993 27.4866 56.1993V56.2118ZM23.2387 9.14247C18.7853 9.14247 13.8149 13.4713 11.1428 17.8562C8.18425 22.7145 7.26865 29.703 8.70122 36.5482C10.1649 43.5616 13.7962 49.3728 18.6607 52.5058C20.6974 53.8138 22.9397 54.6484 25.3315 54.9785C29.3427 55.5391 32.9241 54.555 35.9637 52.0636C40.0559 48.7064 42.8338 42.7207 43.2137 36.4361C43.5999 29.9708 41.6068 23.2502 37.5956 17.5199C35.9886 15.2216 33.9768 13.2533 31.7718 11.8394C29.2057 10.1889 26.4464 9.2795 23.5688 9.14247C23.4629 9.14247 23.357 9.13624 23.2449 9.13624L23.2387 9.14247Z" fill="#2A5AD3"/>
<path d="M48.6451 105.411L37.1098 57.9371L30.4141 59.5254L42.1549 106.682C42.1549 106.682 45.8235 110.027 48.6451 105.411Z" fill="white"/>
<path d="M45.0761 108.389C43.2573 108.389 41.8621 107.137 41.7936 107.074C41.7189 107 41.6628 106.912 41.6379 106.806L29.8971 59.65C29.8597 59.5129 29.8846 59.3634 29.9593 59.2389C30.0341 59.1143 30.1524 59.0271 30.2957 58.996L36.9914 57.4077C37.2779 57.3392 37.5644 57.5136 37.6392 57.8001L49.1745 105.274C49.2056 105.411 49.1869 105.561 49.1122 105.679C48.153 107.255 46.982 108.146 45.6304 108.339C45.4436 108.364 45.2629 108.376 45.0823 108.376L45.0761 108.389ZM42.6345 106.383C42.9957 106.669 44.1792 107.479 45.4747 107.292C46.4401 107.149 47.3121 106.489 48.072 105.324L36.7173 58.5849L31.068 59.9302L42.6345 106.389V106.383Z" fill="#B3B3B3"/>
<path d="M23.9422 52.2566C23.5561 52.2566 23.1699 52.1445 22.8273 51.9141C13.2914 45.5173 8.72583 33.7952 11.7155 23.3997C13.2353 18.1303 16.5551 14.2686 20.8342 12.8173C21.8868 12.4561 23.0266 13.0229 23.3879 14.0755C23.7429 15.1281 23.1823 16.268 22.1297 16.6292C17.8507 18.0867 16.1254 22.6335 15.5835 24.5208C13.0671 33.2595 16.9725 43.1567 25.0696 48.588C25.9914 49.2046 26.2406 50.4566 25.6177 51.3784C25.2315 51.9577 24.5962 52.2691 23.9485 52.2691L23.9422 52.2566Z" fill="white"/>
<path d="M53.8836 95.0781C52.4136 93.8012 50.7506 92.7423 48.9692 91.9513C48.5332 91.7582 48.0786 91.5776 47.6052 91.5091C46.864 91.4032 46.1103 91.5714 45.3691 91.7146C42.9587 92.1818 40.3925 92.3749 38.1128 91.453C34.4193 89.9582 32.314 85.3677 33.6034 81.5932C33.8712 80.8146 34.5003 79.9426 35.31 80.117C35.8207 80.2229 36.1446 80.7087 36.4685 81.1136C38.2249 83.2998 41.632 83.9351 44.0611 82.5399C43.5255 81.6679 43.1767 80.6838 43.0459 79.6686C43.9552 78.89 45.4439 78.9087 46.3283 79.7059C46.8827 80.2042 47.1816 80.9205 47.5491 81.5683C48.9817 84.1033 51.2115 85.1373 53.8587 85.947C54.9238 86.2709 58.6484 86.7193 57.9944 88.3512C57.0664 90.6682 55.1418 92.923 53.8836 95.0718V95.0781Z" fill="#EDCBB9"/>
<path d="M53.8833 95.6137C53.7525 95.6137 53.6279 95.5701 53.5283 95.4829C52.0957 94.2372 50.4825 93.2095 48.7447 92.4434C48.29 92.244 47.9101 92.1008 47.5239 92.0447C46.926 91.9575 46.3031 92.0821 45.6367 92.2129L45.4685 92.244C43.4878 92.6302 40.5479 93.0226 37.907 91.9575C33.9706 90.3692 31.722 85.4487 33.0923 81.4312C33.4598 80.3537 34.3194 79.3758 35.4156 79.6C36.0571 79.7371 36.4495 80.2416 36.7672 80.6464L36.8793 80.7897C38.3679 82.6334 41.1521 83.2687 43.3134 82.3282C42.8961 81.5247 42.622 80.6402 42.5099 79.7495C42.485 79.5689 42.5535 79.3945 42.6906 79.2762C43.8055 78.3232 45.5931 78.3419 46.6831 79.3198C47.1876 79.7744 47.4928 80.3475 47.7855 80.9018C47.8603 81.0451 47.935 81.1821 48.0098 81.3191C49.3115 83.6237 51.3483 84.639 54.0079 85.4487C54.1885 85.5047 54.4563 85.5608 54.7615 85.6293C56.0882 85.9283 57.9007 86.3331 58.4426 87.3608C58.6357 87.7283 58.6544 88.1456 58.4862 88.563C57.8696 90.0952 56.8543 91.5838 55.8702 93.0164C55.3159 93.8261 54.7864 94.5922 54.338 95.3583C54.257 95.4954 54.12 95.5888 53.9643 95.6137C53.9331 95.6137 53.9082 95.6199 53.8771 95.6199L53.8833 95.6137ZM47.1066 90.9423C47.2935 90.9423 47.4866 90.9547 47.6796 90.9796C48.2215 91.0606 48.7198 91.2599 49.1807 91.4592C50.8251 92.188 52.3573 93.1285 53.7463 94.2621C54.1324 93.6392 54.5684 93.0164 54.9858 92.3998C55.9387 91.0108 56.9228 89.5782 57.4896 88.1519C57.5519 87.9962 57.527 87.9152 57.4896 87.8467C57.1782 87.255 55.3844 86.8563 54.5248 86.6632C54.1885 86.5885 53.8958 86.52 53.6964 86.4577C50.7939 85.5732 48.5579 84.4459 47.0755 81.8299C46.9945 81.6866 46.9135 81.5371 46.8326 81.3876C46.571 80.8956 46.3218 80.4284 45.9606 80.1046C45.3377 79.544 44.3224 79.4755 43.6124 79.9115C43.7556 80.7399 44.0608 81.5496 44.5031 82.2659C44.5778 82.3904 44.6027 82.5399 44.5654 82.677C44.528 82.8202 44.4408 82.9386 44.31 83.0133C41.6628 84.5331 37.9444 83.8355 36.0322 81.4562L35.9139 81.3067C35.671 80.9952 35.4405 80.7025 35.1789 80.6464C34.7491 80.553 34.3007 81.1572 34.0889 81.7738C32.893 85.2805 34.855 89.572 38.2932 90.961C40.6663 91.9202 43.4006 91.5527 45.2443 91.1914L45.4124 91.1603C45.9543 91.0544 46.5149 90.9423 47.0879 90.9423H47.1066Z" fill="#CCA28F"/>
<path d="M83.9301 87.1927C84.3847 86.2335 84.7834 85.2494 85.3066 84.3213C86.2782 82.596 87.2125 80.852 88.1094 79.0955C89.8846 75.62 91.1863 73.7639 92.6812 70.1575C93.1919 68.918 94.419 66.6882 95.1975 65.1622C93.6902 63.5303 92.2701 61.8112 90.9434 60.0236C91.9089 59.7745 92.8556 59.4755 93.7837 59.1143C93.466 57.0339 93.1421 54.9474 92.8245 52.867C92.7809 52.593 92.7372 52.3127 92.6065 52.0635C92.4196 51.7147 92.077 51.4843 91.7407 51.2663C90.7005 50.5811 89.6541 49.896 88.6139 49.2108C88.3586 51.3722 88.0907 53.5397 87.8105 55.701C87.0755 61.4002 86.2782 67.0868 85.4374 72.7735C85.0201 75.6138 84.5903 78.454 84.1605 81.2942C83.9425 82.7143 83.7245 84.1282 83.5127 85.5483C83.4006 86.2771 83.3321 87.0307 83.1702 87.7532C83.1079 88.0335 83.0331 88.8308 82.9023 89.0239C83.301 88.4384 83.6249 87.8218 83.9301 87.1865V87.1927Z" fill="white"/>
<path d="M82.9021 89.5658C82.7962 89.5658 82.6966 89.5346 82.6032 89.4723C82.3602 89.3104 82.2917 88.9803 82.4537 88.7311C82.4786 88.6564 82.5409 88.2453 82.572 88.0522C82.5969 87.8841 82.6218 87.7346 82.6405 87.6411C82.7402 87.1802 82.8087 86.6882 82.871 86.2148C82.9021 85.9656 82.9395 85.7165 82.9769 85.4674L83.6246 81.2133C84.0544 78.373 84.4842 75.5328 84.9015 72.6926C85.8296 66.383 86.6081 60.8022 87.2746 55.6263C87.5549 53.465 87.8227 51.3037 88.0781 49.1423C88.0968 48.9555 88.2151 48.7998 88.3833 48.7188C88.5514 48.6441 88.7508 48.6565 88.9065 48.7562L92.0332 50.8116C92.382 51.0421 92.818 51.3286 93.0734 51.8019C93.254 52.1321 93.3101 52.4871 93.3537 52.7798L94.3129 59.0271C94.3502 59.2762 94.2132 59.5191 93.9765 59.6063C93.2789 59.8742 92.5626 60.1171 91.8464 60.3289C93.0236 61.8735 94.2755 63.3746 95.5897 64.7947C95.7454 64.9629 95.7766 65.1996 95.6707 65.4051C95.4527 65.8287 95.2036 66.3083 94.942 66.8066C94.2817 68.0647 93.5405 69.4849 93.1793 70.3569C92.2014 72.7175 91.2858 74.3681 90.3141 76.1245C89.7722 77.1024 89.2117 78.1114 88.5888 79.3322C87.6919 81.0887 86.7452 82.8576 85.7797 84.5767C85.4309 85.1933 85.132 85.8598 84.8454 86.5013C84.7084 86.8065 84.5652 87.1179 84.4219 87.4231C84.1665 87.9588 83.8177 88.6564 83.3506 89.3291C83.2447 89.4786 83.0765 89.5595 82.9084 89.5595L82.9021 89.5658ZM89.0435 50.1389C88.8193 52.0199 88.5826 53.8947 88.3397 55.7695C87.6732 60.9517 86.8946 66.5387 85.9666 72.8545C85.5493 75.6947 85.1195 78.535 84.6897 81.3814L84.0357 85.6355V85.6854C84.2724 85.1435 84.534 84.5954 84.833 84.0597C85.7922 82.3469 86.7327 80.5966 87.6234 78.8526C88.2525 77.6194 88.8193 76.5979 89.3612 75.6138C90.3577 73.8137 91.2173 72.2628 92.1702 69.9582C92.5502 69.0426 93.3101 67.5976 93.9765 66.3207C94.1696 65.9533 94.3565 65.592 94.5309 65.2557C93.1108 63.6985 91.7529 62.0479 90.4948 60.3475C90.3889 60.2043 90.364 60.0174 90.42 59.8493C90.4823 59.6811 90.6193 59.5565 90.7937 59.5067C91.5972 59.3011 92.3945 59.052 93.173 58.7655L92.2824 52.948C92.245 52.7238 92.2138 52.4871 92.1204 52.3189C91.9896 52.0822 91.6969 51.8891 91.4353 51.7147L89.031 50.1327L89.0435 50.1389Z" fill="#B3B3B3"/>
<path d="M62.5723 86.2895C62.3543 85.2556 62.1923 84.203 61.8996 83.1752C61.3515 81.2755 60.847 79.3634 60.3798 77.445C59.458 73.658 58.6171 71.5465 57.9943 67.6972C57.7825 66.3706 57.1036 63.9165 56.6987 62.2597C58.5424 61.0202 60.3238 59.6748 62.0179 58.2423C61.1397 57.7814 60.2864 57.2644 59.4642 56.7038C60.2552 54.748 61.0463 52.7985 61.8373 50.8427C61.9432 50.5874 62.0491 50.3195 62.2359 50.114C62.4975 49.8212 62.8899 49.6718 63.2574 49.541C64.4284 49.1174 65.5994 48.6876 66.7766 48.2641C66.5274 50.4316 66.2907 52.593 66.0603 54.7605C65.4623 60.4721 64.9267 66.1962 64.4284 71.9202C64.1792 74.7791 63.9426 77.6443 63.7059 80.5094C63.5875 81.942 63.4754 83.3683 63.3571 84.8009C63.2948 85.5359 63.1889 86.2895 63.1764 87.0245C63.1764 87.311 63.0643 88.1083 63.1391 88.32C62.8837 87.6598 62.7093 86.9809 62.566 86.2958L62.5723 86.2895Z" fill="white"/>
<path d="M63.1642 88.8619C62.9462 88.8619 62.7344 88.7187 62.6472 88.5069C62.3482 87.7408 62.1738 86.9809 62.0492 86.4016C61.9807 86.0715 61.9122 85.7414 61.8499 85.4113C61.7191 84.7199 61.5759 84.0036 61.3828 83.3247C60.8409 81.4375 60.3302 79.5004 59.8568 77.5695C59.5329 76.2366 59.2215 75.1279 58.9163 74.0504C58.3744 72.1195 57.8699 70.3008 57.4588 67.7844C57.3093 66.8502 56.9107 65.293 56.5556 63.9165C56.4186 63.3746 56.2816 62.8452 56.1695 62.3843C56.1134 62.1663 56.2068 61.9358 56.3937 61.8112C58.0007 60.7337 59.564 59.5627 61.0651 58.3295C60.4111 57.962 59.7758 57.5634 59.1592 57.1398C58.9537 56.9966 58.8727 56.7287 58.9661 56.4983L61.3392 50.6372C61.4575 50.3507 61.5883 50.033 61.8312 49.7527C62.1925 49.3479 62.6783 49.1735 63.0707 49.0302L66.5836 47.7534C66.758 47.6911 66.9511 47.7222 67.1006 47.8343C67.2501 47.9464 67.3249 48.1333 67.2999 48.3139C67.0508 50.4752 66.8141 52.6428 66.5836 54.8103C66.0418 59.9863 65.5061 65.592 64.9518 71.9576C64.7026 74.8165 64.4659 77.6816 64.2292 80.5406C64.1109 81.9669 63.9988 83.3995 63.8804 84.832C63.8618 85.0812 63.8368 85.3241 63.8119 85.5732C63.7621 86.0528 63.7123 86.5511 63.706 87.0245C63.706 87.1242 63.6936 87.2736 63.6811 87.4418C63.6624 87.6411 63.6313 88.0522 63.65 88.1643C63.7496 88.4384 63.6064 88.7311 63.3261 88.8308C63.27 88.8557 63.2078 88.8619 63.1455 88.8619H63.1642ZM57.3093 62.4902C57.4027 62.8514 57.5024 63.2438 57.6021 63.6487C57.9571 65.0439 58.3619 66.6259 58.5239 67.61C58.9225 70.0703 59.4021 71.777 59.9564 73.7576C60.2616 74.8414 60.5731 75.9688 60.9032 77.3142C61.3703 79.2326 61.8811 81.151 62.4167 83.0258C62.5849 83.6112 62.7095 84.2092 62.8278 84.7947C62.8278 84.776 62.8278 84.7573 62.8278 84.7448C62.9399 83.3123 63.0583 81.8859 63.1766 80.4534C63.4133 77.5882 63.65 74.7293 63.8991 71.8642C64.4535 65.4923 64.9829 59.8742 65.531 54.692C65.7303 52.811 65.9359 50.9299 66.1476 49.0489L63.4444 50.033C63.1517 50.1389 62.8216 50.2635 62.641 50.4628C62.5164 50.5998 62.4292 50.8116 62.342 51.0358L60.1308 56.492C60.8222 56.953 61.5447 57.3765 62.2735 57.7564C62.4292 57.8374 62.5351 57.9931 62.56 58.1738C62.5849 58.3544 62.5102 58.5288 62.3731 58.6409C60.7599 60.005 59.0595 61.2943 57.3155 62.4839L57.3093 62.4902Z" fill="#B3B3B3"/>
<path d="M95.8016 63.0071C91.0866 71.3597 86.465 80.3475 82.1423 88.8619C71.8216 86.819 61.5008 84.7698 51.1801 82.7268C50.4576 82.5835 48.1032 92.5243 48.0347 93.4711C60.8967 97.775 73.9082 101.618 87.0442 105C92.5939 98.6034 98.7041 93.0039 103.083 85.7165" fill="white"/>
<path d="M87.0503 105.523C87.0067 105.523 86.9631 105.523 86.9195 105.505C73.8333 102.135 60.691 98.2546 47.8726 93.9631C47.6421 93.8884 47.4927 93.6579 47.5113 93.415C47.5487 92.9105 49.654 83.1628 50.7689 82.3157C50.9246 82.1974 51.1177 82.1475 51.2921 82.1849L81.8557 88.2453C85.8607 80.3537 90.5259 71.2662 95.3405 62.7331C95.4838 62.4777 95.8139 62.3843 96.0693 62.5275C96.3247 62.6708 96.4181 63.0009 96.2748 63.2563C91.3916 71.9015 86.6704 81.126 82.628 89.0862C82.5221 89.2979 82.2792 89.4163 82.0488 89.3727L51.3481 83.2874C50.6505 84.5019 48.9813 91.1665 48.6449 93.0849C61.2017 97.2767 74.0575 101.07 86.8759 104.377C88.3895 102.646 89.9528 100.952 91.4664 99.3135C95.6146 94.8289 99.5324 90.5935 102.647 85.4175C102.796 85.1622 103.126 85.0812 103.382 85.2369C103.637 85.3926 103.718 85.7165 103.562 85.9719C100.392 91.2412 96.2561 95.7134 92.2512 100.042C90.6691 101.755 89.031 103.524 87.4676 105.33C87.3617 105.449 87.2185 105.517 87.0628 105.517L87.0503 105.523Z" fill="#B3B3B3"/>
</g>
</svg>
