<svg width="126" height="37" viewBox="0 0 126 37" fill="none" xmlns="http://www.w3.org/2000/svg">
<path d="M54.0955 7.46016L41.0083 7.47901C40.3668 4.49173 38.3733 0.518114 33.8482 0.1129C32.9125 -0.0410191 28.7441 -0.314303 24.6477 5.85187C24.0906 6.69057 23.3427 7.88109 22.4664 9.30719C17.256 6.27593 10.5433 3.66245 2.15961 1.38509L0.0128238 0.800822L0.000306087 3.03421C-0.0309882 8.61613 2.3286 19.1077 11.1129 21.7149L12.8873 18.6271C5.78661 17.1288 4.0091 9.31347 3.56785 5.34614C10.5715 7.37849 16.2389 9.65586 20.6858 12.2348C15.5097 20.8323 8.13055 33.6232 7.72373 34.3268L6.39998 36.6199L9.0287 36.8932C9.1883 36.9089 10.124 37 11.5479 37C16.6895 37 28.187 35.8221 32.3586 25.7388C34.0516 21.6458 32.4149 16.8429 28.0869 13.2054C27.2419 12.4955 26.3344 11.8044 25.3612 11.1322C26.2218 9.72811 26.9572 8.56273 27.4954 7.7523C30.4058 3.36718 32.9281 3.45828 33.2692 3.49597L33.4914 3.52424C37.3844 3.82894 37.8069 9.08731 37.8225 9.30719L37.9289 10.9155L54.0987 10.8935V7.46016H54.0955ZM25.8932 15.844C29.0789 18.5235 30.3182 21.7306 29.201 24.4289C25.9902 32.194 16.7834 33.4347 12.1362 33.5478C14.6022 29.2915 19.7251 20.4836 23.5805 14.0755C24.4036 14.6504 25.1734 15.2409 25.8932 15.844Z" fill="#3CA7DF"/>
<path d="M65.593 10.9437C66.5246 10.9437 67.2798 10.1857 67.2798 9.25063C67.2798 8.31555 66.5246 7.55752 65.593 7.55752C64.6614 7.55752 63.9062 8.31555 63.9062 9.25063C63.9062 10.1857 64.6614 10.9437 65.593 10.9437Z" fill="#2F72B9"/>
<path d="M59.3122 10.9437C60.2438 10.9437 60.999 10.1857 60.999 9.25063C60.999 8.31555 60.2438 7.55752 59.3122 7.55752C58.3807 7.55752 57.6255 8.31555 57.6255 9.25063C57.6255 10.1857 58.3807 10.9437 59.3122 10.9437Z" fill="#2F72B9"/>
<path d="M37.9067 17.0815H43.0859C46.9351 17.0815 48.5969 19.8897 48.5969 23.3513C48.5969 26.8129 46.9351 29.618 43.0859 29.618H37.9067V17.0815ZM40.0942 27.8276H42.2473C45.674 27.8276 46.4094 25.8612 46.4094 23.3513C46.4094 20.8415 45.674 18.8751 42.2473 18.8751H40.0942V27.8307V27.8276Z" fill="#494949"/>
<path d="M53.876 17.0816H56.2012L61.0111 29.6182H58.6672L57.4936 26.3011H52.5085L51.3349 29.6182H49.0786L53.8729 17.0816H53.876ZM53.1062 24.6299H56.9178L55.0464 19.2396H54.9932L53.1031 24.6299H53.1062Z" fill="#494949"/>
<path d="M59.4058 17.0816H69.5169V18.9789H65.5457V29.6182H63.3582V18.9789H59.4058V17.0816Z" fill="#494949"/>
<path d="M72.6998 17.0816H75.0249L79.8348 29.6182H77.4909L76.3174 26.3011H71.3322L70.1587 29.6182H67.9023L72.6966 17.0816H72.6998ZM71.9299 24.6299H75.7416L73.8702 19.2396H73.817L71.9268 24.6299H71.9299Z" fill="#494949"/>
<path d="M81.043 17.0816H82.2321V29.6182H81.043V17.0816Z" fill="#494949"/>
<path d="M84.2252 17.0816H93.216V18.1339L84.995 28.5973H93.3913V29.615H83.665V28.5627L91.886 18.0994H84.2252V17.0816Z" fill="#494949"/>
<path d="M94.8779 17.0816H103.503V18.0994H96.0671V22.629H103.03V23.6467H96.0671V28.5973H103.587V29.615H94.8779V17.0785V17.0816Z" fill="#494949"/>
<path d="M114.912 15.8943H117.45L122.695 29.5648H120.139L118.862 25.9461H113.426L112.149 29.5648H109.689L114.916 15.8943H114.912ZM114.074 24.1273H118.233L116.192 18.2502H116.136L114.077 24.1273H114.074Z" fill="#32A7DF"/>
<path d="M124.013 15.8943H125.312V29.5648H124.013V15.8943Z" fill="#32A7DF"/>
</svg>
