<svg width="222" height="222" viewBox="0 0 222 222" fill="none" xmlns="http://www.w3.org/2000/svg">
<g clip-path="url(#clip0_390_475)">
<path d="M111 75.0963C130.471 75.0963 148.783 82.6791 162.55 96.4462C176.317 110.213 183.9 128.526 183.9 147.996C183.9 167.467 176.317 185.779 162.55 199.547C148.783 213.314 130.471 220.896 111 220.896C91.5293 220.896 73.2169 213.314 59.4498 199.547C31.0196 171.116 31.0196 124.865 59.4498 96.4462C73.2169 82.6791 91.5293 75.0963 111 75.0963ZM111 74.0037C92.0647 74.0037 73.1295 81.2259 58.674 95.6814C29.774 124.581 29.774 171.433 58.674 200.333C73.1186 214.778 92.0647 222.011 111 222.011C129.935 222.011 148.87 214.789 163.326 200.333C192.226 171.433 192.226 124.581 163.326 95.6814C148.881 81.2369 129.935 74.0037 111 74.0037Z" fill="black"/>
<path d="M111 75.0963C120.593 75.0963 129.607 78.8331 136.392 85.6183C143.178 92.4035 146.914 101.418 146.914 111.011C146.914 120.604 143.178 129.618 136.392 136.404C129.607 143.189 120.593 146.926 111 146.926C101.406 146.926 92.3922 143.189 85.607 136.404C78.8218 129.618 75.085 120.604 75.085 111.011C75.085 101.418 78.8218 92.4035 85.607 85.6183C92.3922 78.8331 101.406 75.0963 111 75.0963ZM111 74.0037C101.527 74.0037 92.0645 77.6203 84.8422 84.8425C70.3977 99.2871 70.3977 122.713 84.8422 137.168C92.0645 144.391 101.538 148.007 111 148.007C120.462 148.007 129.935 144.391 137.157 137.168C151.602 122.724 151.602 99.298 137.157 84.8425C129.935 77.6203 120.462 74.0037 111 74.0037Z" fill="black"/>
<path d="M111 1.09263C130.471 1.09263 148.783 8.67546 162.55 22.4426C176.317 36.2097 183.9 54.5221 183.9 73.9927C183.9 93.4633 176.317 111.776 162.55 125.543C148.783 139.31 130.471 146.893 111 146.893C91.5293 146.893 73.2169 139.31 59.4498 125.543C31.0196 97.1127 31.0196 50.8618 59.4498 22.4426C73.2169 8.67546 91.5184 1.09263 111 1.09263ZM111 0C92.0647 0 73.1295 7.22227 58.674 21.6777C29.774 50.5777 29.774 97.4296 58.674 126.33C73.1186 140.774 92.0647 148.007 111 148.007C129.935 148.007 148.87 140.785 163.326 126.33C192.226 97.4296 192.226 50.5777 163.326 21.6777C148.87 7.22227 129.935 0 111 0Z" fill="black"/>
<path d="M147.996 38.089C167.467 38.089 185.779 45.6718 199.546 59.4389C227.976 87.8691 227.976 134.12 199.546 162.539C185.779 176.306 167.467 183.889 147.996 183.889C128.525 183.889 110.213 176.306 96.4459 162.539C68.0157 134.109 68.0157 87.8581 96.4459 59.4389C110.213 45.6718 128.525 38.089 147.996 38.089ZM147.996 36.9963C129.061 36.9963 110.126 44.2186 95.6701 58.6741C66.7701 87.5741 66.7701 134.426 95.6701 163.326C110.115 177.77 129.061 185.004 147.996 185.004C166.931 185.004 185.866 177.781 200.322 163.326C229.222 134.426 229.222 87.5741 200.322 58.6741C185.877 44.2295 166.931 36.9963 147.996 36.9963Z" fill="black"/>
<path d="M74.0038 38.089C93.4745 38.089 111.787 45.6718 125.554 59.4389C139.321 73.206 146.904 91.5184 146.904 110.989C146.904 130.46 139.321 148.772 125.554 162.539C111.787 176.306 93.4745 183.889 74.0038 183.889C54.5332 183.889 36.2208 176.306 22.4537 162.539C-5.97647 134.109 -5.97647 87.8581 22.4537 59.4389C36.2208 45.6718 54.5332 38.089 74.0038 38.089ZM74.0038 36.9963C55.0686 36.9963 36.1334 44.2186 21.6779 58.6741C-7.22207 87.5741 -7.22207 134.426 21.6779 163.326C36.1225 177.77 55.0686 185.004 74.0038 185.004C92.9391 185.004 111.874 177.781 126.33 163.326C155.23 134.426 155.23 87.5741 126.33 58.6741C111.885 44.2295 92.9391 36.9963 74.0038 36.9963Z" fill="black"/>
</g>
<defs>
<clipPath id="clip0_390_475">
<rect width="222" height="222" fill="white"/>
</clipPath>
</defs>
</svg>
