<svg width="191" height="191" viewBox="0 0 191 191" fill="none" xmlns="http://www.w3.org/2000/svg">
<circle cx="95.5" cy="95.5" r="95.5" fill="#EDF4F6"/>
<g clip-path="url(#clip0_204_773)">
<path d="M68.3887 71.9031C68.1801 71.9031 67.9716 71.821 67.8187 71.6705C67.6658 71.52 67.5824 71.3284 67.5824 71.1095C67.5824 70.8906 67.6658 70.699 67.8187 70.5485C68.1106 70.2611 68.6528 70.2611 68.9447 70.5485C69.0976 70.699 69.181 70.8906 69.181 71.1095C69.181 71.3284 69.0976 71.52 68.9447 71.6705C68.7918 71.821 68.5972 71.9031 68.3748 71.9031H68.3887Z" fill="#607D87"/>
<path d="M68.3887 75.6524C68.1801 75.6524 67.9716 75.5703 67.8187 75.4198C67.6658 75.2693 67.5824 75.0777 67.5824 74.8588C67.5824 74.6398 67.6658 74.4483 67.8187 74.2977C68.1106 74.0104 68.6528 74.0104 68.9447 74.2977C69.0976 74.4483 69.181 74.6398 69.181 74.8588C69.181 75.0777 69.0976 75.2693 68.9447 75.4198C68.7918 75.5703 68.5972 75.6524 68.3748 75.6524H68.3887Z" fill="#607D87"/>
<path d="M68.3887 68.1401C68.1801 68.1401 67.9716 68.058 67.8187 67.9075C67.6658 67.757 67.5824 67.5654 67.5824 67.3465C67.5824 67.1276 67.6658 66.936 67.8187 66.7855C68.1106 66.4981 68.6528 66.4981 68.9447 66.7855C69.0976 66.936 69.181 67.1276 69.181 67.3465C69.181 67.5654 69.0976 67.757 68.9447 67.9075C68.7918 68.058 68.5972 68.1401 68.3748 68.1401H68.3887Z" fill="#607D87"/>
<path d="M68.3887 64.3908C68.1801 64.3908 67.9716 64.3087 67.8187 64.1582C67.6658 64.0077 67.5824 63.8161 67.5824 63.5972C67.5824 63.3782 67.6658 63.1867 67.8187 63.0361C68.1245 62.7488 68.6528 62.7488 68.9447 63.0361C69.0976 63.1867 69.181 63.3782 69.181 63.5972C69.181 63.8161 69.0976 64.0077 68.9447 64.1582C68.7918 64.3087 68.5972 64.3908 68.3748 64.3908H68.3887Z" fill="#607D87"/>
<path d="M68.3887 60.6415C68.1801 60.6415 67.9716 60.5594 67.8187 60.4089C67.6658 60.2583 67.5824 60.0668 67.5824 59.8478C67.5824 59.6289 67.6658 59.4373 67.8187 59.2868C68.1106 58.9994 68.6528 58.9994 68.9447 59.2868C69.0976 59.4373 69.181 59.6289 69.181 59.8478C69.181 60.0668 69.0976 60.2583 68.9447 60.4089C68.7918 60.5594 68.5972 60.6415 68.3748 60.6415H68.3887Z" fill="#607D87"/>
<path d="M68.3887 79.4017C68.1801 79.4017 67.9716 79.3196 67.8187 79.1691C67.6658 79.0186 67.5824 78.827 67.5824 78.6081C67.5824 78.3892 67.6658 78.1976 67.8187 78.0471C68.1106 77.7597 68.6528 77.7597 68.9447 78.0471C69.0976 78.1976 69.181 78.3892 69.181 78.6081C69.181 78.827 69.0976 79.0186 68.9447 79.1691C68.7918 79.3196 68.5972 79.4017 68.3748 79.4017H68.3887Z" fill="#607D87"/>
<path d="M68.3887 83.1511C68.1801 83.1511 67.9716 83.069 67.8187 82.9184C67.6658 82.7679 67.5824 82.5764 67.5824 82.3574C67.5824 82.1385 67.6658 81.9469 67.8187 81.7964C68.1106 81.509 68.6528 81.509 68.9447 81.7964C69.0976 81.9469 69.181 82.1522 69.181 82.3574C69.181 82.5627 69.0976 82.7679 68.9447 82.9184C68.7918 83.069 68.5833 83.1511 68.3748 83.1511H68.3887Z" fill="#607D87"/>
<path d="M121.516 93.7422C121.308 93.7422 121.099 93.6601 120.946 93.5096C120.793 93.3591 120.71 93.1675 120.71 92.9485C120.71 92.7296 120.793 92.538 120.946 92.3875C121.238 92.1002 121.78 92.1002 122.072 92.3875C122.225 92.538 122.309 92.7296 122.309 92.9485C122.309 93.1675 122.225 93.3591 122.072 93.5096C121.919 93.6601 121.725 93.7422 121.502 93.7422H121.516Z" fill="#607D87"/>
<path d="M121.516 97.4915C121.308 97.4915 121.099 97.4094 120.946 97.2589C120.793 97.1084 120.71 96.9168 120.71 96.6979C120.71 96.4789 120.793 96.2874 120.946 96.1368C121.238 95.8495 121.78 95.8495 122.072 96.1368C122.225 96.2874 122.309 96.4789 122.309 96.6979C122.309 96.9168 122.225 97.1084 122.072 97.2589C121.919 97.4094 121.725 97.4915 121.502 97.4915H121.516Z" fill="#607D87"/>
<path d="M121.516 89.9929C121.308 89.9929 121.099 89.9108 120.946 89.7603C120.793 89.6098 120.71 89.4182 120.71 89.1993C120.71 88.9803 120.793 88.7888 120.946 88.6382C121.238 88.3509 121.78 88.3509 122.072 88.6382C122.225 88.7888 122.309 88.9803 122.309 89.1993C122.309 89.4182 122.225 89.6098 122.072 89.7603C121.919 89.9108 121.725 89.9929 121.502 89.9929H121.516Z" fill="#607D87"/>
<path d="M121.516 86.2436C121.308 86.2436 121.099 86.1615 120.946 86.011C120.793 85.8605 120.71 85.6552 120.71 85.4499C120.71 85.2447 120.793 85.0394 120.946 84.8889C121.238 84.6016 121.78 84.6016 122.072 84.8889C122.225 85.0394 122.309 85.2447 122.309 85.4499C122.309 85.6552 122.225 85.8605 122.072 86.011C121.919 86.1615 121.725 86.2436 121.502 86.2436H121.516Z" fill="#607D87"/>
<path d="M121.516 82.4943C121.308 82.4943 121.099 82.4122 120.946 82.2616C120.793 82.1111 120.71 81.9196 120.71 81.7006C120.71 81.4817 120.793 81.2901 120.946 81.1396C121.238 80.8522 121.78 80.8522 122.072 81.1396C122.225 81.2901 122.309 81.4817 122.309 81.7006C122.309 81.9196 122.225 82.1111 122.072 82.2616C121.919 82.4122 121.725 82.4943 121.502 82.4943H121.516Z" fill="#607D87"/>
<path d="M121.516 101.255C121.308 101.255 121.099 101.172 120.946 101.022C120.793 100.871 120.71 100.68 120.71 100.461C120.71 100.242 120.793 100.05 120.946 99.8998C121.238 99.6125 121.78 99.6125 122.072 99.8998C122.225 100.05 122.309 100.242 122.309 100.461C122.309 100.68 122.225 100.871 122.072 101.022C121.919 101.172 121.725 101.255 121.502 101.255H121.516Z" fill="#607D87"/>
<path d="M121.516 105.004C121.308 105.004 121.099 104.922 120.946 104.771C120.793 104.621 120.71 104.429 120.71 104.21C120.71 103.991 120.793 103.8 120.946 103.649C121.238 103.362 121.78 103.362 122.072 103.649C122.225 103.8 122.309 103.991 122.309 104.21C122.309 104.429 122.225 104.621 122.072 104.771C121.919 104.922 121.711 105.004 121.502 105.004H121.516Z" fill="#607D87"/>
<path d="M72.9063 113.857C72.4615 113.857 72.114 113.501 72.114 113.063V50.3377C72.114 47.9431 74.0878 46 76.5204 46H113.384C115.817 46 117.791 47.9431 117.791 50.3377V113.063C117.791 113.501 117.43 113.843 116.999 113.843C116.568 113.843 116.192 113.488 116.192 113.063V50.3377C116.192 48.8051 114.927 47.5736 113.384 47.5736H76.5204C74.9636 47.5736 73.7125 48.8188 73.7125 50.3377V113.063C73.7125 113.501 73.3511 113.857 72.9202 113.857H72.9063Z" fill="#607D87"/>
<path d="M113.384 127.322H94.9525V125.748H113.384C114.941 125.748 116.192 124.503 116.192 122.984V116.484H117.791V122.984C117.791 125.379 115.817 127.322 113.384 127.322Z" fill="#607D87"/>
<path d="M91.4912 127.322H76.5204C74.0878 127.322 72.114 125.379 72.114 122.984V116.484C72.114 116.046 72.4754 115.704 72.9063 115.704C73.3372 115.704 73.6986 116.06 73.6986 116.484V122.984C73.6986 124.517 74.9636 125.748 76.5065 125.748H91.4773C91.9222 125.748 92.2697 126.104 92.2697 126.528C92.2697 126.952 91.9083 127.322 91.4773 127.322H91.4912Z" fill="#607D87"/>
<path d="M100.624 52.7871H89.281C88.0439 52.7871 87.0292 51.7882 87.0292 50.5704V50.023C87.0292 49.5851 87.3906 49.243 87.8215 49.243C88.2524 49.243 88.6138 49.5988 88.6138 50.023V50.5704C88.6138 50.9261 88.9057 51.2135 89.2671 51.2135H100.61C100.971 51.2135 101.263 50.9261 101.263 50.5704V50.023C101.263 49.5851 101.625 49.243 102.056 49.243C102.486 49.243 102.862 49.5988 102.862 50.023V50.5704C102.862 51.7882 101.847 52.7871 100.61 52.7871H100.624Z" fill="#607D87"/>
<path d="M95.7587 107.398H94.1601V132.686H95.7587V107.398Z" fill="#607D87"/>
<path d="M100.791 146H89.1281C88.3914 146 87.7937 145.412 87.7937 144.686V133.206C87.7937 132.481 88.3914 131.892 89.1281 131.892H100.791C101.527 131.892 102.125 132.481 102.125 133.206V144.686C102.125 145.412 101.527 146 100.791 146ZM89.3784 144.44H100.513V133.479H89.3784V144.44Z" fill="#607D87"/>
<path d="M94.9524 108.192C94.591 108.192 94.2574 108.055 94.0072 107.809L85.7503 99.6809C85.236 99.1746 85.236 98.3399 85.7503 97.8336L94.0072 89.7192C94.2574 89.4729 94.591 89.3361 94.9524 89.3361C95.3139 89.3361 95.6475 89.4729 95.8977 89.7192L104.141 97.8336C104.391 98.0799 104.53 98.4083 104.53 98.7641C104.53 99.1199 104.391 99.4483 104.141 99.6946L95.8838 107.823C95.6336 108.069 95.3 108.206 94.9385 108.206L94.9524 108.192ZM87.0848 98.7504L94.9524 106.495L102.82 98.7504L94.9524 91.0055L87.0848 98.7504Z" fill="#607D87"/>
<path d="M64.3436 123.531H53.3344C52.8757 123.531 52.4448 123.299 52.2085 122.916C51.9583 122.519 51.9444 122.054 52.1529 121.643L57.6575 110.806C57.8799 110.354 58.3386 110.08 58.8529 110.08C59.3672 110.08 59.8121 110.354 60.0484 110.806L65.553 121.643C65.7615 122.054 65.7337 122.533 65.4974 122.916C65.2471 123.299 64.8301 123.531 64.3714 123.531H64.3436ZM53.7654 121.958H63.9127L58.839 111.969L53.7654 121.958Z" fill="#607D87"/>
<path d="M124.699 115.691H62.0222V117.264H124.699V115.691Z" fill="#607D87"/>
<path d="M131.066 123.531C127.118 123.531 123.907 120.371 123.907 116.484C123.907 112.598 127.118 109.437 131.066 109.437C135.014 109.437 138.225 112.598 138.225 116.484C138.225 120.371 135.014 123.531 131.066 123.531ZM131.066 110.997C127.994 110.997 125.506 113.46 125.506 116.484C125.506 119.508 128.008 121.972 131.066 121.972C134.124 121.972 136.64 119.508 136.64 116.484C136.64 113.46 134.138 110.997 131.066 110.997Z" fill="#607D87"/>
<path d="M110.535 71.3694H79.37C78.4943 71.3694 77.7715 70.6579 77.7715 69.7958V63.8708C77.7715 63.0087 78.4943 62.2972 79.37 62.2972H83.5958C84.0406 62.2972 84.3881 62.653 84.3881 63.0771C84.3881 63.5013 84.0267 63.8708 83.5958 63.8708H79.37V69.7958H110.535V63.8708H87.9466C87.5018 63.8708 87.1543 63.515 87.1543 63.0771C87.1543 62.6393 87.5157 62.2972 87.9466 62.2972H110.535C111.411 62.2972 112.133 63.0087 112.133 63.8708V69.7958C112.133 70.6579 111.411 71.3694 110.535 71.3694Z" fill="#607D87"/>
<path d="M110.535 84.3278H79.37C78.4943 84.3278 77.7715 83.6163 77.7715 82.7542V76.8292C77.7715 75.9671 78.4943 75.2556 79.37 75.2556H83.5958C84.0406 75.2556 84.3881 75.6113 84.3881 76.0355C84.3881 76.4597 84.0267 76.8155 83.5958 76.8155H79.37V82.7405H110.535V76.8155H87.9466C87.5018 76.8155 87.1543 76.4597 87.1543 76.0355C87.1543 75.6113 87.5157 75.2556 87.9466 75.2556H110.535C111.411 75.2556 112.133 75.9671 112.133 76.8292V82.7542C112.133 83.6163 111.411 84.3278 110.535 84.3278Z" fill="#607D87"/>
<path d="M95.7587 83.5342H94.1601V90.1023H95.7587V83.5342Z" fill="#607D87"/>
<path d="M95.7587 70.5895H94.1601V76.0492H95.7587V70.5895Z" fill="#607D87"/>
</g>
<defs>
<clipPath id="clip0_204_773">
<rect width="86.2385" height="100" fill="white" transform="translate(52 46)"/>
</clipPath>
</defs>
</svg>
