<svg width="76" height="53" viewBox="0 0 76 53" fill="none" xmlns="http://www.w3.org/2000/svg">
<path d="M47.4614 7.02688L35.978 7.04311C35.4141 4.23845 33.6668 0.506123 29.6963 0.127481C28.8755 -0.0158623 25.2198 -0.275503 21.6245 5.51772C21.1361 6.30475 20.4789 7.42175 19.711 8.76052C15.1388 5.91529 9.24986 3.45953 1.89307 1.3202L0.00980909 0.773877L-0.000261817 2.86723C-0.0254391 8.10871 2.04161 17.9588 9.75089 20.4092L11.3094 17.5099C5.07799 16.1062 3.517 8.76593 3.12927 5.04171C9.27504 6.95115 14.245 9.09048 18.15 11.5111C13.608 19.5816 7.13497 31.5926 6.77746 32.2552L5.61679 34.4108L7.92302 34.6677C8.0615 34.684 8.8848 34.7678 10.1336 34.7678C14.6454 34.7678 24.7339 33.6616 28.3921 24.1929C29.8776 20.3497 28.4425 15.8411 24.6432 12.4225C23.903 11.7545 23.1049 11.1081 22.2514 10.4752C23.0067 9.15809 23.6513 8.06273 24.1221 7.30004C26.6776 3.18366 28.8881 3.27021 29.1877 3.30266L29.3816 3.32971C32.7982 3.6164 33.1683 8.55497 33.1834 8.75781L33.2765 10.267L47.4639 10.2453L47.4589 7.02147L47.4614 7.02688ZM22.7172 14.8972C25.5144 17.4125 26.5995 20.4254 25.6201 22.9569C22.8028 30.2457 14.7259 31.4141 10.6472 31.5196C12.8124 27.5222 17.3041 19.2516 20.6879 13.2366C21.4105 13.7775 22.0852 14.3293 22.7172 14.8972Z" fill="#3CA7DF"/>
<path d="M57.5502 10.294C58.3679 10.294 59.0307 9.582 59.0307 8.7037C59.0307 7.8254 58.3679 7.1134 57.5502 7.1134C56.7326 7.1134 56.0698 7.8254 56.0698 8.7037C56.0698 9.582 56.7326 10.294 57.5502 10.294Z" fill="#2F72B9"/>
<path d="M52.039 10.294C52.8566 10.294 53.5194 9.582 53.5194 8.7037C53.5194 7.8254 52.8566 7.1134 52.039 7.1134C51.2214 7.1134 50.5586 7.8254 50.5586 8.7037C50.5586 9.582 51.2214 10.294 52.039 10.294Z" fill="#2F72B9"/>
<path d="M0.699707 40.8666H5.24169C8.61796 40.8666 10.0757 43.5035 10.0757 46.7518C10.0757 50 8.61796 52.6369 5.24169 52.6369H0.699707V40.8666ZM2.61821 50.9574H4.50651C7.51519 50.9574 8.15973 49.1102 8.15973 46.7545C8.15973 44.3988 7.51519 42.5515 4.50651 42.5515H2.61821V50.9601V50.9574Z" fill="#494949"/>
<path d="M14.7133 40.8665H16.7552L20.9749 52.6368H18.9179L17.8907 49.5211H13.5174L12.4902 52.6368H10.5112L14.7158 40.8665H14.7133ZM14.036 47.9552H17.3821L15.7405 42.8949H15.6952L14.0386 47.9552H14.036Z" fill="#494949"/>
<path d="M19.5626 40.8665H28.4325V42.6461H24.948V52.6368H23.0295V42.6461H19.5601V40.8665H19.5626Z" fill="#494949"/>
<path d="M31.227 40.8665H33.2689L37.4886 52.6368H35.4316L34.4044 49.5211H30.0311L29.0038 52.6368H27.0249L31.2295 40.8665H31.227ZM30.5522 47.9552H33.8983L32.2567 42.8949H32.2114L30.5548 47.9552H30.5522Z" fill="#494949"/>
<path d="M38.5464 40.8665H39.5912V52.6368H38.5464V40.8665Z" fill="#494949"/>
<path d="M41.3411 40.8665H49.2291V41.8563L42.0158 51.6821H49.3827V52.6368H40.8501V51.6469L48.0634 41.8212H41.3411V40.8665Z" fill="#494949"/>
<path d="M50.687 40.8665H58.2528V41.8212H51.7294V46.0755H57.8374V47.0329H51.7294V51.6821H58.3283V52.6368H50.687V40.8665Z" fill="#494949"/>
<path d="M67.6362 40.7477H69.678L73.8978 52.518H71.8408L70.8135 49.4024H66.4403L65.413 52.518H63.4341L67.6387 40.7477H67.6362ZM66.9614 47.8364H70.3075L68.6659 42.7761H68.6206L66.9639 47.8364H66.9614Z" fill="#37A7DF"/>
<path d="M74.9551 40.7477H75.9999V52.518H74.9551V40.7477Z" fill="#37A7DF"/>
</svg>
