<svg width="123" height="38" viewBox="0 0 123 38" fill="none" xmlns="http://www.w3.org/2000/svg">
<rect width="123" height="38" fill="#3CA7DF"/>
<path d="M22.678 27.252C21.91 27.252 21.214 27.138 20.59 26.91C19.966 26.682 19.432 26.328 18.988 25.848C18.556 25.368 18.22 24.738 17.98 23.958C17.752 23.178 17.638 22.248 17.638 21.168V13.698H19.996V21.348C19.996 22.296 20.11 23.052 20.338 23.616C20.566 24.18 20.878 24.582 21.274 24.822C21.682 25.062 22.15 25.182 22.678 25.182C23.23 25.182 23.71 25.062 24.118 24.822C24.526 24.582 24.844 24.18 25.072 23.616C25.312 23.052 25.432 22.296 25.432 21.348V13.698H27.718V21.168C27.718 22.248 27.598 23.178 27.358 23.958C27.13 24.738 26.794 25.368 26.35 25.848C25.918 26.328 25.39 26.682 24.766 26.91C24.154 27.138 23.458 27.252 22.678 27.252ZM33.3973 27.252C32.7133 27.252 32.0353 27.12 31.3633 26.856C30.6913 26.592 30.1093 26.256 29.6173 25.848L30.6973 24.336C31.1413 24.684 31.5853 24.96 32.0293 25.164C32.4733 25.368 32.9473 25.47 33.4513 25.47C33.9913 25.47 34.3933 25.356 34.6573 25.128C34.9213 24.9 35.0533 24.612 35.0533 24.264C35.0533 23.988 34.9453 23.76 34.7293 23.58C34.5253 23.388 34.2553 23.22 33.9193 23.076C33.5953 22.932 33.2593 22.794 32.9113 22.662C32.4793 22.494 32.0533 22.29 31.6333 22.05C31.2133 21.81 30.8653 21.504 30.5893 21.132C30.3133 20.76 30.1753 20.298 30.1753 19.746C30.1753 19.17 30.3193 18.66 30.6073 18.216C30.9073 17.76 31.3273 17.406 31.8673 17.154C32.4193 16.89 33.0673 16.758 33.8113 16.758C34.5073 16.758 35.1313 16.878 35.6833 17.118C36.2473 17.358 36.7273 17.64 37.1233 17.964L36.0433 19.404C35.6953 19.152 35.3413 18.948 34.9813 18.792C34.6213 18.624 34.2493 18.54 33.8653 18.54C33.3613 18.54 32.9893 18.648 32.7493 18.864C32.5093 19.068 32.3893 19.326 32.3893 19.638C32.3893 19.902 32.4793 20.118 32.6593 20.286C32.8513 20.454 33.1033 20.604 33.4153 20.736C33.7273 20.856 34.0633 20.982 34.4233 21.114C34.7713 21.246 35.1133 21.39 35.4493 21.546C35.7853 21.702 36.0913 21.894 36.3673 22.122C36.6433 22.35 36.8593 22.626 37.0153 22.95C37.1833 23.274 37.2673 23.67 37.2673 24.138C37.2673 24.714 37.1173 25.242 36.8173 25.722C36.5293 26.19 36.0973 26.562 35.5213 26.838C34.9453 27.114 34.2373 27.252 33.3973 27.252ZM43.6448 27.252C42.7208 27.252 41.8868 27.042 41.1428 26.622C40.3988 26.202 39.8048 25.602 39.3608 24.822C38.9288 24.042 38.7128 23.106 38.7128 22.014C38.7128 21.198 38.8388 20.472 39.0908 19.836C39.3548 19.188 39.7028 18.636 40.1348 18.18C40.5788 17.712 41.0708 17.358 41.6108 17.118C42.1628 16.878 42.7328 16.758 43.3208 16.758C44.2208 16.758 44.9768 16.962 45.5888 17.37C46.2008 17.766 46.6628 18.324 46.9748 19.044C47.2868 19.752 47.4428 20.574 47.4428 21.51C47.4428 21.738 47.4308 21.954 47.4068 22.158C47.3948 22.35 47.3708 22.512 47.3348 22.644H41.0168C41.0768 23.232 41.2388 23.73 41.5028 24.138C41.7668 24.546 42.1028 24.864 42.5108 25.092C42.9308 25.308 43.4108 25.416 43.9508 25.416C44.3708 25.416 44.7668 25.356 45.1388 25.236C45.5108 25.104 45.8828 24.924 46.2548 24.696L47.0648 26.172C46.5968 26.484 46.0688 26.742 45.4808 26.946C44.8928 27.15 44.2808 27.252 43.6448 27.252ZM40.9808 21.042H45.4268C45.4268 20.286 45.2528 19.692 44.9048 19.26C44.5568 18.816 44.0408 18.594 43.3568 18.594C42.9848 18.594 42.6308 18.69 42.2948 18.882C41.9588 19.062 41.6708 19.332 41.4308 19.692C41.2028 20.052 41.0528 20.502 40.9808 21.042ZM59.2477 27.252C58.4077 27.252 57.6277 27.102 56.9077 26.802C56.1877 26.502 55.5517 26.058 54.9997 25.47C54.4477 24.882 54.0157 24.162 53.7037 23.31C53.4037 22.458 53.2537 21.486 53.2537 20.394C53.2537 19.302 53.4097 18.33 53.7217 17.478C54.0457 16.626 54.4837 15.9 55.0357 15.3C55.5997 14.7 56.2477 14.244 56.9797 13.932C57.7237 13.62 58.5157 13.464 59.3557 13.464C60.1957 13.464 60.9397 13.638 61.5877 13.986C62.2357 14.322 62.7697 14.712 63.1897 15.156L61.9297 16.668C61.5817 16.332 61.2037 16.056 60.7957 15.84C60.3877 15.624 59.9197 15.516 59.3917 15.516C58.6837 15.516 58.0477 15.714 57.4837 16.11C56.9197 16.494 56.4817 17.046 56.1697 17.766C55.8577 18.474 55.7017 19.326 55.7017 20.322C55.7017 21.33 55.8517 22.2 56.1517 22.932C56.4517 23.652 56.8717 24.21 57.4117 24.606C57.9637 24.99 58.6057 25.182 59.3377 25.182C59.9257 25.182 60.4537 25.056 60.9217 24.804C61.3897 24.552 61.8097 24.222 62.1817 23.814L63.4417 25.308C62.9017 25.944 62.2837 26.43 61.5877 26.766C60.8917 27.09 60.1117 27.252 59.2477 27.252ZM67.8943 27.252C67.3063 27.252 66.7903 27.126 66.3463 26.874C65.9143 26.622 65.5723 26.28 65.3203 25.848C65.0683 25.404 64.9423 24.894 64.9423 24.318C64.9423 23.238 65.4103 22.41 66.3463 21.834C67.2823 21.246 68.7703 20.838 70.8103 20.61C70.7983 20.25 70.7323 19.926 70.6123 19.638C70.5043 19.338 70.3183 19.104 70.0543 18.936C69.8023 18.756 69.4543 18.666 69.0103 18.666C68.5063 18.666 68.0203 18.762 67.5523 18.954C67.0843 19.146 66.6283 19.38 66.1843 19.656L65.3383 18.072C65.7103 17.844 66.1063 17.634 66.5263 17.442C66.9583 17.238 67.4143 17.076 67.8943 16.956C68.3863 16.824 68.8963 16.758 69.4243 16.758C70.2643 16.758 70.9603 16.926 71.5123 17.262C72.0643 17.598 72.4783 18.09 72.7543 18.738C73.0303 19.374 73.1683 20.154 73.1683 21.078V27H71.2423L71.0623 25.902H70.9903C70.5463 26.274 70.0663 26.592 69.5503 26.856C69.0343 27.12 68.4823 27.252 67.8943 27.252ZM68.6503 25.38C69.0463 25.38 69.4123 25.29 69.7483 25.11C70.0963 24.918 70.4503 24.654 70.8103 24.318V22.086C69.9103 22.194 69.1963 22.344 68.6683 22.536C68.1403 22.728 67.7623 22.962 67.5343 23.238C67.3183 23.502 67.2103 23.802 67.2103 24.138C67.2103 24.582 67.3423 24.9 67.6063 25.092C67.8823 25.284 68.2303 25.38 68.6503 25.38ZM78.7664 27.252C78.0824 27.252 77.4044 27.12 76.7324 26.856C76.0604 26.592 75.4784 26.256 74.9864 25.848L76.0664 24.336C76.5104 24.684 76.9544 24.96 77.3984 25.164C77.8424 25.368 78.3164 25.47 78.8204 25.47C79.3604 25.47 79.7624 25.356 80.0264 25.128C80.2904 24.9 80.4224 24.612 80.4224 24.264C80.4224 23.988 80.3144 23.76 80.0984 23.58C79.8944 23.388 79.6244 23.22 79.2884 23.076C78.9644 22.932 78.6284 22.794 78.2804 22.662C77.8484 22.494 77.4224 22.29 77.0024 22.05C76.5824 21.81 76.2344 21.504 75.9584 21.132C75.6824 20.76 75.5444 20.298 75.5444 19.746C75.5444 19.17 75.6884 18.66 75.9764 18.216C76.2764 17.76 76.6964 17.406 77.2364 17.154C77.7884 16.89 78.4364 16.758 79.1804 16.758C79.8764 16.758 80.5004 16.878 81.0524 17.118C81.6164 17.358 82.0964 17.64 82.4924 17.964L81.4124 19.404C81.0644 19.152 80.7104 18.948 80.3504 18.792C79.9904 18.624 79.6184 18.54 79.2344 18.54C78.7304 18.54 78.3584 18.648 78.1184 18.864C77.8784 19.068 77.7584 19.326 77.7584 19.638C77.7584 19.902 77.8484 20.118 78.0284 20.286C78.2204 20.454 78.4724 20.604 78.7844 20.736C79.0964 20.856 79.4324 20.982 79.7924 21.114C80.1404 21.246 80.4824 21.39 80.8184 21.546C81.1544 21.702 81.4604 21.894 81.7364 22.122C82.0124 22.35 82.2284 22.626 82.3844 22.95C82.5524 23.274 82.6364 23.67 82.6364 24.138C82.6364 24.714 82.4864 25.242 82.1864 25.722C81.8984 26.19 81.4664 26.562 80.8904 26.838C80.3144 27.114 79.6064 27.252 78.7664 27.252ZM89.0139 27.252C88.0899 27.252 87.2559 27.042 86.5119 26.622C85.7679 26.202 85.1739 25.602 84.7299 24.822C84.2979 24.042 84.0819 23.106 84.0819 22.014C84.0819 21.198 84.2079 20.472 84.4599 19.836C84.7239 19.188 85.0719 18.636 85.5039 18.18C85.9479 17.712 86.4399 17.358 86.9799 17.118C87.5319 16.878 88.1019 16.758 88.6899 16.758C89.5899 16.758 90.3459 16.962 90.9579 17.37C91.5699 17.766 92.0319 18.324 92.3439 19.044C92.6559 19.752 92.8119 20.574 92.8119 21.51C92.8119 21.738 92.7999 21.954 92.7759 22.158C92.7639 22.35 92.7399 22.512 92.7039 22.644H86.3859C86.4459 23.232 86.6079 23.73 86.8719 24.138C87.1359 24.546 87.4719 24.864 87.8799 25.092C88.2999 25.308 88.7799 25.416 89.3199 25.416C89.7399 25.416 90.1359 25.356 90.5079 25.236C90.8799 25.104 91.2519 24.924 91.6239 24.696L92.4339 26.172C91.9659 26.484 91.4379 26.742 90.8499 26.946C90.2619 27.15 89.6499 27.252 89.0139 27.252ZM86.3499 21.042H90.7959C90.7959 20.286 90.6219 19.692 90.2739 19.26C89.9259 18.816 89.4099 18.594 88.7259 18.594C88.3539 18.594 87.9999 18.69 87.6639 18.882C87.3279 19.062 87.0399 19.332 86.7999 19.692C86.5719 20.052 86.4219 20.502 86.3499 21.042ZM98.4068 27V25.632C99.6068 24.48 100.645 23.448 101.521 22.536C102.397 21.612 103.069 20.778 103.537 20.034C104.017 19.278 104.257 18.57 104.257 17.91C104.257 17.442 104.173 17.046 104.005 16.722C103.849 16.398 103.615 16.146 103.303 15.966C102.991 15.774 102.601 15.678 102.133 15.678C101.629 15.678 101.167 15.822 100.747 16.11C100.339 16.398 99.9608 16.734 99.6128 17.118L98.2988 15.822C98.8868 15.174 99.4988 14.682 100.135 14.346C100.783 13.998 101.551 13.824 102.439 13.824C103.267 13.824 103.987 13.986 104.599 14.31C105.211 14.634 105.685 15.096 106.021 15.696C106.369 16.284 106.543 16.98 106.543 17.784C106.543 18.552 106.327 19.332 105.895 20.124C105.463 20.916 104.893 21.726 104.185 22.554C103.477 23.382 102.691 24.246 101.827 25.146C102.175 25.11 102.547 25.08 102.943 25.056C103.339 25.02 103.693 25.002 104.005 25.002H107.155V27H98.4068Z" fill="white"/>
</svg>
