<svg width="36" height="36" viewBox="0 0 36 36" fill="none" xmlns="http://www.w3.org/2000/svg">
<g clip-path="url(#clip0_264_490)">
<path d="M18 4.5C17.31 4.5 16.605 4.56 15.9 4.71C11.76 5.505 8.45999 8.85 7.67999 12.99C6.95999 16.905 8.39999 20.505 11.01 22.83C11.655 23.4 12 24.195 12 25.035V28.5C12 30.15 13.35 31.5 15 31.5H15.42C15.945 32.4 16.89 33 18 33C19.11 33 20.07 32.4 20.58 31.5H21C22.65 31.5 24 30.15 24 28.5V25.035C24 24.21 24.33 23.4 24.96 22.845C27.135 20.925 28.5 18.12 28.5 15C28.5 9.195 23.805 4.5 18 4.5ZM21 28.5H15V27H21V28.5ZM21 25.5H15V24H21V25.5ZM18.75 17.115V21H17.25V17.115L14.505 14.385L15.57 13.32L18 15.75L20.43 13.32L21.495 14.385L18.75 17.115Z" fill="#3CA7DF"/>
</g>
<defs>
<clipPath id="clip0_264_490">
<rect width="36" height="36" fill="white"/>
</clipPath>
</defs>
</svg>
