<svg width="104" height="28" viewBox="0 0 104 28" fill="none" xmlns="http://www.w3.org/2000/svg">
<rect width="104" height="28" rx="3" fill="#8AB1FF"/>
<path d="M20.362 19L19.578 16.508H16.106L15.336 19H13.46L16.736 9.228H19.032L22.28 19H20.362ZM17.87 10.908H17.8L16.554 14.926H19.13L17.87 10.908ZM26.0023 19.168C25.3023 19.168 24.7143 19.0513 24.2383 18.818C23.7623 18.5753 23.3423 18.244 22.9783 17.824L24.0703 16.76C24.3409 17.068 24.6349 17.3107 24.9523 17.488C25.2789 17.6653 25.6523 17.754 26.0723 17.754C26.5016 17.754 26.8096 17.6793 26.9963 17.53C27.1923 17.3807 27.2903 17.1753 27.2903 16.914C27.2903 16.6993 27.2203 16.5313 27.0803 16.41C26.9496 16.2793 26.7209 16.1907 26.3943 16.144L25.6663 16.046C24.8729 15.9433 24.2663 15.7193 23.8463 15.374C23.4356 15.0193 23.2303 14.506 23.2303 13.834C23.2303 13.4793 23.2956 13.162 23.4263 12.882C23.5569 12.5927 23.7436 12.35 23.9863 12.154C24.2289 11.9487 24.5183 11.7947 24.8543 11.692C25.1996 11.58 25.5823 11.524 26.0023 11.524C26.3569 11.524 26.6696 11.552 26.9403 11.608C27.2203 11.6547 27.4723 11.7293 27.6963 11.832C27.9203 11.9253 28.1256 12.0467 28.3123 12.196C28.4989 12.336 28.6809 12.4947 28.8583 12.672L27.8083 13.722C27.5936 13.498 27.3369 13.3113 27.0383 13.162C26.7396 13.0127 26.4129 12.938 26.0583 12.938C25.6663 12.938 25.3816 13.008 25.2043 13.148C25.0363 13.288 24.9523 13.47 24.9523 13.694C24.9523 13.9367 25.0223 14.1233 25.1623 14.254C25.3116 14.3753 25.5589 14.464 25.9043 14.52L26.6463 14.618C28.2236 14.842 29.0123 15.5607 29.0123 16.774C29.0123 17.1287 28.9376 17.4553 28.7883 17.754C28.6483 18.0433 28.4476 18.2953 28.1863 18.51C27.9249 18.7153 27.6076 18.8787 27.2343 19C26.8703 19.112 26.4596 19.168 26.0023 19.168ZM32.8929 19.168C32.1929 19.168 31.6049 19.0513 31.1289 18.818C30.6529 18.5753 30.2329 18.244 29.8689 17.824L30.9609 16.76C31.2316 17.068 31.5256 17.3107 31.8429 17.488C32.1696 17.6653 32.5429 17.754 32.9629 17.754C33.3922 17.754 33.7002 17.6793 33.8869 17.53C34.0829 17.3807 34.1809 17.1753 34.1809 16.914C34.1809 16.6993 34.1109 16.5313 33.9709 16.41C33.8402 16.2793 33.6116 16.1907 33.2849 16.144L32.5569 16.046C31.7636 15.9433 31.1569 15.7193 30.7369 15.374C30.3262 15.0193 30.1209 14.506 30.1209 13.834C30.1209 13.4793 30.1862 13.162 30.3169 12.882C30.4476 12.5927 30.6342 12.35 30.8769 12.154C31.1196 11.9487 31.4089 11.7947 31.7449 11.692C32.0902 11.58 32.4729 11.524 32.8929 11.524C33.2476 11.524 33.5602 11.552 33.8309 11.608C34.1109 11.6547 34.3629 11.7293 34.5869 11.832C34.8109 11.9253 35.0162 12.0467 35.2029 12.196C35.3896 12.336 35.5716 12.4947 35.7489 12.672L34.6989 13.722C34.4842 13.498 34.2276 13.3113 33.9289 13.162C33.6302 13.0127 33.3036 12.938 32.9489 12.938C32.5569 12.938 32.2722 13.008 32.0949 13.148C31.9269 13.288 31.8429 13.47 31.8429 13.694C31.8429 13.9367 31.9129 14.1233 32.0529 14.254C32.2022 14.3753 32.4496 14.464 32.7949 14.52L33.5369 14.618C35.1142 14.842 35.9029 15.5607 35.9029 16.774C35.9029 17.1287 35.8282 17.4553 35.6789 17.754C35.5389 18.0433 35.3382 18.2953 35.0769 18.51C34.8156 18.7153 34.4982 18.8787 34.1249 19C33.7609 19.112 33.3502 19.168 32.8929 19.168ZM40.4392 19.168C39.8979 19.168 39.4126 19.0793 38.9832 18.902C38.5632 18.7153 38.2039 18.4587 37.9052 18.132C37.6159 17.796 37.3919 17.3947 37.2332 16.928C37.0746 16.452 36.9952 15.92 36.9952 15.332C36.9952 14.7533 37.0699 14.2307 37.2192 13.764C37.3779 13.2973 37.6019 12.9007 37.8912 12.574C38.1806 12.238 38.5352 11.9813 38.9552 11.804C39.3752 11.6173 39.8512 11.524 40.3832 11.524C40.9526 11.524 41.4472 11.622 41.8672 11.818C42.2872 12.014 42.6326 12.28 42.9032 12.616C43.1739 12.952 43.3746 13.344 43.5052 13.792C43.6452 14.2307 43.7152 14.702 43.7152 15.206V15.794H38.8572V15.976C38.8572 16.508 39.0066 16.9373 39.3052 17.264C39.6039 17.5813 40.0472 17.74 40.6352 17.74C41.0832 17.74 41.4472 17.6467 41.7272 17.46C42.0166 17.2733 42.2732 17.0353 42.4972 16.746L43.4632 17.824C43.1646 18.244 42.7539 18.5753 42.2312 18.818C41.7179 19.0513 41.1206 19.168 40.4392 19.168ZM40.4112 12.868C39.9352 12.868 39.5572 13.0267 39.2772 13.344C38.9972 13.6613 38.8572 14.072 38.8572 14.576V14.688H41.8532V14.562C41.8532 14.058 41.7272 13.652 41.4752 13.344C41.2326 13.0267 40.8779 12.868 40.4112 12.868ZM47.6859 19.168C46.9859 19.168 46.3979 19.0513 45.9219 18.818C45.4459 18.5753 45.0259 18.244 44.6619 17.824L45.7539 16.76C46.0245 17.068 46.3185 17.3107 46.6359 17.488C46.9625 17.6653 47.3359 17.754 47.7559 17.754C48.1852 17.754 48.4932 17.6793 48.6799 17.53C48.8759 17.3807 48.9739 17.1753 48.9739 16.914C48.9739 16.6993 48.9039 16.5313 48.7639 16.41C48.6332 16.2793 48.4045 16.1907 48.0779 16.144L47.3499 16.046C46.5565 15.9433 45.9499 15.7193 45.5299 15.374C45.1192 15.0193 44.9139 14.506 44.9139 13.834C44.9139 13.4793 44.9792 13.162 45.1099 12.882C45.2405 12.5927 45.4272 12.35 45.6699 12.154C45.9125 11.9487 46.2019 11.7947 46.5379 11.692C46.8832 11.58 47.2659 11.524 47.6859 11.524C48.0405 11.524 48.3532 11.552 48.6239 11.608C48.9039 11.6547 49.1559 11.7293 49.3799 11.832C49.6039 11.9253 49.8092 12.0467 49.9959 12.196C50.1825 12.336 50.3645 12.4947 50.5419 12.672L49.4919 13.722C49.2772 13.498 49.0205 13.3113 48.7219 13.162C48.4232 13.0127 48.0965 12.938 47.7419 12.938C47.3499 12.938 47.0652 13.008 46.8879 13.148C46.7199 13.288 46.6359 13.47 46.6359 13.694C46.6359 13.9367 46.7059 14.1233 46.8459 14.254C46.9952 14.3753 47.2425 14.464 47.5879 14.52L48.3299 14.618C49.9072 14.842 50.6959 15.5607 50.6959 16.774C50.6959 17.1287 50.6212 17.4553 50.4719 17.754C50.3319 18.0433 50.1312 18.2953 49.8699 18.51C49.6085 18.7153 49.2912 18.8787 48.9179 19C48.5539 19.112 48.1432 19.168 47.6859 19.168ZM54.5765 19.168C53.8765 19.168 53.2885 19.0513 52.8125 18.818C52.3365 18.5753 51.9165 18.244 51.5525 17.824L52.6445 16.76C52.9152 17.068 53.2092 17.3107 53.5265 17.488C53.8532 17.6653 54.2265 17.754 54.6465 17.754C55.0758 17.754 55.3838 17.6793 55.5705 17.53C55.7665 17.3807 55.8645 17.1753 55.8645 16.914C55.8645 16.6993 55.7945 16.5313 55.6545 16.41C55.5238 16.2793 55.2952 16.1907 54.9685 16.144L54.2405 16.046C53.4472 15.9433 52.8405 15.7193 52.4205 15.374C52.0098 15.0193 51.8045 14.506 51.8045 13.834C51.8045 13.4793 51.8698 13.162 52.0005 12.882C52.1312 12.5927 52.3178 12.35 52.5605 12.154C52.8032 11.9487 53.0925 11.7947 53.4285 11.692C53.7738 11.58 54.1565 11.524 54.5765 11.524C54.9312 11.524 55.2438 11.552 55.5145 11.608C55.7945 11.6547 56.0465 11.7293 56.2705 11.832C56.4945 11.9253 56.6998 12.0467 56.8865 12.196C57.0732 12.336 57.2552 12.4947 57.4325 12.672L56.3825 13.722C56.1678 13.498 55.9112 13.3113 55.6125 13.162C55.3138 13.0127 54.9872 12.938 54.6325 12.938C54.2405 12.938 53.9558 13.008 53.7785 13.148C53.6105 13.288 53.5265 13.47 53.5265 13.694C53.5265 13.9367 53.5965 14.1233 53.7365 14.254C53.8858 14.3753 54.1332 14.464 54.4785 14.52L55.2205 14.618C56.7978 14.842 57.5865 15.5607 57.5865 16.774C57.5865 17.1287 57.5118 17.4553 57.3625 17.754C57.2225 18.0433 57.0218 18.2953 56.7605 18.51C56.4992 18.7153 56.1818 18.8787 55.8085 19C55.4445 19.112 55.0338 19.168 54.5765 19.168ZM59.1688 19V11.692H60.9608V12.91H61.0308C61.1708 12.5273 61.3948 12.2007 61.7028 11.93C62.0108 11.6593 62.4401 11.524 62.9908 11.524C63.4948 11.524 63.9288 11.6453 64.2928 11.888C64.6568 12.1307 64.9275 12.4993 65.1048 12.994H65.1328C65.2635 12.5833 65.5201 12.238 65.9028 11.958C66.2948 11.6687 66.7848 11.524 67.3728 11.524C68.0915 11.524 68.6421 11.7713 69.0248 12.266C69.4168 12.7607 69.6128 13.4653 69.6128 14.38V19H67.8208V14.562C67.8208 13.5167 67.4288 12.994 66.6448 12.994C66.4675 12.994 66.2948 13.022 66.1268 13.078C65.9681 13.1247 65.8235 13.1993 65.6928 13.302C65.5715 13.3953 65.4735 13.5167 65.3988 13.666C65.3241 13.806 65.2868 13.974 65.2868 14.17V19H63.4948V14.562C63.4948 13.5167 63.1028 12.994 62.3188 12.994C62.1508 12.994 61.9828 13.022 61.8148 13.078C61.6561 13.1247 61.5115 13.1993 61.3808 13.302C61.2595 13.3953 61.1568 13.5167 61.0728 13.666C60.9981 13.806 60.9608 13.974 60.9608 14.17V19H59.1688ZM74.5505 19.168C74.0092 19.168 73.5239 19.0793 73.0945 18.902C72.6745 18.7153 72.3152 18.4587 72.0165 18.132C71.7272 17.796 71.5032 17.3947 71.3445 16.928C71.1859 16.452 71.1065 15.92 71.1065 15.332C71.1065 14.7533 71.1812 14.2307 71.3305 13.764C71.4892 13.2973 71.7132 12.9007 72.0025 12.574C72.2919 12.238 72.6465 11.9813 73.0665 11.804C73.4865 11.6173 73.9625 11.524 74.4945 11.524C75.0639 11.524 75.5585 11.622 75.9785 11.818C76.3985 12.014 76.7439 12.28 77.0145 12.616C77.2852 12.952 77.4859 13.344 77.6165 13.792C77.7565 14.2307 77.8265 14.702 77.8265 15.206V15.794H72.9685V15.976C72.9685 16.508 73.1179 16.9373 73.4165 17.264C73.7152 17.5813 74.1585 17.74 74.7465 17.74C75.1945 17.74 75.5585 17.6467 75.8385 17.46C76.1279 17.2733 76.3845 17.0353 76.6085 16.746L77.5745 17.824C77.2759 18.244 76.8652 18.5753 76.3425 18.818C75.8292 19.0513 75.2319 19.168 74.5505 19.168ZM74.5225 12.868C74.0465 12.868 73.6685 13.0267 73.3885 13.344C73.1085 13.6613 72.9685 14.072 72.9685 14.576V14.688H75.9645V14.562C75.9645 14.058 75.8385 13.652 75.5865 13.344C75.3439 13.0267 74.9892 12.868 74.5225 12.868ZM79.4032 19V11.692H81.1952V12.91H81.2652C81.4145 12.518 81.6479 12.1913 81.9652 11.93C82.2919 11.6593 82.7399 11.524 83.3092 11.524C84.0652 11.524 84.6439 11.7713 85.0452 12.266C85.4465 12.7607 85.6472 13.4653 85.6472 14.38V19H83.8552V14.562C83.8552 14.0393 83.7619 13.6473 83.5752 13.386C83.3885 13.1247 83.0805 12.994 82.6512 12.994C82.4645 12.994 82.2825 13.022 82.1052 13.078C81.9372 13.1247 81.7832 13.1993 81.6432 13.302C81.5125 13.3953 81.4052 13.5167 81.3212 13.666C81.2372 13.806 81.1952 13.974 81.1952 14.17V19H79.4032ZM89.9157 19C89.2997 19 88.8283 18.8413 88.5017 18.524C88.1843 18.1973 88.0257 17.7353 88.0257 17.138V13.12H86.9477V11.692H87.5077C87.7783 11.692 87.9603 11.6313 88.0537 11.51C88.1563 11.3793 88.2077 11.188 88.2077 10.936V9.69H89.8177V11.692H91.3157V13.12H89.8177V17.572H91.2037V19H89.9157Z" fill="black"/>
</svg>
