<svg width="104" height="28" viewBox="0 0 104 28" fill="none" xmlns="http://www.w3.org/2000/svg">
<rect width="104" height="28" rx="3" fill="#CFCFCF"/>
<path d="M32.2857 19V9.228H36.6817C37.1297 9.228 37.531 9.30267 37.8857 9.452C38.2497 9.592 38.5577 9.79733 38.8097 10.068C39.0617 10.3293 39.253 10.6467 39.3837 11.02C39.5144 11.3933 39.5797 11.804 39.5797 12.252C39.5797 12.7093 39.5144 13.1247 39.3837 13.498C39.253 13.862 39.0617 14.1793 38.8097 14.45C38.5577 14.7113 38.2497 14.9167 37.8857 15.066C37.531 15.206 37.1297 15.276 36.6817 15.276H34.1337V19H32.2857ZM34.1337 13.68H36.5137C36.8684 13.68 37.1484 13.5867 37.3537 13.4C37.559 13.204 37.6617 12.9287 37.6617 12.574V11.93C37.6617 11.5753 37.559 11.3047 37.3537 11.118C37.1484 10.9313 36.8684 10.838 36.5137 10.838H34.1337V13.68ZM41.0057 19V11.692H42.7977V13.204H42.8677C42.9144 13.008 42.9844 12.8213 43.0777 12.644C43.1804 12.4573 43.3111 12.294 43.4697 12.154C43.6284 12.014 43.8151 11.902 44.0297 11.818C44.2537 11.734 44.5104 11.692 44.7997 11.692H45.1917V13.386H44.6317C44.0251 13.386 43.5677 13.4747 43.2597 13.652C42.9517 13.8293 42.7977 14.1187 42.7977 14.52V19H41.0057ZM49.3315 19.168C48.8088 19.168 48.3375 19.0793 47.9175 18.902C47.5068 18.7247 47.1521 18.468 46.8535 18.132C46.5641 17.796 46.3401 17.3947 46.1815 16.928C46.0228 16.452 45.9435 15.92 45.9435 15.332C45.9435 14.744 46.0228 14.2167 46.1815 13.75C46.3401 13.2833 46.5641 12.8867 46.8535 12.56C47.1521 12.224 47.5068 11.9673 47.9175 11.79C48.3375 11.6127 48.8088 11.524 49.3315 11.524C49.8541 11.524 50.3255 11.6127 50.7455 11.79C51.1655 11.9673 51.5201 12.224 51.8095 12.56C52.1081 12.8867 52.3368 13.2833 52.4955 13.75C52.6541 14.2167 52.7335 14.744 52.7335 15.332C52.7335 15.92 52.6541 16.452 52.4955 16.928C52.3368 17.3947 52.1081 17.796 51.8095 18.132C51.5201 18.468 51.1655 18.7247 50.7455 18.902C50.3255 19.0793 49.8541 19.168 49.3315 19.168ZM49.3315 17.726C49.8075 17.726 50.1808 17.5813 50.4515 17.292C50.7221 17.0027 50.8575 16.578 50.8575 16.018V14.66C50.8575 14.1093 50.7221 13.6893 50.4515 13.4C50.1808 13.1107 49.8075 12.966 49.3315 12.966C48.8648 12.966 48.4961 13.1107 48.2255 13.4C47.9548 13.6893 47.8195 14.1093 47.8195 14.66V16.018C47.8195 16.578 47.9548 17.0027 48.2255 17.292C48.4961 17.5813 48.8648 17.726 49.3315 17.726ZM54.6041 13.106H53.5261V11.692H54.6041V10.642C54.6041 9.998 54.7721 9.50333 55.1081 9.158C55.4534 8.81267 55.9574 8.64 56.6201 8.64H57.8941V10.068H56.3961V11.692H60.9041V19H59.1121V13.106H56.3961V19H54.6041V13.106ZM60.0081 10.628C59.6348 10.628 59.3641 10.544 59.1961 10.376C59.0374 10.208 58.9581 9.99333 58.9581 9.732V9.452C58.9581 9.19067 59.0374 8.976 59.1961 8.808C59.3641 8.64 59.6348 8.556 60.0081 8.556C60.3721 8.556 60.6381 8.64 60.8061 8.808C60.9741 8.976 61.0581 9.19067 61.0581 9.452V9.732C61.0581 9.99333 60.9741 10.208 60.8061 10.376C60.6381 10.544 60.3721 10.628 60.0081 10.628ZM64.7684 19C64.1524 19 63.6998 18.846 63.4104 18.538C63.1211 18.23 62.9764 17.796 62.9764 17.236V8.64H64.7684V17.572H65.7344V19H64.7684ZM70.0457 19.168C69.5043 19.168 69.019 19.0793 68.5897 18.902C68.1697 18.7153 67.8103 18.4587 67.5117 18.132C67.2223 17.796 66.9983 17.3947 66.8397 16.928C66.681 16.452 66.6017 15.92 66.6017 15.332C66.6017 14.7533 66.6763 14.2307 66.8257 13.764C66.9843 13.2973 67.2083 12.9007 67.4977 12.574C67.787 12.238 68.1417 11.9813 68.5617 11.804C68.9817 11.6173 69.4577 11.524 69.9897 11.524C70.559 11.524 71.0537 11.622 71.4737 11.818C71.8937 12.014 72.239 12.28 72.5097 12.616C72.7803 12.952 72.981 13.344 73.1117 13.792C73.2517 14.2307 73.3217 14.702 73.3217 15.206V15.794H68.4637V15.976C68.4637 16.508 68.613 16.9373 68.9117 17.264C69.2103 17.5813 69.6537 17.74 70.2417 17.74C70.6897 17.74 71.0537 17.6467 71.3337 17.46C71.623 17.2733 71.8797 17.0353 72.1037 16.746L73.0697 17.824C72.771 18.244 72.3603 18.5753 71.8377 18.818C71.3243 19.0513 70.727 19.168 70.0457 19.168ZM70.0177 12.868C69.5417 12.868 69.1637 13.0267 68.8837 13.344C68.6037 13.6613 68.4637 14.072 68.4637 14.576V14.688H71.4597V14.562C71.4597 14.058 71.3337 13.652 71.0817 13.344C70.839 13.0267 70.4843 12.868 70.0177 12.868Z" fill="black"/>
</svg>
