<svg width="191" height="191" viewBox="0 0 191 191" fill="none" xmlns="http://www.w3.org/2000/svg">
<circle cx="95.5" cy="95.5" r="95.5" fill="#EDF4F6"/>
<g clip-path="url(#clip0_350_424)">
<path d="M135.003 38.0171L122.957 45.0342L110.828 38.0171L122.874 31L135.003 38.0171Z" fill="#8F99FF"/>
<path d="M134.999 38.0176L134.806 109.393L122.746 116.41L122.953 45.0347L134.999 38.0176Z" fill="#E7A1D2"/>
<path d="M122.955 45.0347L122.748 116.41L110.633 109.393L110.826 38.0176L122.955 45.0347Z" fill="#E18AC7"/>
<path d="M116.284 61.4624L104.238 68.4795L92.1094 61.4624L104.155 54.4453L116.284 61.4624Z" fill="#8F99FF"/>
<path d="M116.284 61.4629L116.118 120.949L104.059 127.966L104.238 68.48L116.284 61.4629Z" fill="#E7A1D2"/>
<path d="M104.238 68.48L104.058 127.966L91.9297 120.949L92.1093 61.4629L104.238 68.48Z" fill="#E18AC7"/>
<path d="M96.53 90.3472L84.4704 97.3504L72.3555 90.3472L84.4013 83.3301L96.53 90.3472Z" fill="#8F99FF"/>
<path d="M96.5295 90.3477L96.4052 131.98L84.3594 138.997L84.4699 97.3509L96.5295 90.3477Z" fill="#E7A1D2"/>
<path d="M84.4697 97.3509L84.3592 138.997L72.2305 131.98L72.3548 90.3477L84.4697 97.3509Z" fill="#E18AC7"/>
<path d="M77.2566 113.24L65.2107 120.257L53.082 113.24L65.1279 106.223L77.2566 113.24Z" fill="#8F99FF"/>
<path d="M77.2576 113.24L77.1747 142.983L65.1289 150L65.2118 120.257L77.2576 113.24Z" fill="#E7A1D2"/>
<path d="M65.2116 120.257L65.1287 150L53 142.983L53.0829 113.24L65.2116 120.257Z" fill="#E18AC7"/>
</g>
<defs>
<clipPath id="clip0_350_424">
<rect width="82" height="119" fill="white" transform="translate(53 31)"/>
</clipPath>
</defs>
</svg>
