<svg width="191" height="191" viewBox="0 0 191 191" fill="none" xmlns="http://www.w3.org/2000/svg">
<circle cx="95.5" cy="95.5" r="95.5" fill="#EDF4F6"/>
<g clip-path="url(#clip0_204_808)">
<path d="M119.168 130.564H101.044C100.641 130.564 100.326 130.234 100.326 129.829C100.326 129.423 100.653 129.106 101.044 129.106H119.168C120.73 129.106 121.99 127.826 121.99 126.266V53.2975C121.99 51.7256 120.718 50.4579 119.168 50.4579H82.9441C81.3823 50.4579 80.1227 51.7382 80.1227 53.2975V90.3144C80.1227 90.72 79.7953 91.0496 79.3922 91.0496C78.9892 91.0496 78.6743 90.72 78.6743 90.3144V53.2975C78.6743 50.9269 80.5888 49 82.9441 49H119.168C121.524 49 123.438 50.9269 123.438 53.2975V126.266C123.438 128.637 121.524 130.564 119.168 130.564Z" fill="#607D87"/>
<path d="M106.623 55.6934H95.4891C94.3051 55.6934 93.3353 54.7173 93.3353 53.5256V52.9805C93.3353 52.5749 93.6627 52.2579 94.0658 52.2579C94.4688 52.2579 94.7837 52.5875 94.7837 52.9805V53.5256C94.7837 53.9186 95.0986 54.2355 95.4891 54.2355H106.623C107.014 54.2355 107.329 53.9186 107.329 53.5256V52.9805C107.329 52.5749 107.656 52.2579 108.047 52.2579C108.437 52.2579 108.777 52.5875 108.777 52.9805V53.5256C108.777 54.7173 107.807 55.6934 106.623 55.6934Z" fill="#607D87"/>
<path d="M132.305 62.1967C129.547 62.1967 127.292 59.9275 127.292 57.1513C127.292 54.375 129.547 52.1058 132.305 52.1058V53.5637C130.34 53.5637 128.741 55.1737 128.741 57.1513C128.741 59.1289 130.34 60.7389 132.305 60.7389C134.27 60.7389 135.87 59.1289 135.87 57.1513H137.318C137.318 59.9402 135.064 62.1967 132.305 62.1967Z" fill="#607D87"/>
<path d="M135.693 56.0357C135.341 54.9582 134.497 54.1088 133.426 53.7539L133.88 52.3721C135.379 52.8665 136.575 54.0708 137.066 55.5794L135.693 56.0357Z" fill="#607D87"/>
<path d="M132.305 75.4823C131.021 75.4823 129.736 74.9878 128.766 74.0117C126.814 72.0468 126.814 68.8395 128.766 66.8746C129.711 65.9238 130.97 65.3914 132.305 65.3914C133.64 65.3914 134.9 65.9111 135.845 66.8746L134.824 67.9014C134.144 67.2168 133.25 66.8492 132.305 66.8492C131.361 66.8492 130.454 67.2168 129.786 67.9014C128.401 69.2959 128.401 71.5777 129.786 72.9722C131.172 74.3667 133.439 74.3667 134.824 72.9722L135.845 73.999C134.862 74.9878 133.577 75.4696 132.305 75.4696V75.4823Z" fill="#607D87"/>
<path d="M136.777 72.706L135.479 72.0467C135.983 71.0326 135.983 69.8283 135.479 68.8141L136.777 68.1549C137.482 69.5747 137.482 71.2735 136.777 72.6933V72.706Z" fill="#607D87"/>
<path d="M135.845 87.2972L134.824 86.2704C136.21 84.8759 136.21 82.5941 134.824 81.1996C134.144 80.5277 133.25 80.1474 132.305 80.1474C131.361 80.1474 130.454 80.515 129.786 81.1996C128.401 82.5941 128.401 84.8759 129.786 86.2704L128.766 87.2972C126.814 85.3323 126.814 82.125 128.766 80.1601C129.711 79.2093 130.97 78.6769 132.305 78.6769C133.64 78.6769 134.9 79.1966 135.845 80.1601C137.797 82.125 137.797 85.3323 135.845 87.2972Z" fill="#607D87"/>
<path d="M132.305 88.7677C131.524 88.7677 130.756 88.5903 130.051 88.2353L130.706 86.9296C131.713 87.4366 132.91 87.4366 133.917 86.9296L134.572 88.2353C133.867 88.5903 133.099 88.7677 132.318 88.7677H132.305Z" fill="#607D87"/>
<path d="M132.305 102.053V100.595C134.27 100.595 135.87 98.9855 135.87 97.0078C135.87 95.0302 134.27 93.4203 132.305 93.4203C130.34 93.4203 128.741 95.0302 128.741 97.0078H127.292C127.292 94.2316 129.547 91.9624 132.305 91.9624C135.064 91.9624 137.318 94.2316 137.318 97.0078C137.318 99.7841 135.064 102.053 132.305 102.053Z" fill="#607D87"/>
<path d="M130.731 101.8C129.232 101.305 128.035 100.101 127.544 98.5925L128.917 98.1361C129.27 99.2137 130.114 100.063 131.184 100.418L130.731 101.8Z" fill="#607D87"/>
<path d="M132.305 115.339C130.97 115.339 129.711 114.819 128.766 113.855L129.786 112.829C130.454 113.501 131.361 113.881 132.305 113.881C133.25 113.881 134.157 113.513 134.824 112.829C136.21 111.434 136.21 109.152 134.824 107.758C134.144 107.073 133.25 106.706 132.305 106.706C131.361 106.706 130.454 107.073 129.786 107.758L128.766 106.731C129.711 105.78 130.97 105.248 132.305 105.248C133.64 105.248 134.9 105.768 135.845 106.731C137.797 108.696 137.797 111.903 135.845 113.868C134.9 114.819 133.64 115.351 132.305 115.351V115.339Z" fill="#607D87"/>
<path d="M127.821 112.562C127.116 111.143 127.116 109.444 127.821 108.024L129.119 108.683C128.615 109.697 128.615 110.902 129.119 111.916L127.821 112.575V112.562Z" fill="#607D87"/>
<path d="M132.305 128.612C129.547 128.612 127.292 126.342 127.292 123.566H128.741C128.741 125.544 130.34 127.154 132.305 127.154C134.27 127.154 135.87 125.544 135.87 123.566C135.87 121.588 134.27 119.978 132.305 119.978V118.521C135.064 118.521 137.318 120.79 137.318 123.566C137.318 126.342 135.064 128.612 132.305 128.612Z" fill="#607D87"/>
<path d="M128.917 122.451L127.544 121.994C128.035 120.486 129.232 119.281 130.731 118.787L131.184 120.169C130.114 120.524 129.27 121.373 128.917 122.451Z" fill="#607D87"/>
<path d="M116.851 110.978C116.737 110.978 116.624 110.953 116.511 110.889L113.828 109.469L111.145 110.889C110.906 111.016 110.603 110.991 110.389 110.838C110.163 110.674 110.049 110.395 110.1 110.129L110.616 107.124L108.437 104.994C108.236 104.804 108.173 104.513 108.248 104.246C108.336 103.98 108.563 103.79 108.828 103.752L111.825 103.308L113.173 100.57C113.299 100.317 113.551 100.164 113.828 100.164C114.105 100.164 114.357 100.317 114.483 100.57L115.831 103.308L118.828 103.752C119.105 103.79 119.332 103.98 119.408 104.246C119.496 104.513 119.42 104.804 119.219 104.994L117.04 107.124L117.556 110.129C117.606 110.407 117.493 110.674 117.266 110.838C117.14 110.927 116.989 110.978 116.838 110.978H116.851ZM113.828 107.91C113.941 107.91 114.055 107.935 114.168 107.999L115.894 108.912L115.566 106.972C115.528 106.731 115.604 106.49 115.768 106.325L117.166 104.956L115.239 104.677C114.999 104.639 114.798 104.5 114.697 104.284L113.84 102.522L112.971 104.284C112.871 104.5 112.657 104.652 112.43 104.677L110.503 104.956L111.901 106.325C112.077 106.49 112.153 106.731 112.102 106.972L111.775 108.912L113.5 107.999C113.601 107.948 113.727 107.91 113.84 107.91H113.828Z" fill="#607D87"/>
<path d="M110.805 125.24C110.654 125.24 110.503 125.189 110.377 125.1C110.15 124.935 110.037 124.656 110.087 124.39L110.603 121.386L108.424 119.256C108.223 119.066 108.16 118.774 108.236 118.508C108.324 118.242 108.55 118.052 108.815 118.014L111.813 117.57L113.16 114.832C113.286 114.578 113.538 114.426 113.815 114.426C114.092 114.426 114.344 114.578 114.47 114.832L115.818 117.57L118.816 118.014C119.093 118.052 119.319 118.242 119.395 118.508C119.483 118.774 119.408 119.066 119.206 119.256L117.027 121.386L117.543 124.39C117.594 124.669 117.481 124.935 117.254 125.1C117.027 125.265 116.737 125.29 116.485 125.151L113.803 123.731L111.12 125.151C111.019 125.201 110.893 125.24 110.78 125.24H110.805ZM113.828 122.184C113.941 122.184 114.055 122.21 114.168 122.273L115.894 123.186L115.566 121.246C115.528 121.005 115.604 120.765 115.768 120.6L117.166 119.231L115.239 118.952C114.999 118.914 114.798 118.774 114.697 118.559L113.84 116.797L112.971 118.559C112.871 118.774 112.656 118.926 112.43 118.952L110.503 119.231L111.901 120.6C112.077 120.765 112.153 121.005 112.102 121.246L111.775 123.186L113.5 122.273C113.601 122.222 113.727 122.184 113.84 122.184H113.828Z" fill="#607D87"/>
<path d="M117.556 80.1474H84.5689C84.1659 80.1474 83.8384 79.8178 83.8384 79.4248V60.1431C83.8384 59.7375 84.1659 59.4205 84.5689 59.4205C84.972 59.4205 85.2868 59.7501 85.2868 60.1431V78.7023H117.544C117.947 78.7023 118.274 79.0319 118.274 79.4248C118.274 79.8178 117.947 80.1474 117.544 80.1474H117.556Z" fill="#607D87"/>
<path d="M88.8261 80.1475C88.4231 80.1475 88.1082 79.8179 88.1082 79.4249V67.7747C88.1082 67.3691 88.4357 67.0521 88.8261 67.0521C89.2166 67.0521 89.5441 67.3817 89.5441 67.7747V79.4249C89.5441 79.8305 89.2166 80.1475 88.8261 80.1475Z" fill="#607D87"/>
<path d="M93.096 80.1475C92.6929 80.1475 92.378 79.8179 92.378 79.4249V71.0961C92.378 70.6904 92.7055 70.3608 93.096 70.3608C93.4864 70.3608 93.8139 70.6904 93.8139 71.0961V79.4249C93.8139 79.8306 93.4864 80.1475 93.096 80.1475Z" fill="#607D87"/>
<path d="M97.3532 80.1474C96.9501 80.1474 96.6353 79.8178 96.6353 79.4248V68.8268C96.6353 68.4212 96.9627 68.1042 97.3532 68.1042C97.7436 68.1042 98.0711 68.4339 98.0711 68.8268V79.4248C98.0711 79.8305 97.7436 80.1474 97.3532 80.1474Z" fill="#607D87"/>
<path d="M101.61 80.1475C101.207 80.1475 100.892 79.8178 100.892 79.4249V73.5934C100.892 73.1878 101.22 72.8708 101.61 72.8708C102.001 72.8708 102.341 73.2005 102.341 73.5934V79.4249C102.341 79.8305 102.013 80.1475 101.61 80.1475Z" fill="#607D87"/>
<path d="M105.868 80.1474C105.465 80.1474 105.137 79.8178 105.137 79.4249V75.7866C105.137 75.3809 105.465 75.064 105.868 75.064C106.271 75.064 106.586 75.3936 106.586 75.7866V79.4249C106.586 79.8305 106.258 80.1474 105.868 80.1474Z" fill="#607D87"/>
<path d="M110.137 80.1475C109.734 80.1475 109.407 79.8179 109.407 79.4249V65.5943C109.407 65.1886 109.734 64.859 110.137 64.859C110.54 64.859 110.855 65.1886 110.855 65.5943V79.4249C110.855 79.8306 110.528 80.1475 110.137 80.1475Z" fill="#607D87"/>
<path d="M114.395 80.1474C113.992 80.1474 113.677 79.8178 113.677 79.4248V72.1482C113.677 71.7426 114.004 71.4257 114.395 71.4257C114.785 71.4257 115.113 71.7553 115.113 72.1482V79.4248C115.113 79.8305 114.785 80.1474 114.395 80.1474Z" fill="#607D87"/>
<path d="M85.438 133.53C81.017 133.53 76.7976 132.148 73.2457 129.524C67.943 125.62 64.7816 119.345 64.7816 112.74C64.7816 107.264 66.885 102.091 70.6888 98.1741C70.9659 97.8826 71.432 97.8826 71.7091 98.1741C71.9987 98.453 71.9987 98.9221 71.7091 99.201C68.1698 102.839 66.2175 107.644 66.2175 112.74C66.2175 118.876 69.1648 124.72 74.0896 128.345C77.3896 130.779 81.3193 132.072 85.4254 132.072C87.7051 132.072 89.9471 131.667 92.0757 130.881C92.4536 130.741 92.8692 130.932 93.0078 131.312C93.1463 131.692 92.9574 132.11 92.5795 132.25C90.2998 133.099 87.8941 133.53 85.438 133.53Z" fill="#607D87"/>
<path d="M95.3631 130.868C95.1112 130.868 94.8719 130.741 94.7333 130.5C94.5318 130.146 94.6578 129.702 94.9978 129.512C97.4917 128.067 99.6707 126.051 101.296 123.668C103.5 120.448 104.658 116.657 104.658 112.74C104.658 108.823 103.437 104.817 101.107 101.546C100.88 101.217 100.955 100.76 101.283 100.532C101.61 100.304 102.064 100.38 102.291 100.697C104.784 104.234 106.107 108.392 106.107 112.74C106.107 117.088 104.86 121.031 102.492 124.492C100.741 127.052 98.3986 129.233 95.7284 130.779C95.615 130.843 95.489 130.881 95.3631 130.881V130.868Z" fill="#607D87"/>
<path d="M99.6707 99.4039C99.4818 99.4039 99.2929 99.3278 99.1543 99.1884C95.5142 95.4487 90.6399 93.395 85.438 93.395C81.7601 93.395 78.1831 94.4472 75.0972 96.4375C74.7319 96.6783 74.3667 96.9319 74.014 97.1854C73.6991 97.4263 73.2457 97.3629 73.0064 97.0333C72.7671 96.7164 72.8426 96.26 73.1575 96.0191C73.5354 95.7402 73.9258 95.4613 74.3289 95.2078C77.6541 93.0654 81.4956 91.9371 85.4506 91.9371C91.0429 91.9371 96.2826 94.1556 100.2 98.1742C100.477 98.4658 100.477 98.9222 100.2 99.2011C100.061 99.3405 99.8722 99.4166 99.6959 99.4166L99.6707 99.4039Z" fill="#607D87"/>
<path d="M59.1515 143C58.1817 143 57.2118 142.632 56.4813 141.884C55.0076 140.401 55.0076 137.993 56.4813 136.509L66.5953 126.33C66.8724 126.051 67.3385 126.051 67.6156 126.33C67.8927 126.609 67.8927 127.078 67.6156 127.357L57.5015 137.536C56.5946 138.449 56.5946 139.945 57.5015 140.858C58.4084 141.77 59.8946 141.77 60.8015 140.858L73.1575 128.421C73.4346 128.143 73.9006 128.143 74.1777 128.421C74.4548 128.7 74.4548 129.169 74.1777 129.448L61.8217 141.884C61.0912 142.62 60.1213 143 59.1515 143Z" fill="#607D87"/>
<path d="M98.6505 111.612H87.554C87.1509 111.612 86.8235 111.282 86.8235 110.889V99.7335C86.8235 99.3278 87.1509 99.0109 87.554 99.0109C89.9471 99.0109 92.2646 99.7335 94.2295 101.09C97.4161 103.296 99.3306 106.921 99.3684 110.813C99.3684 110.839 99.3684 110.864 99.3684 110.902C99.3684 111.308 99.0409 111.624 98.6379 111.624L98.6505 111.612ZM88.2845 110.154H97.8948C97.6806 106.997 96.0307 104.082 93.4108 102.269C91.8742 101.217 90.1108 100.595 88.2719 100.469V110.141L88.2845 110.154Z" fill="#607D87"/>
<path d="M85.4506 126.469C81.4075 126.469 77.6792 124.416 75.5002 120.98C74.2785 119.066 73.6361 116.86 73.6361 114.578C73.6361 114.173 73.9636 113.856 74.3541 113.856H96.5345C96.9375 113.856 97.265 114.185 97.265 114.578C97.265 117.126 96.4841 119.548 94.9852 121.601C92.7685 124.644 89.204 126.469 85.4506 126.469ZM75.1098 115.313C75.2357 117.05 75.7773 118.736 76.7094 120.207C78.6239 123.224 81.8987 125.024 85.4506 125.024C88.738 125.024 91.8742 123.427 93.8139 120.752C94.9726 119.155 95.6528 117.291 95.7913 115.313H75.1098Z" fill="#607D87"/>
<path d="M83.3345 111.612H72.238C71.835 111.612 71.5201 111.282 71.5201 110.889C71.5201 104.335 76.8228 98.9982 83.3345 98.9982C83.7376 98.9982 84.0525 99.3278 84.0525 99.7208V110.877C84.0525 111.282 83.725 111.599 83.3345 111.599V111.612ZM72.9938 110.167H82.6166V100.494C77.4777 100.849 73.359 104.994 72.9938 110.167Z" fill="#607D87"/>
<path d="M93.0959 106.034C92.907 106.034 92.7307 105.958 92.5795 105.818C92.3024 105.539 92.3024 105.07 92.5795 104.792L101.434 95.8796C101.661 95.6514 101.963 95.5247 102.291 95.5247H115.755C116.158 95.5247 116.473 95.8543 116.473 96.2472C116.473 96.6402 116.145 96.9825 115.755 96.9825H102.379L93.5872 105.831C93.4486 105.971 93.2597 106.047 93.0707 106.047L93.0959 106.034Z" fill="#607D87"/>
<path d="M115.768 93.0146H102.102C101.699 93.0146 101.371 92.685 101.371 92.292C101.371 91.8991 101.699 91.5695 102.102 91.5695H115.768C116.171 91.5695 116.485 91.8991 116.485 92.292C116.485 92.685 116.158 93.0146 115.768 93.0146Z" fill="#607D87"/>
<path d="M115.768 89.0467H102.102C101.699 89.0467 101.371 88.7171 101.371 88.3241C101.371 87.9311 101.699 87.5889 102.102 87.5889H115.768C116.171 87.5889 116.485 87.9185 116.485 88.3241C116.485 88.7298 116.158 89.0467 115.768 89.0467Z" fill="#607D87"/>
<path d="M77.7926 106.034C77.6037 106.034 77.4273 105.958 77.2762 105.818L68.4846 96.9698H55.121C54.7179 96.9698 54.403 96.6402 54.403 96.2346C54.403 95.8289 54.7305 95.512 55.121 95.512H68.598C68.9129 95.512 69.2278 95.6387 69.4545 95.8669L78.309 104.779C78.5861 105.058 78.5861 105.527 78.309 105.806C78.1705 105.945 77.9815 106.021 77.7926 106.021V106.034Z" fill="#607D87"/>
<path d="M68.7869 93.0146H55.121C54.7179 93.0146 54.403 92.685 54.403 92.292C54.403 91.8991 54.7305 91.5695 55.121 91.5695H68.7869C69.19 91.5695 69.5049 91.8991 69.5049 92.292C69.5049 92.685 69.1774 93.0146 68.7869 93.0146Z" fill="#607D87"/>
<path d="M68.7869 89.0467H55.121C54.7179 89.0467 54.403 88.7171 54.403 88.3241C54.403 87.9311 54.7305 87.5889 55.121 87.5889H68.7869C69.19 87.5889 69.5049 87.9185 69.5049 88.3241C69.5049 88.7298 69.1774 89.0467 68.7869 89.0467Z" fill="#607D87"/>
<path d="M113.123 134.481H99.1543C98.8394 134.481 98.5245 134.354 98.2978 134.126L84.9341 120.676C84.657 120.397 84.657 119.928 84.9341 119.649C85.2112 119.37 85.6773 119.37 85.9544 119.649L99.2424 133.023H113.11C113.513 133.023 113.84 133.353 113.84 133.746C113.84 134.139 113.513 134.481 113.11 134.481H113.123Z" fill="#607D87"/>
<path d="M113.123 138.614H98.9528C98.5497 138.614 98.2222 138.284 98.2222 137.891C98.2222 137.498 98.5497 137.169 98.9528 137.169H113.123C113.526 137.169 113.853 137.498 113.853 137.891C113.853 138.284 113.526 138.614 113.123 138.614Z" fill="#607D87"/>
<path d="M58.5595 82.2265C58.1565 82.2265 57.8416 81.8969 57.8416 81.5039V66.583H54.7179C54.4534 66.583 54.2015 66.4309 54.0756 66.1901C53.9496 65.9492 53.9622 65.6576 54.1133 65.4421L61.3557 54.7554C61.4942 54.5526 61.7083 54.4385 61.9477 54.4385C62.187 54.4385 62.4137 54.5526 62.5522 54.7554L69.782 65.4548C69.9331 65.683 69.9457 65.9619 69.8197 66.2027C69.6938 66.4436 69.4545 66.5957 69.1774 66.5957H66.0663V77.536C66.0663 77.9416 65.7388 78.2712 65.3484 78.2712C64.9579 78.2712 64.6305 77.9416 64.6305 77.536V65.8731C64.6305 65.4675 64.9579 65.1505 65.3484 65.1505H67.8171L61.9477 56.4795L56.0908 65.1252H58.5595C58.9626 65.1252 59.2774 65.4548 59.2774 65.8478V81.4912C59.2774 81.8969 58.95 82.2138 58.5595 82.2138V82.2265Z" fill="#607D87"/>
</g>
<defs>
<clipPath id="clip0_204_808">
<rect width="83.3182" height="94" fill="white" transform="translate(54 49)"/>
</clipPath>
</defs>
</svg>
