<svg width="191" height="191" viewBox="0 0 191 191" fill="none" xmlns="http://www.w3.org/2000/svg">
<circle cx="95.5" cy="95.5" r="95.5" fill="#EDF4F6"/>
<g clip-path="url(#clip0_204_672)">
<path d="M114.403 82.0745C114.039 82.0745 113.755 81.7788 113.755 81.4261V58.8564C113.755 57.4458 112.606 56.3082 111.207 56.3082H78.4973C77.087 56.3082 75.9497 57.4572 75.9497 58.8564V60.6993C75.9497 61.0633 75.654 61.3477 75.3014 61.3477C74.9488 61.3477 74.6531 61.052 74.6531 60.6993V58.8564C74.6531 56.7291 76.3819 55 78.5087 55H111.218C113.345 55 115.074 56.7291 115.074 58.8564V81.4147C115.074 81.7788 114.778 82.0631 114.426 82.0631L114.403 82.0745Z" fill="#607D87"/>
<path d="M98.9807 128.192H81.6932C81.3293 128.192 81.0449 127.896 81.0449 127.544C81.0449 127.191 81.3406 126.895 81.6932 126.895H98.9807C99.3446 126.895 99.6289 127.191 99.6289 127.544C99.6289 127.896 99.3332 128.192 98.9807 128.192Z" fill="#607D87"/>
<path d="M75.29 123.323C74.9261 123.323 74.6418 123.028 74.6418 122.675V117.988C74.6418 117.624 74.9375 117.328 75.29 117.328C75.6426 117.328 75.9383 117.624 75.9383 117.988V122.675C75.9383 123.039 75.6426 123.323 75.29 123.323Z" fill="#607D87"/>
<path d="M99.8792 61.0065H89.8252C88.7561 61.0065 87.8917 60.1305 87.8917 59.0612V58.572C87.8917 58.208 88.1874 57.9122 88.54 57.9122C88.8925 57.9122 89.1883 58.208 89.1883 58.572V59.0612C89.1883 59.4138 89.4726 59.6982 89.8252 59.6982H99.8792C100.232 59.6982 100.516 59.4138 100.516 59.0612V58.572C100.516 58.208 100.812 57.9122 101.164 57.9122C101.517 57.9122 101.813 58.208 101.813 58.572V59.0612C101.813 60.1305 100.948 61.0065 99.8678 61.0065H99.8792Z" fill="#607D87"/>
<path d="M129.996 81.4716H128.529C128.165 81.4716 127.869 81.1759 127.869 80.8118C127.869 80.4478 128.165 80.1634 128.529 80.1634H129.78V77.3877H128.529C128.222 77.3877 127.96 77.1829 127.892 76.8872C127.687 76.034 127.346 75.2149 126.879 74.4527C126.72 74.1911 126.754 73.8612 126.97 73.645L127.858 72.7577L125.89 70.7897L125.003 71.677C124.787 71.8932 124.457 71.9273 124.195 71.768C123.445 71.3016 122.626 70.9603 121.761 70.7556C121.466 70.6873 121.261 70.4257 121.261 70.1185V68.8672H118.486V70.1185C118.486 70.4826 118.19 70.7783 117.838 70.7783C117.485 70.7783 117.178 70.4826 117.178 70.1185V68.651C117.178 68.0481 117.667 67.559 118.27 67.559H121.489C122.091 67.559 122.58 68.0481 122.58 68.651V69.618C123.229 69.8114 123.854 70.0616 124.446 70.3915L125.128 69.709C125.333 69.5042 125.606 69.3905 125.901 69.3905C126.197 69.3905 126.47 69.5042 126.675 69.709L128.949 71.9842C129.154 72.1889 129.268 72.462 129.268 72.7577C129.268 73.0535 129.154 73.3265 128.949 73.5313L128.267 74.2138C128.597 74.8054 128.847 75.431 129.04 76.0795H130.007C130.61 76.0795 131.099 76.5686 131.099 77.1716V80.3909C131.099 80.9938 130.61 81.483 130.007 81.483L129.996 81.4716Z" fill="#607D87"/>
<path d="M123.217 81.4716C123.104 81.4716 122.978 81.4375 122.876 81.3806C122.569 81.1872 122.478 80.7891 122.66 80.4819C122.978 79.97 123.138 79.3785 123.138 78.7755C123.138 78.6049 123.126 78.4229 123.092 78.2523C122.978 77.5583 122.66 76.9327 122.16 76.4435C121.545 75.8406 120.738 75.5107 119.873 75.5107C119.271 75.5107 118.691 75.6699 118.179 75.9885C117.872 76.1705 117.474 76.0795 117.28 75.7723C117.087 75.4652 117.189 75.067 117.496 74.8736C118.213 74.4413 119.032 74.2025 119.873 74.2025C121.079 74.2025 122.216 74.6689 123.069 75.5107C123.775 76.2046 124.229 77.0805 124.377 78.0475C124.411 78.2864 124.434 78.5253 124.434 78.7755C124.434 79.6174 124.207 80.4478 123.763 81.1645C123.638 81.3692 123.422 81.4716 123.206 81.4716H123.217Z" fill="#607D87"/>
<path d="M95.6824 81.0279H94.2266C93.2713 81.0279 92.4865 80.243 92.4865 79.2874V75.6585C92.4865 74.703 93.2713 73.918 94.2266 73.918H95.6824C96.6378 73.918 97.4225 74.703 97.4225 75.6585V79.2874C97.4225 80.243 96.6378 81.0279 95.6824 81.0279ZM94.2266 75.2149C93.9878 75.2149 93.7944 75.4083 93.7944 75.6472V79.2761C93.7944 79.5149 93.9878 79.7083 94.2266 79.7083H95.6824C95.9213 79.7083 96.1146 79.5149 96.1146 79.2761V75.6472C96.1146 75.4083 95.9213 75.2149 95.6824 75.2149H94.2266Z" fill="#607D87"/>
<path d="M95.6824 100.902H94.2266C93.2713 100.902 92.4865 100.117 92.4865 99.161V95.5321C92.4865 94.5766 93.2713 93.7916 94.2266 93.7916H95.6824C96.6378 93.7916 97.4225 94.5766 97.4225 95.5321V99.161C97.4225 100.117 96.6378 100.902 95.6824 100.902ZM94.2266 95.0999C93.9878 95.0999 93.7944 95.2932 93.7944 95.5321V99.161C93.7944 99.3999 93.9878 99.5933 94.2266 99.5933H95.6824C95.9213 99.5933 96.1146 99.3999 96.1146 99.161V95.5321C96.1146 95.2932 95.9213 95.0999 95.6824 95.0999H94.2266Z" fill="#607D87"/>
<path d="M95.6824 110.844H94.2266C93.2713 110.844 92.4865 110.059 92.4865 109.104V105.475C92.4865 104.519 93.2713 103.734 94.2266 103.734H95.6824C96.6378 103.734 97.4225 104.519 97.4225 105.475V109.104C97.4225 110.059 96.6378 110.844 95.6824 110.844ZM94.2266 105.031C93.9878 105.031 93.7944 105.224 93.7944 105.463V109.092C93.7944 109.331 93.9878 109.524 94.2266 109.524H95.6824C95.9213 109.524 96.1146 109.331 96.1146 109.092V105.463C96.1146 105.224 95.9213 105.031 95.6824 105.031H94.2266Z" fill="#607D87"/>
<path d="M102.541 81.0279H101.085C100.129 81.0279 99.3446 80.243 99.3446 79.2874V75.6585C99.3446 74.703 100.129 73.918 101.085 73.918H102.541C103.496 73.918 104.281 74.703 104.281 75.6585V79.2874C104.281 80.243 103.496 81.0279 102.541 81.0279ZM101.085 75.2149C100.846 75.2149 100.653 75.4083 100.653 75.6472V79.2761C100.653 79.5149 100.846 79.7083 101.085 79.7083H102.541C102.779 79.7083 102.973 79.5149 102.973 79.2761V75.6472C102.973 75.4083 102.779 75.2149 102.541 75.2149H101.085Z" fill="#607D87"/>
<path d="M95.6824 71.0854H94.2266C93.2713 71.0854 92.4865 70.3005 92.4865 69.3449V65.716C92.4865 64.7605 93.2713 63.9755 94.2266 63.9755H95.6824C96.6378 63.9755 97.4225 64.7605 97.4225 65.716V69.3449C97.4225 70.3005 96.6378 71.0854 95.6824 71.0854ZM94.2266 65.2724C93.9878 65.2724 93.7944 65.4658 93.7944 65.7047V69.3336C93.7944 69.5724 93.9878 69.7658 94.2266 69.7658H95.6824C95.9213 69.7658 96.1146 69.5724 96.1146 69.3336V65.7047C96.1146 65.4658 95.9213 65.2724 95.6824 65.2724H94.2266Z" fill="#607D87"/>
<path d="M109.41 71.0854H107.954C106.999 71.0854 106.214 70.3005 106.214 69.3449V65.716C106.214 64.7605 106.999 63.9755 107.954 63.9755H109.41C110.365 63.9755 111.15 64.7605 111.15 65.716V69.3449C111.15 70.3005 110.365 71.0854 109.41 71.0854ZM107.954 65.2724C107.715 65.2724 107.522 65.4658 107.522 65.7047V69.3336C107.522 69.5724 107.715 69.7658 107.954 69.7658H109.41C109.649 69.7658 109.842 69.5724 109.842 69.3336V65.7047C109.842 65.4658 109.649 65.2724 109.41 65.2724H107.954Z" fill="#607D87"/>
<path d="M101.813 71.0854C101.449 71.0854 101.164 70.7896 101.164 70.437V65.5112L100.357 65.7501C100.016 65.8525 99.6517 65.6591 99.5494 65.3065C99.447 64.9652 99.6404 64.6012 99.9929 64.4988L101.642 64.0096C101.835 63.9528 102.051 63.9869 102.222 64.112C102.393 64.2372 102.484 64.4305 102.484 64.6353V70.4484C102.484 70.8124 102.188 71.0968 101.835 71.0968L101.813 71.0854Z" fill="#607D87"/>
<path d="M103.462 71.0854H100.175C99.8109 71.0854 99.5266 70.7896 99.5266 70.437C99.5266 70.0843 99.8223 69.7772 100.175 69.7772H103.462C103.826 69.7772 104.121 70.0729 104.121 70.437C104.121 70.801 103.826 71.0854 103.462 71.0854Z" fill="#607D87"/>
<path d="M94.9545 90.9591C94.5906 90.9591 94.2949 90.6633 94.2949 90.3106V85.3849L93.4874 85.6238C93.1462 85.7262 92.7822 85.5328 92.6799 85.1801C92.5775 84.8389 92.7708 84.4748 93.1234 84.3725L94.7725 83.8833C94.9659 83.8264 95.182 83.8605 95.3526 83.9857C95.5232 84.1108 95.6142 84.3042 95.6142 84.509V90.322C95.6142 90.686 95.3185 90.9704 94.9659 90.9704L94.9545 90.9591Z" fill="#607D87"/>
<path d="M96.6037 90.959H93.3168C92.9528 90.959 92.6685 90.6633 92.6685 90.3106C92.6685 89.958 92.9642 89.6508 93.3168 89.6508H96.6037C96.9676 89.6508 97.2519 89.9466 97.2519 90.3106C97.2519 90.6746 96.9562 90.959 96.6037 90.959Z" fill="#607D87"/>
<path d="M108.682 81.0279C108.318 81.0279 108.022 80.7322 108.022 80.3681V75.4424L107.215 75.6813C106.874 75.7837 106.51 75.5903 106.407 75.2376C106.305 74.8964 106.498 74.5323 106.851 74.4299L108.5 73.9408C108.693 73.8839 108.91 73.918 109.08 74.0432C109.251 74.1683 109.342 74.3617 109.342 74.5665V80.3795C109.342 80.7435 109.046 81.0393 108.693 81.0393L108.682 81.0279Z" fill="#607D87"/>
<path d="M110.32 81.0279H107.033C106.669 81.0279 106.385 80.7322 106.385 80.3681C106.385 80.0041 106.68 79.7197 107.033 79.7197H110.32C110.684 79.7197 110.968 80.0155 110.968 80.3681C110.968 80.7208 110.672 81.0279 110.32 81.0279Z" fill="#607D87"/>
<path d="M78.2016 136.758H59.5607C58.8442 136.758 58.2528 136.167 58.2528 135.45V123.323C58.2528 122.607 58.8442 122.015 59.5607 122.015H78.2016C78.9181 122.015 79.5095 122.607 79.5095 123.323V135.45C79.5095 136.167 78.9295 136.758 78.2016 136.758ZM59.5607 123.323V135.45H78.2016V123.323H59.5607Z" fill="#607D87"/>
<path d="M65.4407 132.697C65.2701 132.697 65.1109 132.629 64.9744 132.504L62.3244 129.853C62.0742 129.603 62.0742 129.182 62.3244 128.932L64.9744 126.281C65.2246 126.031 65.6455 126.031 65.8957 126.281C66.1459 126.531 66.1459 126.952 65.8957 127.203L63.712 129.387L65.8957 131.571C66.1459 131.821 66.1459 132.242 65.8957 132.492C65.7706 132.617 65.6 132.686 65.4294 132.686L65.4407 132.697Z" fill="#607D87"/>
<path d="M72.333 132.697C72.1624 132.697 72.0032 132.629 71.8667 132.504C71.6165 132.253 71.6165 131.832 71.8667 131.582L74.0504 129.398L71.8667 127.214C71.6165 126.964 71.6165 126.543 71.8667 126.292C72.1169 126.042 72.5377 126.042 72.7879 126.292L75.4379 128.943C75.6881 129.193 75.6881 129.614 75.4379 129.864L72.7879 132.515C72.6628 132.64 72.4922 132.708 72.3216 132.708L72.333 132.697Z" fill="#607D87"/>
<path d="M67.4879 133.88C67.4083 133.88 67.3401 133.869 67.2605 133.835C66.9193 133.71 66.7487 133.334 66.8738 132.993L69.6602 125.326C69.7853 124.984 70.1607 124.814 70.5019 124.939C70.8431 125.064 71.0137 125.439 70.8885 125.781L68.1021 133.448C68.0111 133.71 67.7495 133.88 67.4879 133.88Z" fill="#607D87"/>
<path d="M87.6415 115.804H56.2056C55.5459 115.804 55 115.258 55 114.598V64.3623C55 63.5433 55.6597 62.8835 56.4785 62.8835H87.3685C88.1874 62.8835 88.847 63.5433 88.847 64.3623V114.598C88.847 115.258 88.3125 115.804 87.6415 115.804ZM56.3079 114.507H87.5391V64.3623C87.5391 64.2713 87.4595 64.1917 87.3685 64.1917H56.4785C56.3875 64.1917 56.3079 64.2713 56.3079 64.3623V114.507Z" fill="#607D87"/>
<path d="M88.1874 69.8455H55.6483V71.1537H88.1874V69.8455Z" fill="#607D87"/>
<path d="M65.9184 67.6727C65.7478 67.6727 65.5772 67.6044 65.4521 67.4793C65.327 67.3542 65.2588 67.1949 65.2588 67.0129C65.2588 66.8309 65.327 66.6716 65.4521 66.5465C65.6909 66.3076 66.1345 66.3076 66.3733 66.5465C66.4985 66.6716 66.5667 66.8309 66.5667 67.0129C66.5667 67.1949 66.4985 67.3542 66.3733 67.4793C66.2482 67.6044 66.089 67.6727 65.907 67.6727H65.9184Z" fill="#607D87"/>
<path d="M62.3927 67.6727C62.2221 67.6727 62.0515 67.6044 61.9264 67.4793C61.8013 67.3542 61.733 67.1835 61.733 67.0129C61.733 66.8423 61.8013 66.6716 61.9264 66.5465C62.1652 66.3076 62.6088 66.3076 62.8476 66.5465C62.9727 66.6716 63.041 66.8309 63.041 67.0129C63.041 67.1949 62.9727 67.3542 62.8476 67.4793C62.7225 67.6044 62.5519 67.6727 62.3813 67.6727H62.3927Z" fill="#607D87"/>
<path d="M58.8783 67.6727C58.7077 67.6727 58.5371 67.6044 58.412 67.4793C58.2869 67.3542 58.2187 67.1835 58.2187 67.0129C58.2187 66.8423 58.2869 66.6716 58.412 66.5465C58.6508 66.3076 59.0944 66.3076 59.3332 66.5465C59.4584 66.6716 59.5266 66.8423 59.5266 67.0129C59.5266 67.1835 59.4584 67.3542 59.3332 67.4793C59.2081 67.6044 59.0489 67.6727 58.8669 67.6727H58.8783Z" fill="#607D87"/>
<path d="M71.1046 74.7712H64.1555V76.0795H71.1046V74.7712Z" fill="#607D87"/>
<path d="M79.2821 82.7457H75.0284V84.054H79.2821V82.7457Z" fill="#607D87"/>
<path d="M72.6628 82.7457H64.1555V84.054H72.6628V82.7457Z" fill="#607D87"/>
<path d="M68.5797 98.6946H64.1555V100.003H68.5797V98.6946Z" fill="#607D87"/>
<path d="M71.7188 106.669H64.1555V107.977H71.7188V106.669Z" fill="#607D87"/>
<path d="M75.5516 102.688H64.1555V103.996H75.5516V102.688Z" fill="#607D87"/>
<path d="M79.0887 106.669H74.2892V107.977H79.0887V106.669Z" fill="#607D87"/>
<path d="M84.1157 102.688H78.0424V103.996H84.1157V102.688Z" fill="#607D87"/>
<path d="M81.9889 98.6946H71.0705V100.003H81.9889V98.6946Z" fill="#607D87"/>
<path d="M69.8195 86.7273H66.7487V88.0355H69.8195V86.7273Z" fill="#607D87"/>
<path d="M76.8027 90.7202H66.7487V92.0284H76.8027V90.7202Z" fill="#607D87"/>
<path d="M73.004 94.7131H66.7487V96.0214H73.004V94.7131Z" fill="#607D87"/>
<path d="M79.8848 94.7131H75.4037V96.0214H79.8848V94.7131Z" fill="#607D87"/>
<path d="M84.1271 90.7202H79.2934V92.0284H84.1271V90.7202Z" fill="#607D87"/>
<path d="M81.443 86.7273H72.3784V88.0355H81.443V86.7273Z" fill="#607D87"/>
<path d="M61.4942 74.7712H59.6858V76.0795H61.4942V74.7712Z" fill="#607D87"/>
<path d="M61.4942 78.7528H59.6858V80.061H61.4942V78.7528Z" fill="#607D87"/>
<path d="M61.4942 82.7457H59.6858V84.054H61.4942V82.7457Z" fill="#607D87"/>
<path d="M64.3716 86.7273H62.5633V88.0355H64.3716V86.7273Z" fill="#607D87"/>
<path d="M64.3716 90.7202H62.5633V92.0284H64.3716V90.7202Z" fill="#607D87"/>
<path d="M64.3716 94.7131H62.5633V96.0214H64.3716V94.7131Z" fill="#607D87"/>
<path d="M61.4942 102.688H59.6858V103.996H61.4942V102.688Z" fill="#607D87"/>
<path d="M61.4942 98.6946H59.6858V100.003H61.4942V98.6946Z" fill="#607D87"/>
<path d="M61.4942 106.669H59.6858V107.977H61.4942V106.669Z" fill="#607D87"/>
<path d="M67.9315 78.7528H64.1555V80.061H67.9315V78.7528Z" fill="#607D87"/>
<path d="M82.2619 78.7528H70.1606V80.061H82.2619V78.7528Z" fill="#607D87"/>
<path d="M79.6574 74.7712H73.3338V76.0795H79.6574V74.7712Z" fill="#607D87"/>
<path d="M133.794 136.531H102.359C101.688 136.531 101.153 135.996 101.153 135.325V85.0777C101.153 84.2587 101.813 83.5989 102.632 83.5989H133.521C134.34 83.5989 135 84.2587 135 85.0777V135.313C135 135.973 134.454 136.519 133.794 136.519V136.531ZM102.461 135.222H133.692V85.0777C133.692 84.9867 133.612 84.9071 133.521 84.9071H102.632C102.541 84.9071 102.461 84.9867 102.461 85.0777V135.222Z" fill="#607D87"/>
<path d="M134.352 90.5723H101.813V91.8805H134.352V90.5723Z" fill="#607D87"/>
<path d="M112.071 88.3881C111.901 88.3881 111.73 88.3199 111.605 88.1948C111.48 88.0696 111.412 87.9104 111.412 87.7283C111.412 87.5463 111.48 87.3871 111.605 87.2619C111.844 87.023 112.287 87.023 112.526 87.2619C112.651 87.3871 112.72 87.5577 112.72 87.7283C112.72 87.899 112.651 88.0696 112.526 88.1948C112.401 88.3199 112.242 88.3881 112.06 88.3881H112.071Z" fill="#607D87"/>
<path d="M108.557 88.3881C108.386 88.3881 108.216 88.3199 108.091 88.1948C107.966 88.0696 107.897 87.9104 107.897 87.7283C107.897 87.5463 107.966 87.3871 108.091 87.2619C108.33 87.023 108.773 87.023 109.012 87.2619C109.137 87.3757 109.205 87.5463 109.205 87.7283C109.205 87.9104 109.137 88.0696 109.012 88.1948C108.887 88.3199 108.716 88.3881 108.546 88.3881H108.557Z" fill="#607D87"/>
<path d="M105.031 88.3881C104.861 88.3881 104.69 88.3199 104.565 88.1948C104.44 88.0696 104.372 87.9104 104.372 87.7283C104.372 87.5463 104.44 87.3871 104.565 87.2619C104.804 87.023 105.247 87.023 105.486 87.2619C105.611 87.3757 105.68 87.5463 105.68 87.7283C105.68 87.9104 105.611 88.0696 105.486 88.1948C105.361 88.3199 105.202 88.3881 105.02 88.3881H105.031Z" fill="#607D87"/>
<path d="M117.258 95.4866H110.309V96.7949H117.258V95.4866Z" fill="#607D87"/>
<path d="M125.435 103.461H121.181V104.769H125.435V103.461Z" fill="#607D87"/>
<path d="M118.816 103.461H110.309V104.769H118.816V103.461Z" fill="#607D87"/>
<path d="M114.733 119.41H110.309V120.718H114.733V119.41Z" fill="#607D87"/>
<path d="M117.872 127.396H110.309V128.704H117.872V127.396Z" fill="#607D87"/>
<path d="M121.705 123.403H110.309V124.711H121.705V123.403Z" fill="#607D87"/>
<path d="M125.242 127.396H120.442V128.704H125.242V127.396Z" fill="#607D87"/>
<path d="M130.269 123.403H124.195V124.711H130.269V123.403Z" fill="#607D87"/>
<path d="M128.142 119.41H117.224V120.718H128.142V119.41Z" fill="#607D87"/>
<path d="M115.972 107.454H112.902V108.762H115.972V107.454Z" fill="#607D87"/>
<path d="M122.956 111.436H112.902V112.744H122.956V111.436Z" fill="#607D87"/>
<path d="M119.157 115.429H112.902V116.737H119.157V115.429Z" fill="#607D87"/>
<path d="M126.038 115.429H121.557V116.737H126.038V115.429Z" fill="#607D87"/>
<path d="M130.28 111.436H125.446V112.744H130.28V111.436Z" fill="#607D87"/>
<path d="M127.596 107.454H118.531V108.762H127.596V107.454Z" fill="#607D87"/>
<path d="M107.647 95.4866H105.839V96.7949H107.647V95.4866Z" fill="#607D87"/>
<path d="M107.647 99.4796H105.839V100.788H107.647V99.4796Z" fill="#607D87"/>
<path d="M107.647 103.461H105.839V104.769H107.647V103.461Z" fill="#607D87"/>
<path d="M110.525 107.454H108.716V108.762H110.525V107.454Z" fill="#607D87"/>
<path d="M110.525 111.436H108.716V112.744H110.525V111.436Z" fill="#607D87"/>
<path d="M110.525 115.429H108.716V116.737H110.525V115.429Z" fill="#607D87"/>
<path d="M107.647 123.403H105.839V124.711H107.647V123.403Z" fill="#607D87"/>
<path d="M107.647 119.41H105.839V120.718H107.647V119.41Z" fill="#607D87"/>
<path d="M107.647 127.396H105.839V128.704H107.647V127.396Z" fill="#607D87"/>
<path d="M114.084 99.4796H110.309V100.788H114.084V99.4796Z" fill="#607D87"/>
<path d="M128.426 99.4796H116.325V100.788H128.426V99.4796Z" fill="#607D87"/>
<path d="M125.822 95.4866H119.498V96.7949H125.822V95.4866Z" fill="#607D87"/>
</g>
<defs>
<clipPath id="clip0_204_672">
<rect width="80" height="81.7582" fill="white" transform="translate(55 55)"/>
</clipPath>
</defs>
</svg>
