<svg width="222" height="222" viewBox="0 0 222 222" fill="none" xmlns="http://www.w3.org/2000/svg">
<g clip-path="url(#clip0_390_442)">
<path d="M45.6572 208.702L111.286 143.073L175.771 207.558" stroke="black" stroke-miterlimit="10"/>
<path d="M45.6574 221.417C42.2629 221.417 39.0666 220.099 36.6636 217.696C31.7059 212.738 31.7059 204.677 36.6636 199.719C39.0666 197.316 42.2629 195.998 45.6574 195.998C49.052 195.998 52.2483 197.316 54.6513 199.719C59.609 204.677 59.609 212.738 54.6513 217.696C52.2483 220.099 49.052 221.417 45.6574 221.417Z" fill="white"/>
<path d="M45.6577 196.57C48.9006 196.57 51.9452 197.83 54.2316 200.128C56.518 202.426 57.7895 205.471 57.7895 208.702C57.7895 211.933 56.5296 214.989 54.2316 217.276C51.9336 219.562 48.8889 220.834 45.6577 220.834C42.4264 220.834 39.3702 219.574 37.0838 217.276C34.7974 214.989 33.5259 211.933 33.5259 208.702C33.5259 205.471 34.7857 202.414 37.0838 200.128C39.3702 197.841 42.4264 196.57 45.6577 196.57ZM45.6577 195.403C42.2515 195.403 38.8569 196.698 36.2556 199.3C31.0646 204.491 31.0646 212.913 36.2556 218.104C38.8569 220.705 42.2515 222 45.6577 222C49.0639 222 52.4585 220.705 55.0598 218.104C60.2508 212.913 60.2508 204.491 55.0598 199.3C52.4585 196.698 49.0639 195.403 45.6577 195.403Z" fill="black"/>
<path d="M111.285 155.788C107.891 155.788 104.695 154.47 102.292 152.067C97.3338 147.11 97.3338 139.049 102.292 134.091C104.695 131.688 107.879 130.37 111.285 130.37C114.692 130.37 117.876 131.688 120.279 134.091C125.237 139.049 125.237 147.11 120.279 152.067C117.876 154.47 114.692 155.788 111.285 155.788Z" fill="white"/>
<path d="M111.286 130.942C114.529 130.942 117.573 132.202 119.86 134.5C124.584 139.224 124.584 146.923 119.86 151.659C117.573 153.945 114.517 155.217 111.286 155.217C108.054 155.217 104.998 153.957 102.712 151.659C97.9873 146.935 97.9873 139.236 102.712 134.5C104.998 132.213 108.054 130.942 111.286 130.942ZM111.286 129.775C107.879 129.775 104.485 131.07 101.883 133.671C96.6925 138.862 96.6925 147.285 101.883 152.476C104.485 155.077 107.879 156.372 111.286 156.372C114.692 156.372 118.086 155.077 120.688 152.476C125.879 147.285 125.879 138.862 120.688 133.671C118.086 131.07 114.692 129.775 111.286 129.775Z" fill="black"/>
<path d="M175.771 220.274C172.376 220.274 169.18 218.955 166.777 216.552C161.819 211.595 161.819 203.534 166.777 198.576C169.18 196.173 172.376 194.855 175.771 194.855C179.165 194.855 182.362 196.173 184.765 198.576C189.722 203.534 189.722 211.595 184.765 216.552C182.362 218.955 179.177 220.274 175.771 220.274Z" fill="white"/>
<path d="M175.771 195.427C179.014 195.427 182.059 196.687 184.345 198.985C189.069 203.709 189.069 211.408 184.345 216.144C182.059 218.43 179.002 219.702 175.771 219.702C172.54 219.702 169.483 218.442 167.197 216.144C162.473 211.42 162.473 203.721 167.197 198.985C169.483 196.698 172.54 195.427 175.771 195.427ZM175.771 194.26C172.365 194.26 168.97 195.555 166.369 198.156C161.178 203.347 161.178 211.77 166.369 216.961C168.97 219.562 172.365 220.857 175.771 220.857C179.177 220.857 182.572 219.562 185.173 216.961C190.364 211.77 190.364 203.347 185.173 198.156C182.572 195.555 179.177 194.26 175.771 194.26Z" fill="black"/>
<path d="M176.343 13.2983L110.715 78.9266L46.2295 14.4415" stroke="black" stroke-miterlimit="10"/>
<path d="M176.343 26.0133C172.948 26.0133 169.752 24.6952 167.349 22.2922C164.946 19.8891 163.628 16.6929 163.628 13.2983C163.628 9.90373 164.946 6.70747 167.349 4.30444C169.752 1.90142 172.937 0.583252 176.343 0.583252C179.749 0.583252 182.934 1.90142 185.337 4.30444C187.74 6.70747 189.058 9.90373 189.058 13.2983C189.058 16.6929 187.74 19.8891 185.337 22.2922C182.934 24.6952 179.749 26.0133 176.343 26.0133Z" fill="white"/>
<path d="M176.342 1.16652C179.585 1.16652 182.63 2.42636 184.916 4.7244C187.203 7.02244 188.474 10.067 188.474 13.2983C188.474 16.5296 187.214 19.5858 184.916 21.8722C182.618 24.1586 179.574 25.4301 176.342 25.4301C173.111 25.4301 170.055 24.1702 167.768 21.8722C165.482 19.5858 164.21 16.5296 164.21 13.2983C164.21 10.067 165.47 7.01077 167.768 4.7244C170.055 2.43802 173.111 1.16652 176.342 1.16652ZM176.342 0C172.936 0 169.541 1.29483 166.94 3.89617C161.749 9.08717 161.749 17.5094 166.94 22.7004C169.541 25.3018 172.936 26.5966 176.342 26.5966C179.748 26.5966 183.143 25.3018 185.744 22.7004C190.935 17.5094 190.935 9.08717 185.744 3.89617C183.143 1.29483 179.748 0 176.342 0Z" fill="black"/>
<path d="M110.714 91.6416C107.32 91.6416 104.123 90.3235 101.72 87.9205C99.3172 85.5174 97.999 82.3212 97.999 78.9266C97.999 75.532 99.3172 72.3358 101.72 69.9327C104.123 67.5297 107.308 66.2115 110.714 66.2115C114.12 66.2115 117.305 67.5297 119.708 69.9327C122.111 72.3358 123.429 75.532 123.429 78.9266C123.429 82.3212 122.111 85.5174 119.708 87.9205C117.305 90.3235 114.12 91.6416 110.714 91.6416Z" fill="white"/>
<path d="M110.714 66.7948C113.957 66.7948 117.002 68.0547 119.288 70.3527C121.575 72.6507 122.846 75.6954 122.846 78.9266C122.846 82.1579 121.586 85.2141 119.288 87.5005C116.99 89.7869 113.946 91.0584 110.714 91.0584C107.483 91.0584 104.427 89.7985 102.14 87.5005C99.854 85.2025 98.5826 82.1579 98.5826 78.9266C98.5826 75.6954 99.8424 72.6391 102.14 70.3527C104.438 68.0663 107.483 66.7948 110.714 66.7948ZM110.714 65.6283C107.308 65.6283 103.914 66.9231 101.312 69.5245C96.1212 74.7155 96.1212 83.1377 101.312 88.3287C103.914 90.9301 107.308 92.2249 110.714 92.2249C114.121 92.2249 117.515 90.9301 120.116 88.3287C125.307 83.1377 125.307 74.7155 120.116 69.5245C117.515 66.9231 114.121 65.6283 110.714 65.6283Z" fill="black"/>
<path d="M46.2287 27.1566C42.8342 27.1566 39.6379 25.8384 37.2349 23.4354C32.2772 18.4777 32.2772 10.4171 37.2349 5.45935C39.6379 3.05632 42.8342 1.73816 46.2287 1.73816C49.6233 1.73816 52.8196 3.05632 55.2226 5.45935C57.6256 7.86238 58.9438 11.0586 58.9438 14.4532C58.9438 17.8478 57.6256 21.044 55.2226 23.4471C52.8196 25.8501 49.6233 27.1682 46.2287 27.1682V27.1566Z" fill="white"/>
<path d="M46.229 2.30971C49.4719 2.30971 52.5165 3.56955 54.8029 5.86759C57.0893 8.16563 58.3608 11.2102 58.3608 14.4415C58.3608 17.6727 57.1009 20.729 54.8029 23.0154C52.5048 25.3018 49.4602 26.5733 46.229 26.5733C42.9977 26.5733 39.9414 25.3134 37.6551 23.0154C35.3687 20.7174 34.0972 17.6727 34.0972 14.4415C34.0972 11.2102 35.357 8.15396 37.6551 5.86759C39.9531 3.58121 42.9977 2.30971 46.229 2.30971ZM46.229 1.14319C42.8227 1.14319 39.4282 2.43802 36.8268 5.03936C31.6358 10.2304 31.6358 18.6526 36.8268 23.8436C39.4282 26.445 42.8227 27.7398 46.229 27.7398C49.6352 27.7398 53.0298 26.445 55.6311 23.8436C60.8221 18.6526 60.8221 10.2304 55.6311 5.03936C53.0298 2.43802 49.6352 1.14319 46.229 1.14319Z" fill="black"/>
<path d="M208.702 176.343L143.073 110.714L207.558 46.2291" stroke="black" stroke-miterlimit="10"/>
<path d="M208.701 189.058C205.307 189.058 202.111 187.739 199.708 185.336C197.304 182.933 195.986 179.737 195.986 176.342C195.986 172.948 197.304 169.752 199.708 167.349C202.111 164.946 205.295 163.627 208.701 163.627C212.108 163.627 215.292 164.946 217.695 167.349C220.098 169.752 221.416 172.948 221.416 176.342C221.416 179.737 220.098 182.933 217.695 185.336C215.292 187.739 212.108 189.058 208.701 189.058Z" fill="white"/>
<path d="M208.702 164.211C211.945 164.211 214.989 165.471 217.276 167.769C222 172.493 222 180.192 217.276 184.928C214.989 187.214 211.933 188.486 208.702 188.486C205.47 188.486 202.414 187.226 200.128 184.928C195.403 180.204 195.403 172.505 200.128 167.769C202.414 165.482 205.47 164.211 208.702 164.211ZM208.702 163.044C205.295 163.044 201.901 164.339 199.3 166.94C194.108 172.131 194.108 180.554 199.3 185.745C201.901 188.346 205.295 189.641 208.702 189.641C212.108 189.641 215.502 188.346 218.104 185.745C223.295 180.554 223.295 172.131 218.104 166.94C215.502 164.339 212.108 163.044 208.702 163.044Z" fill="black"/>
<path d="M143.073 123.429C139.679 123.429 136.483 122.111 134.08 119.708C131.677 117.305 130.358 114.109 130.358 110.714C130.358 107.32 131.677 104.123 134.08 101.72C136.483 99.3173 139.667 97.9991 143.073 97.9991C146.48 97.9991 149.664 99.3173 152.067 101.72C154.47 104.123 155.788 107.32 155.788 110.714C155.788 114.109 154.47 117.305 152.067 119.708C149.664 122.111 146.48 123.429 143.073 123.429Z" fill="white"/>
<path d="M143.074 98.5824C146.317 98.5824 149.361 99.8422 151.648 102.14C153.934 104.427 155.205 107.483 155.205 110.714C155.205 113.945 153.946 117.002 151.648 119.288C149.35 121.574 146.305 122.846 143.074 122.846C139.842 122.846 136.786 121.586 134.5 119.288C132.213 117.002 130.942 113.945 130.942 110.714C130.942 107.483 132.202 104.427 134.5 102.14C136.786 99.8539 139.842 98.5824 143.074 98.5824ZM143.074 97.4159C139.667 97.4159 136.273 98.7107 133.672 101.312C128.481 106.503 128.481 114.925 133.672 120.116C136.273 122.718 139.667 124.012 143.074 124.012C146.48 124.012 149.875 122.718 152.476 120.116C157.667 114.925 157.667 106.503 152.476 101.312C149.875 98.7107 146.48 97.4159 143.074 97.4159Z" fill="black"/>
<path d="M207.559 58.9442C204.164 58.9442 200.968 57.626 198.565 55.223C193.607 50.2653 193.607 42.2046 198.565 37.2469C200.968 34.8439 204.153 33.5258 207.559 33.5258C210.965 33.5258 214.15 34.8439 216.553 37.2469C221.51 42.2046 221.51 50.2653 216.553 55.223C214.15 57.626 210.953 58.9442 207.559 58.9442Z" fill="white"/>
<path d="M207.558 34.0973C210.801 34.0973 213.846 35.3571 216.132 37.6552C218.418 39.9416 219.69 42.9978 219.69 46.2291C219.69 49.4603 218.43 52.5166 216.132 54.803C213.834 57.0894 210.789 58.3609 207.558 58.3609C204.327 58.3609 201.271 57.101 198.984 54.803C196.698 52.5166 195.426 49.4603 195.426 46.2291C195.426 42.9978 196.686 39.9416 198.984 37.6552C201.271 35.3688 204.327 34.0973 207.558 34.0973ZM207.558 32.9308C204.152 32.9308 200.757 34.2256 198.156 36.827C192.965 42.018 192.965 50.4402 198.156 55.6312C200.757 58.2326 204.152 59.5274 207.558 59.5274C210.964 59.5274 214.359 58.2326 216.96 55.6312C222.151 50.4402 222.151 42.018 216.96 36.827C214.359 34.2256 210.964 32.9308 207.558 32.9308Z" fill="black"/>
<path d="M13.2979 45.6575L78.9261 111.286L14.441 175.771" stroke="black" stroke-miterlimit="10"/>
<path d="M13.2981 58.3726C9.90349 58.3726 6.70723 57.0544 4.3042 54.6514C1.90117 52.2484 0.583008 49.0521 0.583008 45.6575C0.583008 42.263 1.90117 39.0667 4.3042 36.6637C6.70723 34.2607 9.90349 32.9425 13.2981 32.9425C16.6926 32.9425 19.8889 34.2607 22.2919 36.6637C24.6949 39.0667 26.0131 42.263 26.0131 45.6575C26.0131 49.0521 24.6949 52.2484 22.2919 54.6514C19.8889 57.0544 16.6926 58.3726 13.2981 58.3726Z" fill="white"/>
<path d="M13.2983 33.5258C16.5412 33.5258 19.5858 34.7856 21.8722 37.0837C24.1586 39.3817 25.4301 42.4263 25.4301 45.6576C25.4301 48.8888 24.1703 51.9451 21.8722 54.2315C19.5858 56.5178 16.5296 57.7893 13.2983 57.7893C10.0671 57.7893 7.01079 56.5295 4.72441 54.2315C2.43804 51.9451 1.16653 48.8888 1.16653 45.6576C1.16653 42.4263 2.42637 39.37 4.72441 37.0837C7.02245 34.7973 10.0671 33.5258 13.2983 33.5258ZM13.2983 32.3593C9.89208 32.3593 6.49752 33.6541 3.89618 36.2554C-1.29482 41.4464 -1.29482 49.8687 3.89618 55.0597C6.49752 57.661 9.89208 58.9559 13.2983 58.9559C16.7045 58.9559 20.0991 57.661 22.7004 55.0597C27.8915 49.8687 27.8915 41.4464 22.7004 36.2554C20.0991 33.6541 16.7045 32.3593 13.2983 32.3593Z" fill="black"/>
<path d="M78.927 124.001C75.5324 124.001 72.3361 122.683 69.9331 120.28C64.9754 115.322 64.9754 107.261 69.9331 102.304C72.3361 99.9006 75.5207 98.5824 78.927 98.5824C82.3332 98.5824 85.5178 99.9006 87.9208 102.304C92.8785 107.261 92.8785 115.322 87.9208 120.28C85.5178 122.683 82.3215 124.001 78.927 124.001Z" fill="white"/>
<path d="M78.9263 99.1541C82.1692 99.1541 85.2138 100.414 87.5002 102.712C92.2246 107.436 92.2246 115.135 87.5002 119.871C85.2138 122.158 82.1575 123.429 78.9263 123.429C75.695 123.429 72.6387 122.169 70.3523 119.871C68.066 117.573 66.7945 114.529 66.7945 111.298C66.7945 108.066 68.0543 105.01 70.3523 102.724C72.6504 100.437 75.695 99.1657 78.9263 99.1657M78.9263 97.9875C75.52 97.9875 72.1254 99.2824 69.5241 101.884C64.3331 107.075 64.3331 115.497 69.5241 120.688C72.1254 123.289 75.52 124.584 78.9263 124.584C82.3325 124.584 85.727 123.289 88.3284 120.688C93.5194 115.497 93.5194 107.075 88.3284 101.884C85.727 99.2824 82.3325 97.9875 78.9263 97.9875Z" fill="black"/>
<path d="M14.4416 188.486C11.047 188.486 7.85078 187.168 5.44775 184.765C3.04473 182.362 1.72656 179.166 1.72656 175.771C1.72656 172.376 3.04473 169.18 5.44775 166.777C7.85078 164.374 11.047 163.056 14.4416 163.056C17.8362 163.056 21.0324 164.374 23.4355 166.777C25.8385 169.18 27.1567 172.376 27.1567 175.771C27.1567 179.166 25.8385 182.362 23.4355 184.765C21.0324 187.168 17.8362 188.486 14.4416 188.486Z" fill="white"/>
<path d="M14.4419 163.639C17.6848 163.639 20.7294 164.899 23.0158 167.197C25.3022 169.495 26.5737 172.54 26.5737 175.771C26.5737 179.002 25.3138 182.058 23.0158 184.345C20.7177 186.631 17.6731 187.903 14.4419 187.903C11.2106 187.903 8.15434 186.643 5.86796 184.345C3.58159 182.058 2.31009 179.002 2.31009 175.771C2.31009 172.54 3.56992 169.483 5.86796 167.197C8.15434 164.911 11.2106 163.639 14.4419 163.639ZM14.4419 162.473C11.0356 162.473 7.64107 163.767 5.03974 166.369C-0.151267 171.56 -0.151267 179.982 5.03974 185.173C7.64107 187.774 11.0356 189.069 14.4419 189.069C17.8481 189.069 21.2427 187.774 23.844 185.173C29.035 179.982 29.035 171.56 23.844 166.369C21.2427 163.767 17.8481 162.473 14.4419 162.473Z" fill="black"/>
</g>
<defs>
<clipPath id="clip0_390_442">
<rect width="222" height="222" fill="white"/>
</clipPath>
</defs>
</svg>
