<svg width="121" height="169" viewBox="0 0 121 169" fill="none" xmlns="http://www.w3.org/2000/svg">
<g clip-path="url(#clip0_513_610)">
<path d="M121 105.988L120.745 134.207C120.725 140.565 117.722 146.923 111.736 152.496C109.361 154.734 106.516 156.833 103.199 158.756C79.7051 172.415 41.4719 172.415 17.8214 158.756C5.9079 151.888 -0.0390608 142.861 0.000193052 133.854L0.235716 105.674C0.235716 114.681 6.18267 123.689 18.057 130.537C41.727 144.196 79.9407 144.196 103.454 130.537C106.653 128.673 109.42 126.672 111.736 124.513C117.899 118.881 120.981 112.444 121 105.988Z" fill="#E18AC7"/>
<path d="M103.179 81.1051C126.83 94.7633 126.967 116.899 103.454 130.537C79.941 144.196 41.7274 144.196 18.077 130.537C-5.57348 116.879 -5.71087 94.7436 17.8022 81.0855C41.3153 67.4273 79.5289 67.4273 103.179 81.0855V81.1051Z" fill="#F4ECE5"/>
<path d="M10.7553 138.819C9.26365 137.955 8.06641 138.642 8.06641 140.349C8.06641 142.057 9.26365 144.137 10.7357 144.98C12.2273 145.844 13.4246 145.157 13.4246 143.45C13.4246 141.743 12.2273 139.662 10.7553 138.819Z" fill="#F2F2F2"/>
<path d="M18.8022 144.608C17.3105 143.744 16.1133 144.431 16.1133 146.138C16.1133 147.846 17.3105 149.926 18.7825 150.77C20.2742 151.633 21.4714 150.946 21.4714 149.239C21.4714 147.532 20.2742 145.451 18.8022 144.608Z" fill="#80E1FE"/>
<path d="M28.4194 148.807C26.9277 147.944 25.7305 148.63 25.7305 150.338C25.7305 152.045 26.9277 154.125 28.3997 154.969C29.8914 155.832 31.0886 155.146 31.0886 153.438C31.0886 151.731 29.8914 149.651 28.4194 148.807Z" fill="#F2F2F2"/>
<path d="M121 70.5671L120.745 98.7665C120.725 105.125 117.722 111.502 111.736 117.075C110.029 118.685 108.066 120.215 105.848 121.667C105.004 122.237 104.121 122.786 103.199 123.316C79.7051 136.974 41.4719 136.994 17.8214 123.335C5.9079 116.467 -0.0390608 107.44 0.000193052 98.4329L0.235716 70.2531C0.235716 79.2604 6.18267 88.2677 18.057 95.1164C41.727 108.775 79.9407 108.775 103.454 95.1164C104.278 94.6259 105.083 94.1353 105.848 93.625C108.046 92.1925 110.029 90.6815 111.736 89.0919C117.899 83.4599 120.981 77.0233 121 70.5671Z" fill="#E18AC7"/>
<path d="M103.179 45.6645C126.83 59.3227 126.967 81.4583 103.454 95.0968C79.941 108.755 41.7274 108.755 18.077 95.0968C-5.57348 81.4387 -5.71087 59.3031 17.8022 45.6449C41.3153 31.9868 79.5289 31.9868 103.179 45.6449V45.6645Z" fill="#F4ECE5"/>
<path d="M10.7553 103.378C9.26365 102.515 8.06641 103.201 8.06641 104.909C8.06641 106.616 9.26365 108.696 10.7357 109.54C12.2273 110.403 13.4246 109.717 13.4246 108.009C13.4246 106.302 12.2273 104.222 10.7553 103.378Z" fill="#80E1FE"/>
<path d="M18.8022 109.187C17.3105 108.323 16.1133 109.01 16.1133 110.717C16.1133 112.425 17.3105 114.505 18.7825 115.349C20.2742 116.212 21.4714 115.525 21.4714 113.818C21.4714 112.111 20.2742 110.031 18.8022 109.187Z" fill="#F2F2F2"/>
<path d="M28.4194 113.386C26.9277 112.523 25.7305 113.21 25.7305 114.917C25.7305 116.624 26.9277 118.704 28.3997 119.548C29.8914 120.412 31.0886 119.725 31.0886 118.017C31.0886 116.31 29.8914 114.23 28.4194 113.386Z" fill="#F2F2F2"/>
<path d="M121 35.1265L120.745 63.3455C120.725 69.7036 117.722 76.0617 111.736 81.6349C109.361 83.872 106.516 85.9717 103.199 87.8949C79.7051 101.553 41.4719 101.553 17.8214 87.9145C5.9079 81.0265 -0.0390608 72.0192 0.000193052 63.0119L0.235716 34.8322C0.235716 43.8395 6.18267 52.8468 18.057 59.6955C41.727 73.3536 79.9407 73.334 103.454 59.6759C106.653 57.8116 109.42 55.81 111.736 53.6514C117.899 48.039 120.981 41.5827 121 35.1265Z" fill="#E18AC7"/>
<path d="M103.179 10.2436C126.83 23.9017 126.967 46.0374 103.454 59.6759C79.941 73.334 41.7274 73.334 18.077 59.6759C-5.57348 46.0177 -5.71087 23.8821 17.8022 10.224C41.3153 -3.43419 79.5289 -3.43419 103.179 10.224V10.2436Z" fill="#F4ECE5"/>
<path d="M10.7553 67.9571C9.26365 67.0937 8.06641 67.7805 8.06641 69.4878C8.06641 71.1951 9.26365 73.2752 10.7357 74.119C12.2273 74.9824 13.4246 74.2956 13.4246 72.5883C13.4246 70.8811 12.2273 68.801 10.7553 67.9571Z" fill="#F2F2F2"/>
<path d="M18.8022 73.7462C17.3105 72.8828 16.1133 73.5696 16.1133 75.2768C16.1133 76.9841 17.3105 79.0642 18.7825 79.9081C20.2742 80.7715 21.4714 80.0847 21.4714 78.3774C21.4714 76.6701 20.2742 74.59 18.8022 73.7462Z" fill="#80E1FE"/>
<path d="M28.4194 77.9653C26.9277 77.1018 25.7305 77.7886 25.7305 79.4959C25.7305 81.2032 26.9277 83.2833 28.3997 84.1271C29.8914 84.9906 31.0886 84.3037 31.0886 82.5965C31.0886 80.8892 29.8914 78.8091 28.4194 77.9653Z" fill="#F2F2F2"/>
<path d="M121 105.988L120.745 134.207C120.725 140.565 117.723 146.923 111.736 152.496V124.513C117.899 118.881 120.981 112.444 121 105.988Z" fill="#FFD073"/>
<path d="M120.745 63.3456C120.725 69.7037 117.723 76.0618 111.736 81.6349V53.6514C117.899 48.039 120.981 41.5828 121 35.1266L120.745 63.3456Z" fill="#FFD073"/>
<path d="M121 70.5671L120.744 98.7665C120.725 105.125 117.722 111.502 111.736 117.075C110.028 118.685 108.065 120.215 105.848 121.667V93.6251C108.046 92.1925 110.028 90.6815 111.736 89.092C117.899 83.46 120.98 77.0234 121 70.5671Z" fill="#FFD073"/>
</g>
<defs>
<clipPath id="clip0_513_610">
<rect width="121" height="169" fill="white"/>
</clipPath>
</defs>
</svg>
