<svg width="137" height="166" viewBox="0 0 137 166" fill="none" xmlns="http://www.w3.org/2000/svg">
<g clip-path="url(#clip0_513_590)">
<path d="M72.8647 0.0561523L72.6206 85.9725L70.7432 94.5436L70.9872 8.64592L72.8647 0.0561523Z" fill="#EFCA70"/>
<path d="M72.865 0.0562094L70.9875 8.62722C56.2493 8.32714 41.3796 11.4217 30.171 17.9297C28.8755 18.6799 27.6364 19.4676 26.5287 20.2553L15.9209 14.1412C17.1037 13.3535 18.3241 12.5845 19.6008 11.8343C34.1888 3.35708 53.6959 -0.543949 72.865 0.0562094Z" fill="#FBE08F"/>
<path d="M70.9871 8.64599L70.743 94.5624C56.0047 94.2623 41.1351 97.3569 29.9265 103.865C28.631 104.615 27.3919 105.403 26.2842 106.19L26.5283 20.2741C27.636 19.4676 28.8751 18.6986 30.1706 17.9484C41.3791 11.4405 56.2488 8.34591 70.9871 8.64599Z" fill="#FAD873"/>
<path d="M26.5286 20.274L26.2845 106.172L15.6768 100.058L15.9208 14.1411L26.5286 20.274Z" fill="#EFCA70"/>
<path d="M116.723 75.1136L106.209 81.2089C96.3148 75.6012 83.6418 72.6004 70.7998 72.169L72.6773 63.598C88.6547 64.2544 104.369 68.0992 116.704 75.0948L116.723 75.1136Z" fill="#80CBCC"/>
<path d="M116.724 75.1135L116.667 97.4507L106.153 103.546L106.228 81.2089L116.724 75.1135Z" fill="#609CBF"/>
<path d="M106.228 81.2089L106.172 103.546C96.2777 97.9384 83.6047 94.9376 70.7627 94.5062L70.819 72.1691C83.661 72.5817 96.334 75.6012 106.228 81.2089Z" fill="#609CBF"/>
<path d="M14.4385 126.633L14.6262 59.9782C14.645 53.2827 18.4 46.606 25.8911 41.0732L25.7034 107.728C18.2122 113.261 14.4573 119.938 14.4385 126.633Z" fill="#E18AC7"/>
<path d="M0.000157332 126.596L0.187906 59.9408C0.150356 70.0497 6.8342 80.1586 20.2019 87.8669C29.7395 93.3621 41.3799 96.888 53.6023 98.4634L53.4146 165.119C41.1922 163.543 29.5518 160.017 20.0141 154.522C6.64645 146.814 -0.0373923 136.686 0.000157332 126.596Z" fill="#E18AC7"/>
<path d="M25.9098 41.092C9.5006 53.2077 11.0214 70.7999 30.3782 81.9591C37.9257 86.3102 47.1629 89.1047 56.8507 90.305L53.5839 98.4634C41.3615 96.888 29.7211 93.3621 20.1835 87.8669C-4.84338 73.4443 -6.42047 50.5445 15.5836 35.1467L25.891 41.092H25.9098Z" fill="#E7A1D2"/>
<path d="M56.8508 90.3051L56.6631 156.96L53.415 165.119L53.6028 98.4635L56.8508 90.3051Z" fill="#D384BE"/>
<path d="M122.112 91.3553L122.018 125.714C122.037 117.612 116.761 109.51 106.172 103.283L106.266 68.9244C116.855 75.1511 122.13 83.2532 122.112 91.3553Z" fill="#80E1FE"/>
<path d="M137 91.4116L136.906 125.771C136.868 136.048 130.109 146.326 116.61 154.166C99.4689 164.125 75.5122 167.8 53.3203 165.194L53.4142 130.835C75.606 133.423 99.5627 129.747 116.704 119.807C130.222 111.967 136.981 101.689 137 91.4116Z" fill="#80E1FE"/>
<path d="M116.761 62.8291C143.74 78.6395 143.778 104.09 116.685 119.807C99.5441 129.765 75.5874 133.441 53.3955 130.835L56.7562 122.432C74.1042 124.383 92.7288 121.476 106.115 113.711C127.387 101.352 127.406 81.3777 106.247 68.9432L116.761 62.8479V62.8291Z" fill="#99F6FE"/>
</g>
<defs>
<clipPath id="clip0_513_590">
<rect width="137" height="166" fill="white"/>
</clipPath>
</defs>
</svg>
