<svg width="171" height="154" viewBox="0 0 171 154" fill="none" xmlns="http://www.w3.org/2000/svg">
<g clip-path="url(#clip0_513_672)">
<path d="M127.673 120.611L54.7695 78.0923L97.5837 48.6177L170.487 91.1369L127.673 120.611Z" fill="#80E1FE"/>
<path d="M127.233 121.09L54.3477 78.589L54.7694 78.0923L127.673 120.611L127.233 121.09Z" fill="#80E1FE"/>
<path d="M116.653 127.217L43.7676 84.7157C45.5462 84.6789 47.3064 84.1454 49.0666 83.1334C50.8269 82.1215 52.5688 80.6128 54.3474 78.589L127.251 121.09C125.472 123.114 123.73 124.622 121.97 125.634C120.21 126.646 118.449 127.18 116.671 127.217H116.653Z" fill="#609CBF"/>
<path d="M116.23 127.235L43.3271 84.7342L43.7672 84.7158L116.652 127.217L116.23 127.235Z" fill="#80E1FE"/>
<path d="M170.486 91.1368L171 96.9692L129.121 125.8C126.755 128.431 124.353 130.436 121.951 131.816C119.568 133.196 117.166 133.969 114.782 134.098L72.8848 153.803L73.3798 147.4L116.212 127.253H116.652C118.431 127.198 120.191 126.683 121.951 125.653C123.712 124.641 125.454 123.132 127.232 121.108L127.672 120.63L170.486 91.1552V91.1368Z" fill="#E286B7"/>
<path d="M73.3801 147.381L0.495117 104.881L43.3276 84.7341L116.231 127.235L73.3801 147.381Z" fill="#80E1FE"/>
<path d="M72.9033 153.803L0 111.283L0.495068 104.881L73.38 147.381L72.9033 153.803Z" fill="#ED8BBB"/>
<path d="M56.3823 81.1833C54.072 83.8143 51.78 85.7645 49.378 87.1628C46.921 88.5795 44.3724 89.3891 41.842 89.573L7.16895 91.8545V105.893L72.6829 144.088V69.9785L56.4007 81.1833H56.3823Z" fill="#FAF6F2"/>
<path d="M98.3352 52.3158L72.665 69.9969V144.088L116.543 123.463L118.23 123.408C119.165 123.39 120.118 123.095 121.145 122.488C122.465 121.734 123.877 120.483 125.362 118.808L126.279 117.778L164.931 91.1553V77.1171L98.3352 52.3158Z" fill="#EAE0D8"/>
<path d="M164.931 77.1172L126.261 103.722L125.344 104.752C124.189 106.058 123.089 107.089 122.025 107.843C121.732 108.064 121.42 108.266 121.127 108.432C120.779 108.634 120.412 108.818 120.082 108.947C119.44 109.204 118.835 109.352 118.212 109.37L116.525 109.425L72.6653 130.05L7.15137 91.8545L41.8244 75.5349C44.3548 75.3693 46.9218 74.5598 49.3605 73.1431C49.8922 72.8487 50.4056 72.4991 50.919 72.1496C51.4874 71.7632 52.0375 71.3584 52.5692 70.8801C53.8527 69.8497 55.0996 68.617 56.3647 67.1819L98.3355 38.2777L164.931 77.1172Z" fill="#F4ECE5"/>
<path d="M98.335 38.2777L137.574 96.9509L171 76.3077L98.335 38.2777Z" fill="#FAF6F2"/>
<path d="M122.025 107.861C121.732 108.082 121.42 108.284 121.127 108.45C120.778 108.652 120.412 108.836 120.082 108.965L50.9189 72.1312C51.4874 71.7448 52.0374 71.3401 52.5692 70.8617L122.025 107.843V107.861Z" fill="#FAF6F2"/>
</g>
<g clip-path="url(#clip1_513_672)">
<path d="M102.123 22.5746V28.553C102.123 29.4139 102.028 30.2748 101.838 31.1357V25.1573C102.028 24.2964 102.123 23.4355 102.123 22.5746Z" fill="#5C6BAC"/>
<path d="M90.9223 38.3338C90.9223 38.3338 90.8034 38.4055 90.7558 38.4294C87.4264 40.3425 83.6452 41.8491 79.6023 42.9252C76.0113 43.8818 72.2301 44.4796 68.3775 44.7427C57.0337 45.5557 45.1668 43.4035 36.4152 38.3338C28.8051 33.9097 25.0001 28.1226 25.0001 22.3354V28.3378C24.9763 34.1249 28.7576 39.9121 36.3676 44.3361C45.1192 49.4058 56.9862 51.5581 68.3299 50.745C72.1825 50.482 75.9638 49.8602 79.5547 48.9276C83.5976 47.8514 87.3788 46.3688 90.7082 44.4318C90.7558 44.4079 90.8272 44.36 90.8747 44.3361C97.2006 40.6295 100.839 35.9663 101.814 31.1596V25.1812C100.863 30.0118 97.2244 34.675 90.8985 38.3577L90.9223 38.3338Z" fill="#D182BD"/>
<path d="M90.7555 6.57616C75.6305 -2.20019 51.2308 -2.20019 36.2247 6.57616C21.2186 15.3525 21.3137 29.5573 36.4149 38.3337C51.5161 47.11 75.9397 47.11 90.922 38.3337C105.928 29.5573 105.857 15.3525 90.7555 6.57616ZM89.9707 25.0137C89.8994 25.7072 89.7329 26.3768 89.4238 27.0703C88.4012 29.4377 85.9992 31.7095 82.1942 33.5509C71.8493 38.5728 55.1309 38.5728 44.8336 33.5509C39.2449 30.8008 36.7003 27.142 37.2235 23.5549C37.3186 22.8614 37.5326 22.1919 37.8418 21.5223C38.1747 20.8288 38.6028 20.1592 39.1736 19.5135C39.7443 18.8439 40.4578 18.1743 41.2663 17.5526C42.2889 16.7634 43.5256 16.0221 44.9287 15.3047C55.2736 10.2828 72.0157 10.2828 82.3131 15.3047C85.5236 16.883 87.7115 18.7483 88.9006 20.7331C89.3286 21.4266 89.614 22.144 89.8043 22.8854C89.947 23.5789 90.0183 24.2963 89.947 24.9898L89.9707 25.0137Z" fill="#E18AC7"/>
<mask id="mask0_513_672" style="mask-type:luminance" maskUnits="userSpaceOnUse" x="37" y="6" width="53" height="19">
<path d="M89.9947 24.3681C89.9947 22.6942 89.9947 21.0202 89.9947 19.3462C89.9947 16.07 87.4263 12.7939 82.3133 10.3068C72.0159 5.28493 55.2976 5.28493 44.9527 10.3068C39.7445 12.8417 37.1523 16.1657 37.1523 19.4897C37.1523 21.1637 37.1523 22.8376 37.1523 24.5116C37.1523 21.1876 39.7445 17.8636 44.9527 15.3287C55.2976 10.3068 72.0397 10.3068 82.3133 15.3287C87.4263 17.8397 89.9709 21.0919 89.9947 24.3681Z" fill="white"/>
</mask>
<g mask="url(#mask0_513_672)">
<path d="M89.9949 24.3682V19.3463C89.9949 18.8441 89.9236 18.3658 89.8047 17.8636V22.8855C89.9474 23.3877 89.9949 23.866 89.9949 24.3682Z" fill="#858686"/>
<path d="M89.8048 17.8636C89.1389 15.0897 86.6419 12.4113 82.3137 10.3069C82.2661 10.3069 82.2423 10.2591 82.1947 10.2591C79.9117 9.15903 77.3195 8.29814 74.5371 7.67638C72.0876 7.12636 69.4717 6.79157 66.8319 6.62417C59.0554 6.16981 50.9221 7.38941 44.9292 10.3069C39.7211 12.8418 37.1289 16.1658 37.1289 19.4898V24.5117C37.1289 21.1877 39.7449 17.8636 44.953 15.3288C50.9459 12.4113 59.0792 11.1917 66.8557 11.6461C69.4955 11.8135 72.0876 12.1483 74.5609 12.6983C77.3195 13.32 79.9355 14.157 82.2185 15.281C82.2661 15.281 82.2899 15.3288 82.3374 15.3288C86.6657 17.4571 89.1627 20.1355 89.8286 22.8855V17.8636H89.8048Z" fill="#609CBF"/>
</g>
<path d="M94.9414 35.5598L95.203 41.3709L100.958 43.2122L101.172 38.6447L94.9414 35.5598Z" fill="#393E3D"/>
<path d="M101.172 38.6447L97.1296 41.9926L90.3994 38.6447L94.9417 35.5598L101.172 38.6447Z" fill="#E18AC7"/>
<path d="M90.3994 38.6447V44.4318L95.6789 47.0384L97.1296 41.9926L90.3994 38.6447Z" fill="#D182BD"/>
<path d="M106.19 38.4056C105.762 37.9751 105.215 37.6881 104.644 37.5208H104.62C102.67 36.9468 100.078 37.736 97.914 39.7686C94.9414 42.5905 93.9663 46.7036 95.7499 48.9754C96.1542 49.5016 96.6774 49.8603 97.2481 50.0994L135.631 70.2826L144.169 58.3736L106.19 38.4534V38.4056Z" fill="#FBE08F"/>
<path d="M144.859 58.78C146.832 60.8844 146.19 65.0694 143.456 68.1303C140.721 71.1674 136.916 71.9326 134.942 69.8282C132.968 67.7238 133.61 63.5389 136.345 60.4779C139.08 57.4409 142.885 56.6756 144.859 58.78Z" fill="#EFCA70"/>
<path d="M78.2226 21.4985C77.6043 22.6224 76.011 22.9333 74.6079 22.3594C67.521 19.418 59.578 19.418 52.4911 22.3594C51.088 22.9333 49.5184 22.6224 48.8763 21.4985C48.258 20.3745 49.0428 18.7484 50.7075 18.0549C58.9121 14.6591 68.1393 14.6591 76.3677 18.0549C78.0324 18.7484 78.8172 20.3745 78.1989 21.4985H78.2226Z" fill="#609CBF"/>
<path d="M78.2226 20.781C77.6043 21.905 76.011 22.2159 74.6079 21.6419C67.521 18.7006 59.578 18.7006 52.4911 21.6419C51.088 22.2159 49.5184 21.905 48.8763 20.781C48.258 19.6571 49.0428 18.031 50.7075 17.3375C58.9121 13.9417 68.1393 13.9417 76.3677 17.3375C78.0324 18.031 78.8172 19.6571 78.1989 20.781H78.2226Z" fill="#80E1FE"/>
</g>
<defs>
<clipPath id="clip0_513_672">
<rect width="171" height="115.525" fill="white" transform="translate(0 38.2777)"/>
</clipPath>
<clipPath id="clip1_513_672">
<rect width="121" height="71" fill="white" transform="translate(25)"/>
</clipPath>
</defs>
</svg>
